<svg xmlns="http://www.w3.org/2000/svg" width="498.161" height="175.44" viewBox="0 0 498.161 175.44"><g fill="#6E7171"><path d="M154.836 122.604c-4.354 2.856-10.949 7.277-19.788 13.26.408.408.816.612 1.224.612.816 0 2.311-.679 4.488-2.04-.408.545-.478.953-.204 1.224.679-.271 1.632-.679 2.856-1.224-1.361 1.09-2.856 2.04-4.488 2.856l-1.428 1.632c-2.177.953-5.374 2.652-9.588 5.1-.274.137-.274.341 0 .612 7.478-3.535 13.598-6.866 18.36-9.996-1.09 1.224-2.722 2.856-4.896 4.896-1.361.682-3.538 1.836-6.528 3.468-2.177 1.906-5.374 4.488-9.588 7.752-1.09.683-3.605 1.703-7.548 3.061-.545.816-3.538 2.447-8.976 4.896-3.264 1.632-5.1 2.378-5.508 2.244-.274 0-.714-.137-1.326-.408-.612-.273-1.055-.407-1.326-.407-1.906 0-4.762.372-8.568 1.121-3.809.746-6.665 1.053-8.568.918 1.087 0 .032-.137-3.162-.407-3.197-.274-4.998-.408-5.406-.408.271.271 1.291.883 3.06 1.836-3.401-.137-5.374-.341-5.916-.612-2.314-1.09-6.257-3.876-11.832-8.363-1.632-1.633-2.518-2.582-2.652-2.856l-4.284.408c-.408.274-.816.612-1.224 1.02l-1.02-.819c-.137.137-.204.376-.204.714 0 .341-.204.442-.612.306h-1.428c-.408-.134-.749-.204-1.02-.204.816 0 2.174-.372 4.08-1.122 1.903-.746 3.398-1.121 4.488-1.121.408.137.612 0 .612-.408 0-.68-.851-1.868-2.55-3.57-1.702-1.699-2.891-2.617-3.57-2.754-.408 0-1.09.274-2.04.816-.953.545-1.632.816-2.04.816-3.401-.134-8.297.137-14.688.816 0 .137.134.376.408.714.271.341.408.714.408 1.122-1.224-1.495-2.448-2.244-3.672-2.244-.408 0-.612.07-.612.204 0 .137.134.341.408.612-.682-.408-2.314-1.02-4.896-1.836-.137.137-.341.239-.612.306-.274.07-.478.172-.612.306 2.582 2.177 4.692 3.334 6.324 3.468l4.692.204c.134-.134.204-.271.204-.408 0-.134-.204-.204-.612-.204.95 0 2.04.341 3.264 1.02-.816 0-2.008.138-3.57.407-1.565.275-2.754.408-3.57.408-.408 0-1.361-.475-2.856-1.428-1.498-.95-2.381-1.428-2.652-1.428-.408 0-.58.07-.51.204.067.137-.102.204-.51.204-2.314-.134-6.461-2.652-12.444-7.548-.682-1.087-1.906-3.06-3.672-5.916-3.539-5.575-5.646-11.832-6.324-18.768-.408-3.943-.612-6.799-.612-8.568 0-.134.169-.475.51-1.02.338-.542.44-.95.306-1.224-.137-5.304 1.734-11.797 5.61-19.482 3.876-7.682 8.125-12.546 12.75-14.586.816-.134 1.766-.408 2.856-.816 3.398-2.311 5.304-3.331 5.712-3.06-1.224.408-2.518 1.294-3.876 2.652 1.087.816 2.244 1.224 3.468 1.224.816 0 1.664-.577 2.55-1.734.883-1.154 1.256-2.142 1.122-2.958.542 0 .883.137 1.02.408.408 0 .679-.408.816-1.224 0 .274.338.408 1.02.408.134 0 1.632-.781 4.488-2.346 2.856-1.562 4.622-2.48 5.304-2.754 1.632-.679 5.575-1.428 11.832-2.244 3.943-.542 5.712-.816 5.304-.816.408 0 1.02.274 1.836.816.816.545 1.358.886 1.632 1.02.408 0 1.02-.134 1.836-.408.816-.271 1.358-.408 1.632-.408.271 0 .714.102 1.326.306.612.204 1.052.306 1.326.306.408 0 .848-.134 1.326-.408.475-.271.848-.408 1.122-.408.271 0 .746.274 1.428.816.679.545 1.154.816 1.428.816 2.174.545 3.739.816 4.692.816.271 0 .577-.134.918-.408.338-.271.644-.408.918-.408.408 0 .816.07 1.224.204l.612.408c-.682 0-1.157.204-1.428.612l-.204.408c1.495.137 3.943.612 7.344 1.428l-.204 4.488-.816.816c-.408.408-.612.816-.612 1.224.134 0 .408.204.816.612-.408-.134-.886-.408-1.428-.816l-3.264 3.264.204 1.428c.408-.134 1.02-.542 1.836-1.224-.137 1.09.067 1.632.612 1.632.408.137.746.137 1.02 0h.612c-.274.408-.886 1.973-1.836 4.692 0 .408-1.09 2.04-3.264 4.896v1.836c1.224-2.04 3.397-4.896 6.528-8.568-2.314 5.712-4.284 10.133-5.916 13.26-.137.137-.07.341.204.612.271-.134.612-.408 1.02-.816 1.903-4.488 5.371-11.016 10.404-19.584h.816c-.137.408-.408 1.09-.816 2.04l.408.816 1.428-1.224c-.816 1.361-1.836 3.401-3.06 6.12.134.274.338.408.612.408 0-.816-.137-1.224-.408-1.224-.408 0-1.361 1.157-2.856 3.468l-6.324 11.628c.134.274.134.682 0 1.224-.137.274-.274.749-.408 1.428l-.816-.816c-2.585 2.993-4.15 7.344-4.692 13.056l-1.224 12.036c-.274.816-.408 1.498-.408 2.04 0 .816.134 1.498.408 2.04.542-.408.816-1.087.816-2.04.542-1.766 1.154-4.284 1.836-7.548.271-1.903.679-4.826 1.224-8.772.134-.408 1.154-2.378 3.06-5.916.408-.816 1.291-2.923 2.652-6.324.95-2.311 2.244-4.214 3.876-5.712l.612 1.836c-2.314 3.538-4.896 11.494-7.752 23.868l.816.816c1.087-6.391 3.535-11.966 7.344-16.728-1.09 1.906-2.381 4.829-3.876 8.772-1.498 5.578-2.244 10.066-2.244 13.464-.137.545.067.816.612.816-.682 0 1.836-1.087 7.548-3.264v1.836c.271.137.612.204 1.02.204 1.358 0 5.167-1.699 11.424-5.1l-9.588 6.324c.408.274.746.408 1.02.408.542 0 1.087-.134 1.632-.408-.274.274-.749.816-1.428 1.632l-1.428-1.428-6.936 5.304c.542.137 1.428.478 2.652 1.02-.545 0-2.585.682-6.12 2.04 0 .816-.172 1.906-.51 3.264-.341 1.361-.51 2.448-.51 3.264-.137 1.361.612 2.62 2.244 3.774 1.632 1.157 3.194 1.804 4.692 1.938.408 0 .985-.067 1.734-.204.746-.134 1.326-.204 1.734-.204l16.32-6.732c-.274.274-1.702.953-4.284 2.04-1.769.816-2.926 1.906-3.468 3.264.134 0 .306.07.51.204.204.137.373.204.51.204l17.136-8.976c.95.274 2.448.478 4.488.612-.682-.134.612-.679 3.876-1.632l.612-.204c1.358-.271 3.602-1.02 6.732-2.244 6.254-3.943 9.655-6.05 10.2-6.324.408 0 .577.07.51.204-.07.137.032.204.306.204.679.137 1.358-.067 2.04-.612-.953.816-1.632 1.836-2.04 3.06-1.906.408-4.15 1.565-6.732 3.468-.137.137-.07.341.204.612 1.224-.542 5.03-2.311 11.424-5.304zm-149.94 2.652c-.953-2.99-1.428-4.622-1.428-4.896 0-1.224.542-1.766 1.632-1.632l-.204 6.528zm-.612-7.14h-.612v-3.06h.612v3.06zm17.34 27.948c-1.499-.679-3.809-2.244-6.936-4.692l.204-.612-.816.612-2.856-3.06c2.582 1.498 6.05 4.08 10.404 7.752zm12.852 7.548c-.545 1.766-1.769 2.582-3.672 2.448-1.498 0-4.013-1.225-7.548-3.672-2.585-1.767-4.488-3.127-5.712-4.081 2.856 1.631 7.207 3.875 13.056 6.732.134-.134.306-.235.51-.306.204-.067.373-.169.51-.307-.682-.949-1.906-2.039-3.672-3.264 3.398 1.77 5.234 2.723 5.508 2.855.408.003.746-.13 1.02-.405zm39.78-84.252h-3.468l.816 1.02c-.137.137-.479.204-1.02.204-.545-.542-.953-.883-1.224-1.02.271.408.408.749.408 1.02 0 .274-.204.479-.612.612-2.448-.542-3.468-.816-3.06-.816-1.361 0-2.993.612-4.896 1.836-6.528 4.217-10.678 7.752-12.444 10.608.408 0 .95.341 1.632 1.02 1.087-1.766 3.264-3.535 6.528-5.304 3.264-1.766 5.983-2.582 8.16-2.448.542 0 .883.07 1.02.204-4.762 1.224-9.588 3.672-14.484 7.344-.682.274-1.498.545-2.448.816-1.77 2.585-4.284 6.12-7.548 10.608-.137-.95 1.02-3.468 3.468-7.548-3.538 5.17-5.916 8.705-7.14 10.608-2.314 3.809-3.468 6.802-3.468 8.976-2.04 5.304-3.13 9.384-3.264 12.24 0 1.632.475 3.742 1.428 6.324 1.358 3.672 3.194 5.508 5.508 5.508 1.087.137 3.127-.408 6.12-1.632 2.99-1.224 5.03-1.836 6.12-1.836.408 0 .577.07.51.204-.07.137.102.274.51.408.408 0 .95-.236 1.632-.714.679-.475 1.154-.714 1.428-.714.542-1.087.883-3.194 1.02-6.324 1.087-16.862 4.692-30.326 10.812-40.392-.816 0-1.428.274-1.836.816v-1.632c0 .274-.274.682-.816 1.224l.204-2.856c1.224 0 2.04-.134 2.448-.408.408-.816.883-1.97 1.428-3.468h1.632c.134.274.204.612.204 1.02l-.408.816 5.1-6.324zm-33.66 82.824c-.408.408-.612.75-.612 1.021 0 .138.067.274.204.408-2.585-.134-4.625-.408-6.12-.816.134 0 .306-.169.51-.51.204-.338.373-.51.51-.51h1.836c.408.136 1.632.274 3.672.407zm-3.264-42.636l-.408-.408-1.224 1.632.612.408 1.02-1.632zm7.14 42.228c-.408 0-1.836-.408-4.284-1.224.95.137 2.174.407 3.672.815.271.276.475.409.612.409zm5.1-3.876h-4.284v-.612h4.284v.612zm4.896 7.752c-.816.271-1.906.679-3.264 1.224-.274-.137-.749-.545-1.428-1.224.134-1.633 1.699-2.378 4.692-2.244-.408 0-1.224.341-2.448 1.02l.816 1.021c.95-.001 1.495.066 1.632.203zm-2.652-7.752l-.204.612-1.428-.612v-.612l1.632.612zm4.08-39.372l-.408 3.468h-.816l.408-3.468h.816zm16.32-41.412l-.204-.612-1.02.612-.204.612 1.428-.612zm7.956-2.244c-1.498-.408-2.789-.612-3.876-.612-1.361-.134-3.13.204-5.304 1.02 1.087.816 1.632 1.498 1.632 2.04.679 0 1.358.137 2.04.408 1.224.816 1.903 1.224 2.04 1.224.408-.816.918-1.699 1.53-2.652.612-.95 1.256-1.428 1.938-1.428zm-2.652 6.324c.271 0 .408.07.408.204-.137.274-.408.682-.816 1.224l-1.632-1.02c.134.137.475.102 1.02-.102.542-.204.883-.306 1.02-.306zm-.816 67.932v-1.632h-.816v1.632h.816zm.204-2.652v-1.632h-.816v1.632h.816zm9.384-70.584c1.087.137.408.035-2.04-.306-2.448-.338-3.809-.51-4.08-.51-.408 1.361-1.224 2.789-2.448 4.284.679 0 1.087.137 1.224.408-.545.545-.816.886-.816 1.02.134 0 .338-.067.612-.204.271-.134.542-.204.816-.204.408 0 .612.172.612.51 0 .341.067.51.204.51-.274.274-.408.816-.408 1.632.542-.271 2.107-.746 4.692-1.428-.274 0-.478-.134-.612-.408.679-1.087 1.428-2.856 2.244-5.304zm-7.14 67.932l-.612-1.224-.612.204.612 1.02h.612zm5.1-87.312l-.204 5.508c0 2.314-1.02 3.742-3.06 4.284-1.224-1.358-1.836-3.535-1.836-6.528.134-2.99 1.154-4.418 3.06-4.284.542 0 1.224.341 2.04 1.02zm-2.04 21.216l-1.02 1.02-.408-.612 1.224-.816.204.408zm3.264 47.532h-.816l-1.02 6.12h.612l1.224-6.12zm4.08-42.024c-.682 0-1.428-.338-2.244-1.02.134 0 .408-.102.816-.306.408-.204.746-.306 1.02-.306 0 .408.067.749.204 1.02l.204.612zm2.856 20.604l-3.468 5.1-.612-.408 3.468-5.1.612.408zm-2.04 14.688l-1.224 4.284-.816-.204 1.428-4.08h.612zm18.972-50.184c0 .953-1.906 3.197-5.712 6.732-1.769-.542-4.15-1.562-7.14-3.06-.274-.542-.749-1.428-1.428-2.652.271-.408.475-1.224.612-2.448.134-1.495-.137-2.244-.816-2.244-.274 0-.58.07-.918.204-.341.137-.647.137-.918 0-1.361 0-2.722-1.358-4.08-4.08 1.903-2.174 3.876-3.194 5.916-3.06.271 0 .95.376 2.04 1.122 1.087.75 1.836 1.122 2.244 1.122.542.137 1.291.137 2.244 0 .95-.134 1.699-.204 2.244-.204 1.087.137 2.311 1.294 3.672 3.468 1.358 2.177 2.04 3.876 2.04 5.1zm-18.156 14.28h-1.02v-.612h1.02v.612zm6.12 8.772l-2.448 3.264-.612-.408 2.448-3.264.612.408zm-.408-2.856l-1.224 2.04-.612-.204 1.224-2.04.612.204zm2.244-.408l-1.224.816-.408-.408 1.224-1.02.408.612zm3.468 44.472c-.274-.271-.478-.612-.612-1.02-.274.137-.953.816-2.04 2.04.271.274.679.749 1.224 1.428 0-.542.475-1.358 1.428-2.448zm2.856.816l-1.836 1.632 1.632.204c0-1.087.067-1.699.204-1.836zm42.84-28.56c0 .274-.07.647-.204 1.122-.137.479-.204.784-.204.918h-2.04l-1.632-2.448c0 .274-.274.612-.816 1.02.679-.271 1.02-.883 1.02-1.836 0-.542-.07-1.393-.204-2.55-.137-1.154-.204-2.005-.204-2.55 0-.679.067-1.291.204-1.836l2.04.204c.271.953.542 2.856.816 5.712.816.816 1.224 1.565 1.224 2.244zM196.042 114.852c0 5.033-1.157 9.18-3.468 12.444-.816 1.224-1.906 3.13-3.264 5.712-.816 1.09-4.15 4.013-9.996 8.772.134-.408.475-1.02 1.02-1.836 0-.134.067-.204.204-.204h-1.02c1.087 0-.341.612-4.284 1.836.95-.542 2.311-1.495 4.08-2.856.134-.271.067-.542-.204-.816l-26.112 13.464c-.137-.542-.408-.815-.816-.815-1.906 0-7.344 1.973-16.32 5.915-.408.134-1.224.816-2.448 2.04 0-.953.134-1.428.408-1.428-.816.816-1.361 1.97-1.632 3.468-.274-.137-.816-.545-1.632-1.224-4.488 1.766-6.598 4.963-6.324 9.588-.274 0-.647-.172-1.122-.51-.478-.341-.851-.51-1.122-.51-.274.407-1.09 2.243-2.448 5.508h-1.02c-.137-1.361-.137-2.993 0-4.896-.274-.545-.612-.953-1.02-1.224-.274.271-.408.746-.408 1.428 0-.682-.204-1.157-.612-1.428-.274.271-1.02 1.291-2.244 3.06.134-2.313.134-3.809 0-4.487-.408 0-.682.203-.816.611-.274 1.225-.953 2.99-2.04 5.305-.137-.138-.341-1.225-.612-3.265-.408-1.498-.204-2.789.612-3.876-.953-1.09-1.903-1.632-2.856-1.632-.542 0-1.154.067-1.836.204-.679.134-1.224.204-1.632.204v-3.061c1.498-.273 3.468-.815 5.916-1.632.679-1.906 2.311-6.253 4.896-13.056 1.495-3.943 3.264-8.976 5.304-15.096v-.612c-.545.408-1.02 1.09-1.428 2.04 5.846-19.176 11.22-40.526 16.116-64.056 3.127-15.775 4.896-27.744 5.304-35.904v-4.488c0-1.903-.07-3.331-.204-4.284v-3.6719999999999997c.271.953.816 2.244 1.632 3.876.816-1.358 1.224-2.856 1.224-4.488 0-1.224-.204-2.448-.612-3.672.134-.679.816-2.174 2.04-4.488-.408 4.217-.612 7.14-.612 8.772.408-.816 1.224-2.311 2.448-4.488.679-.816 1.766-1.903 3.264-3.264.271.274.746 1.09 1.428 2.448.271-.134.475-.612.612-1.428v1.428c1.224 0 2.107.137 2.652.408.271-.271.51-.714.714-1.326.204-.612.373-.985.51-1.122-.137.682-.137 2.04 0 4.08.95-.408 1.699-1.154 2.244-2.244l-1.224-1.428 3.672 2.448c.679-1.358 1.02-2.786 1.02-4.284.134.816.408 1.973.816 3.468.134-.816.475-1.632 1.02-2.448.271 1.498.883 3.742 1.836 6.732h.204c.134-2.04.612-4.622 1.428-7.752.679-1.358 1.699-2.04 3.06-2.04.816 0 1.699 1.224 2.652 3.672-1.77 0-2.856.816-3.264 2.448-.408 1.224-.408 2.722 0 4.488.679 4.354 1.02 8.638 1.02 12.852 0 6.936-1.02 13.534-3.06 19.788 0-.542-.274-1.154-.816-1.836-.408 2.04-1.157 5.1-2.244 9.18-.274-.271-.545-.408-.816-.408-.545 1.09-1.157 2.722-1.836 4.896.134.682.204 1.769.204 3.264-.545.682-1.294 1.836-2.244 3.468v-2.04c-.137-.134-.274 0-.408.408-.682 2.448-2.11 7.21-4.284 14.28 1.358-.134 4.214-.134 8.568 0 4.896.274 8.772.886 11.628 1.836 5.846 2.177 10.742 6.12 14.688 11.832 3.943 5.713 5.916 11.699 5.916 17.953zm-57.527-98.736c-.274.408-.545 1.565-.816 3.468-.408-.816-.953-2.174-1.632-4.08.542.545.883.816 1.02.816h1.02c.133-.134.27-.204.408-.204zm-.816 120.156h-.612l-1.02 2.448.612.204 1.02-2.652zm1.836-5.712c-.816.682-1.428 2.177-1.836 4.488-.274 0-.479.07-.612.204.134.274.338.612.612 1.02 1.223-2.856 1.836-4.759 1.836-5.712zm30.396-10.404c0-1.087-.408-2.652-1.224-4.692l-1.02 3.264c0-1.766-.612-4.08-1.836-6.936 0 1.361-.137 2.244-.408 2.652 0-.679-.816-1.766-2.448-3.264h1.632c-.682-2.174-4.354-3.264-11.016-3.264-2.585 0-4.15.545-4.692 1.632.95 0 2.378.341 4.284 1.02l-4.488 1.02c-1.361 4.217-3.401 10.2-6.12 17.952 0-.271.067-.408.204-.408.134.274.204.682.204 1.224 0 .682-.306 1.769-.918 3.264-.612 1.498-.918 2.381-.918 2.652.679-.816 1.358-1.903 2.04-3.264.271.274.338.478.204.612 0-.408-.274-.134-.816.816-.682 1.224-1.294 2.04-1.836 2.448l-.408.408c-.137 1.498-.408 2.722-.816 3.672 0-.679.408-1.02 1.224-1.02.271 1.09-.341 2.585-1.836 4.488h1.632c-.682.953-1.499 2.244-2.448 3.876 2.04-.679 4.214-2.04 6.528-4.08-1.498 1.09-2.585 1.498-3.264 1.224.816-.679 1.632-1.291 2.448-1.836-1.498.545-2.448.682-2.856.408 4.351-2.582 10.675-6.187 18.972-10.812l-4.284 1.224c2.582-1.903 5.167-3.739 7.752-5.508 3.127-2.311 4.896-4.622 5.304-6.936.815-1.903 1.224-2.515 1.224-1.836zm-24.073-7.956c-.408.137-.886.408-1.428.816-1.224 3.672-2.856 9.113-4.896 16.32l1.02.612 5.304-17.748zm-4.896 30.804l-.816 1.02-.612-.408 1.224-1.224.204.612zm2.245-129.744h-.612v-2.04h.612v2.04zm2.856 113.628l-1.224 2.244-.816-.204 1.428-2.244.612.204zm1.224-18.156c-1.361.682-2.04 1.224-2.04 1.632h1.632c-.001-.679.133-1.224.408-1.632zm-.816 2.652v-.816h-1.224v.816h1.224zm2.243-98.532h-.816l-.408-1.836h.612l.612 1.836zm2.244 100.776c-.816 0-1.428.479-1.836 1.428.271-1.358.679-2.378 1.224-3.06.001.682.204 1.224.612 1.632zm2.245-112.812l-.408.612-1.02-1.02.408-.408 1.02.816zm-.409 83.232v-1.224h-.816v1.224h.816zm.409-1.428v-1.428h-.816v1.428h.816zm.407-1.632v-2.04h-.612v2.04h.612zm.816 1.632l-.612-.204-.612 1.428.612.204.612-1.428zm4.693-7.14l-.612 2.244h-.612l.408-2.244h.816zm.407-.816h-.816v-1.428h.816v1.428zm4.896-10.812h-.612v-1.632h.612v1.632zm8.161-28.356h-1.02v-2.856h1.02v2.856zm.204-14.892h-.612v-1.224h.612v1.224zm0 10.812h-.612v-10.404h.612v10.404zm4.896 111.18l-2.04 1.02v-.612l1.836-1.02.204.612zm11.423-29.172c0-2.448-1.09-5.438-3.264-8.976 0 .682-.137 1.157-.408 1.428-.137-1.224-1.157-2.754-3.06-4.59-1.906-1.836-3.468-2.958-4.692-3.366 7.615 6.12 11.15 12.922 10.608 20.4.543-1.766.816-3.398.816-4.896zm-6.527-33.252l.612.612h1.428c-.545 0-.341-.271.612-.816 1.224.408 1.495 1.157.816 2.244-.682 1.499-.749 2.722-.204 3.672.679.408 1.495 1.157 2.448 2.244l3.06.612c1.358 0 1.766-.679 1.224-2.04.408-.271 1.02-1.699 1.836-4.284.542.545.883.816 1.02.816 1.766 0 2.652-.883 2.652-2.652 0-2.448-1.157-3.672-3.468-3.672-.137 0-.306.102-.51.306-.204.204-.376.306-.51.306-.137 0-.545-.236-1.224-.714-.682-.475-1.09-.714-1.224-.714-.682 0-1.836.478-3.468 1.428-.274.274-.886.749-1.836 1.428-.137 0-.204-.067-.204-.204 0-1.358-.545-2.04-1.632-2.04-.408 0-.886.408-1.428 1.224v2.244zm4.896 51l-.408-.408-3.876 4.08.204.408 4.08-4.08zm-1.429-48.144l.612-.204v.204l-.408.204-.204-.204zM292.533 93.024c0 2.448-1.021 6.053-3.061 10.812-.815 2.314-1.973 5.986-3.468 11.016-1.632 1.769-3.946 4.762-6.936 8.976l1.02-2.04c.816-1.495 1.087-2.378.816-2.652-1.09 1.498-2.585 3.946-4.488 7.344-.815.682-2.04 1.973-3.672 3.876-.816 1.499-1.973 3.672-3.468 6.528-3.538 5.033-7.481 9.113-11.832 12.24-7.481 5.578-12.444 8.364-14.893 8.364-.407 0-1.02-.137-1.836-.408-.815-.274-1.36-.408-1.632-.408-1.09 0-2.62.236-4.59.714-1.973.476-3.503.715-4.59.715-4.08 0-8.434-2.178-13.056-6.528l-4.08-.816c-.137.408-.204.953-.204 1.633 0 .682.067 1.498.204 2.447-1.361-1.766-3.197-4.08-5.508-6.936-.137-.679-.478-1.903-1.02-3.672l-1.224-.816c-.274-1.766-.682-4.488-1.224-8.16.679-.816 1.02-1.428 1.02-1.836-1.361-3.127-2.244-5.779-2.652-7.956.408-.408.408-4.08 0-11.016 1.224-9.926 3.739-19.718 7.548-29.376 1.495-4.214 4.418-8.635 8.772-13.26 4.622-5.438 8.772-8.568 12.444-9.384.542 0 3.127-1.087 7.752-3.264-9.384 3.809-16.865 9.725-22.439 17.748-.137.137 0 .408.408.816l1.02-.816c-1.769 1.906-3.197 4.217-4.284 6.936l.816.408c4.214-5.846 11.083-12.036 20.604-18.564-.407 0-1.564.341-3.468 1.02 8.702-5.167 15.434-7.682 20.196-7.548-.138 0-.408.204-.816.612.408.274.883.408 1.428.408.68 0 1.699-.134 3.061-.408 1.357-.271 2.378-.408 3.06-.408.408 0 1.326.478 2.754 1.428 1.429.953 2.276 1.428 2.551 1.428.542 0 .78-.102.714-.306-.07-.204.031-.306.306-.306.408.137.985.581 1.734 1.326.746.749 2.754 2.958 6.018 6.63.542 1.224 1.903 2.856 4.08 4.896l.816-.816c-.953-.408-1.326-.95-1.122-1.632.204-.679.031-1.224-.51-1.632 2.174 0 3.806.478 4.896 1.428.816-.95 1.224-1.562 1.224-1.836.542 1.498 1.633 3.06 3.265 4.692.949 1.09 2.378 4.558 4.284 10.404 0 .545.066 1.428.203 2.652.271.545.884 1.09 1.837 1.632.814 1.223 1.222 2.447 1.222 3.671zm-69.36-21.624l-2.652 2.856-.204-.612 2.448-2.448.408.204zm3.264-2.04l-2.652 2.04-.204-.816 2.448-1.836.408.612zm32.436 19.584c-1.361-2.04-2.177-3.602-2.448-4.692-1.769 1.224-4.625 3.538-8.567 6.936.134-.816.679-1.836 1.632-3.06-6.257 7.752-10.813 16.39-13.668 25.908-.545-.816-.887-1.224-1.021-1.224-.953 0-1.871 1.632-2.754 4.896-.886 3.264-1.326 5.578-1.326 6.936 0 2.722.612 6.257 1.836 10.608 5.438-1.495 10.676-5.508 15.708-12.036 5.03-6.528 7.479-12.444 7.345-17.748.542.274.949-.134 1.224-1.224l.612-1.428c-1.091-.408-2.244-.883-3.468-1.428.134-.679.203-1.224.203-1.632 0-1.358-2.177-2.582-6.527-3.672l5.1-.204c.679.274 1.632.886 2.856 1.836.134-.408.338-.883.611-1.428-.815 0-1.294-.067-1.428-.204.679-.679.95-1.224.816-1.632-.545-.408-1.294-.95-2.244-1.632 2.04-.679 3.397-1.562 4.08-2.652-.408-.542-.953-1.154-1.632-1.836.407 0 .949.102 1.632.306.679.204 1.153.306 1.428.306zm-18.157-29.784h-1.224v-.816h1.224v.816zm8.773.204c-1.498.408-4.559 1.428-9.18 3.06h1.836c.815.137 3.264-.883 7.344-3.06zm-6.12-1.224h-1.224v-.816h1.224v.816zm8.975 43.86h-1.02v-.816h1.02v.816zm36.313-33.456h-.816v-1.836h.816v1.836zM376.579 165.444c-.407-.138-1.156-.172-2.243-.103-1.091.067-1.837.103-2.244.103-.274 0-1.056-1.09-2.347-3.265-1.294-2.177-2.008-3.334-2.142-3.468-.953.542-1.498 1.087-1.632 1.632-.138.68.408 1.836 1.632 3.469-.274.949-.274 1.902 0 2.855-.274 1.495-1.09 2.244-2.448 2.244-.408 0-.714-.07-.918-.204-.204-.137-.376-.204-.51-.204-.274.271-.479.612-.612 1.021 0 .271.067.475.204.611l-1.02-1.02c-.953 0-1.498.408-1.633 1.224l-.203 1.836c-.408 0-.953-.137-1.633-.407-.682-.274-1.294-.408-1.836-.408.408.542.883 1.357 1.429 2.448l-.204 1.632h-1.632c-.683-1.77-1.77-4.421-3.265-7.956-2.313.679-3.809 1.087-4.487 1.224-1.906 0-2.789-3.468-2.652-10.404 0-.952.066-4.487.204-10.607-.138.274-.408.682-.816 1.224-1.361.545-3.13 1.361-5.304 2.448-5.712 2.04-9.929 3.13-12.648 3.265l-5.304.203c-1.224 0-3.264-.679-6.12-2.04-.545-.271-1.224-.679-2.04-1.224-6.665-2.856-11.22-8.772-13.668-17.748-1.906-7.478-2.177-15.638-.815-24.48.134-.816.306-2.107.51-3.876.204-1.766.373-3.194.51-4.284.271-1.632 2.923-9.314 7.956-23.052 1.903-5.03 4.01-8.431 6.324-10.2.134 1.09.408 2.518.815 4.284.134-.134 1.225-1.495 3.265-4.08 1.632-2.311 2.923-3.468 3.876-3.468.542 0 1.153.137 1.836.408.134.274.271.612.408 1.02l-.204 1.428c.134.545.407 1.428.815 2.652.816 2.04 2.107 2.993 3.876 2.856-1.09.137.338-.475 4.284-1.836.134.545.134 1.498 0 2.856-.274 1.498-.749 3.264-1.428 5.304-.138.408-.138.886 0 1.428-.683 3.264-1.77 7.685-3.264 13.26-.408 1.361-.546 2.585-.408 3.672l.204.612c-1.361 7.752-1.906 13.601-1.633 17.544.408 6.257 2.516 12.31 6.324 18.156l-.204.408c.816.137 1.767.545 2.856 1.224.134.274.338.408.612.408.541 0 3.397-1.562 8.567-4.692.408 0 .746.204 1.021.612-.683 1.09-1.295 1.769-1.836 2.04.134.137.407.274.815.408 0 .816.746 1.632 2.244 2.448.542-1.766 1.087-4.418 1.632-7.956-.273-.679-.408-1.087-.408-1.224l.816-1.02c.95-9.247 4.351-22.099 10.2-38.556 1.766-4.896 4.555-11.762 8.364-20.604l1.02 1.02c-.682 1.632-1.428 3.605-2.244 5.916l-.612 3.06c-.137.274.067.408.612.408 1.087 0 2.276-1.224 3.57-3.672 1.291-2.448 2.005-3.672 2.142-3.672.542 0 .95.07 1.225.204l.204.204 1.428-3.672c-.138.953-.138 2.04 0 3.264.815-.408 1.632-1.766 2.448-4.08l2.04-.816c1.357 1.361 1.97 2.11 1.836 2.244.541 0 .78-.067.714-.204-.07-.134.031-.204.306-.204.408 0 .816.479 1.224 1.428.408.953.746 1.498 1.021 1.632-.137.408-.683 1.294-1.632 2.652-.408.816-.408 1.702 0 2.652-.138.137-.07.341.204.612.815-.271 1.97-1.087 3.468-2.448l-.204.612c.134.137.338.478.612 1.02-.408 1.09-.749 2.314-1.021 3.672-.274 1.906-.478 4.08-.612 6.528l.408.204c.134-.542.476-1.02 1.021-1.428-.274.953-2.519 9.658-6.732 26.112-1.906 7.752-3.06 14.621-3.468 20.604-.137 1.498-.683 4.625-1.632 9.384-.138.408 0 .886.408 1.428l-.204 1.428c-.274.137-.612.204-1.021.204s-.749-.134-1.02-.408l-1.429.204c-2.312 12.51-.951 19.787 4.082 21.827zm-38.964-83.844l-2.04 5.712c-1.498 4.762-2.381 7.685-2.651 8.772-.138.953-.274 2.381-.408 4.284-.545 2.177-1.361 3.742-2.448 4.692-.682-4.08-.815-7.411-.408-9.996.271-1.224.816-3.127 1.632-5.712.816-2.582 1.291-4.351 1.429-5.304.542-1.632 1.495-3.876 2.855-6.732.134.274.408.612.816 1.02.542-.542 1.153-.816 1.836-.816l-.613 4.08zM396.772 131.988c-.273 1.498-.886 2.177-1.836 2.04-.273 0-1.294-.95-3.06-2.856.134-.816-.408-1.766-1.632-2.856-.138-.816-.204-1.291-.204-1.428.408 0 .816.274 1.224.816l1.632-1.224c.68-.542 1.154-.816 1.429-.816 1.495.274 2.31 2.381 2.447 6.324zm-2.651-101.592c0 .274-.103.612-.307 1.02-.203.408-.306.682-.306.816-.682-.134-1.361-.134-2.04 0-.545-.542-.749-.883-.611-1.02 0-.271.203-.781.611-1.53.408-.746.612-1.256.612-1.53.542 0 1.357.137 2.448.408l-.407 1.836zm103.836 34.476l-3.876 1.836c-.137.545.338 1.157 1.428 1.836 0 .274-.274.682-.815 1.224-2.448.274-5.986.478-10.608.612-.816 0-1.565.274-2.244.816 1.087.274 2.244.545 3.468.816 1.225.137 2.448.204 3.672.204-1.498.274-3.741.612-6.731 1.02-1.361.545-3.334 1.09-5.916 1.632.134.274.338.341.612.204 2.311-.271 3.602-.408 3.876-.408.949 0 4.214-.134 9.792-.408l.815.408-1.43 1.02-25.704 2.856c-9.384.953-17.885 1.565-25.5 1.836l-.408.408c-.137.137-1.564 4.15-4.284 12.036-1.769 5.17-2.992 9.725-3.672 13.668-2.04 13.33-1.157 24.005 2.652 32.028 7.07-4.214 10.404-6.324 9.996-6.324.542 0 1.428.714 2.652 2.142 1.224 1.428 2.106 2.212 2.651 2.346.271 0 .408-.067.408-.204 0-.134.134-.134.408 0 .271.137.679.545 1.224 1.224.816-.679 5.167-2.99 13.056-6.936-7.889 8.705-17.136 15.029-27.743 18.972-.546.273-.816.545-.816.816l.408.611c2.719-.134 9.518-3.398 20.399-9.792l-10.607 7.956c-6.803 4.896-11.29 7.14-13.464 6.732-.408 0-1.53-.816-3.366-2.448s-2.824-2.652-2.958-3.06c-1.361.407-2.11 1.156-2.244 2.243l-2.448-.407c-1.36-.271-4.487-4.147-9.384-11.628-1.906-2.99-2.855-8.906-2.855-17.748.134-6.391.679-12.648 1.632-18.768.271-1.766 2.04-9.247 5.304-22.44-3.401.545-5.916.682-7.548.408-.953-.134-2.519-.679-4.692-1.632-2.177-.95-3.876-1.495-5.1-1.632l-5.508-.816h-.816c0-.408.204-.883.612-1.428 1.224-.408 2.311-.542 3.264-.408.542.137 1.428.341 2.652.612 1.224.274 2.106.478 2.651.612l.612-.408c-.274-.408-1.157-1.02-2.652-1.836.68 0 1.837-.067 3.469-.204-3.946-3.943-6.258-5.983-6.937-6.12-.408 0-1.702.137-3.876.408.134-.408.476-.542 1.021-.408.134-.134 0-.408-.408-.816l3.264-3.264c2.856 0 4.352-.475 4.488-1.428.271-1.224.066-1.836-.612-1.836-1.09-.134-1.973-.612-2.651-1.428 1.224-.134 3.06-.475 5.508-1.02l-.612-.816c.816-.408 2.107-1.087 3.876-2.04.271-.408.204-.612-.204-.612.816.137 1.291.408 1.428.816.95-.271 1.563-1.087 1.837-2.448.949-.408 2.311-.746 4.079-1.02 2.582-.271 6.458-.746 11.629-1.428.541-1.087 2.174-5.846 4.896-14.28l.408-2.856c.134-.542.746-1.903 1.836-4.08l.204-2.04c.408-1.087 1.153-2.786 2.244-5.1.134-.542.407-1.358.815-2.448 1.087-1.224 1.836-2.378 2.244-3.468 1.632 1.09 3.468 2.381 5.508 3.876.816-.679 1.97-1.632 3.469-2.856 0 .545.541 2.11 1.632 4.692.542-1.224 1.428-3.264 2.651-6.12l1.021.408c0 1.09.475 2.789 1.428 5.1.271 1.906.408 3.946.408 6.12 0 3.401.134 4.966.408 4.692l-.408 1.836h-.612c-.815 3.401-2.177 8.501-4.08 15.3.134.274.338.612.612 1.02.271 0 .612-.204 1.02-.612-.137.545.067.886.612 1.02.95.137 2.515 0 4.692-.408 1.902.137 4.963.204 9.18.204 5.304 0 8.364-.067 9.18-.204-.815 1.498-1.836 2.177-3.06 2.04l-3.061-.408-.611.204c.408.545 1.02.886 1.836 1.02.542 0 1.428-.134 2.652-.408 1.224-.271 2.106-.338 2.651-.204.271 0 .338.137.204.408-.137.274 0 .408.408.408-.953-.134 1.699-.542 7.956-1.224h9.588c-.408 0-1.326.306-2.754.918s-2.346.851-2.754.714c-2.993-.408-5.646-.204-7.956.612.408.545.815.816 1.224.816 6.391 1.09 8.977 1.361 7.752.816.408.545 1.495 1.973 3.265 4.284 0 .408.066.816.203 1.224 1.087.545 1.429.75 1.021.612.95.137 2.855.137 5.712 0l.408.408-.206 1.225zm-103.224 9.996l-2.856-.408c.408-.134.816-.338 1.224-.612.541.682 1.086 1.02 1.632 1.02zm37.739-57.936c-.815.545-1.294.816-1.428.816l-2.448-.408c-.137-.134-.306-.408-.51-.816-.204-.408-.376-.679-.51-.816-.816.137-1.498.647-2.04 1.53-.545.886-.683 1.6-.408 2.142.95 3.13.746 5.304-.612 6.528-1.224.816-2.993 1.973-5.304 3.468-4.217.274-6.19.479-5.916.612-.816-.134-1.428-.644-1.836-1.53-.408-.883-.408-1.734 0-2.55-.408-.542-.953-1.428-1.632-2.652-.138-1.358-.341-3.264-.612-5.712-.953.816-1.702 1.157-2.244 1.02-3.4-.542-4.829-2.311-4.284-5.304.271-1.495 1.225-2.923 2.856-4.284 1.632-1.358 3.194-1.903 4.692-1.632.271 0 .611.137 1.02.408.408.274.746.479 1.021.612.271 0 1.153-.306 2.651-.918 1.495-.612 2.378-.848 2.652-.714 1.087.137 3.06 1.294 5.916 3.468.542.816 1.562 2.04 3.06 3.672.408-.816 1.087-1.766 2.04-2.856.816-.679 1.495-.95 2.04-.816.95.137 1.766 1.02 2.448 2.652l-.612 4.08zm-19.176 18.564l-3.672-1.428.204-.408 3.468 1.224v.612zm3.061 9.18c-.274 1.361-1.021 1.906-2.244 1.632-2.178-.271-3.605-1.358-4.284-3.264.679-1.495 1.495-2.174 2.448-2.04 2.989.408 4.35 1.632 4.08 3.672zm8.363-23.46l-.408-.612-.407.204.407.612.408-.204zm6.733 4.284l-7.548 22.236 6.12-24.48c.27.137.745.886 1.428 2.244zm4.284 94.656c-.683 0-1.157-.338-1.429-1.02-.407-1.495-.478-3.06-.204-4.692-.137 1.09 1.087-3.672 3.673-14.28-.408 1.906-.715 5.135-.918 9.69-.204 4.558-.58 7.991-1.122 10.302zm15.504-74.052l-.816 3.264h-.815l1.02-3.468.611.204zm2.244-24.888h-.612l.204-.816h.611l-.203.816zm12.443.816c-.137 1.361-1.224 2.518-3.264 3.468-.408-.542-.612-.95-.612-1.224.134-.542.645-1.291 1.53-2.244.883-.95 1.597-1.495 2.142-1.632.272.408.338.953.204 1.632zm25.5.204c-1.224.816-2.177 1.157-2.855 1.02l-.408-.408.204-1.224c.271-.271 1.224-.746 2.855-1.428l.612.408-.408 1.632z"/></g></svg>