<svg xmlns="http://www.w3.org/2000/svg" width="302.193" height="208.012" viewBox="0 0 302.193 208.012"><g fill="#fff"><path d="M71.806 90.643c0 3.972-.913 7.245-2.737 9.821-.644.966-1.504 2.471-2.576 4.508-.644.86-3.275 3.167-7.889 6.923.106-.322.375-.805.805-1.449 0-.105.053-.161.161-.161h-.805c.858 0-.269.483-3.381 1.449.75-.428 1.824-1.18 3.22-2.254.106-.214.053-.428-.161-.644l-20.608 10.626c-.108-.428-.322-.644-.644-.644-1.504 0-5.796 1.557-12.88 4.669-.322.105-.966.645-1.932 1.61 0-.752.106-1.127.322-1.127-.644.644-1.074 1.555-1.288 2.736-.216-.107-.644-.43-1.288-.966-3.542 1.394-5.207 3.917-4.991 7.567-.216 0-.511-.136-.886-.402-.377-.27-.671-.402-.885-.402-.216.321-.86 1.771-1.932 4.347h-.805c-.108-1.074-.108-2.362 0-3.864-.216-.43-.483-.752-.805-.966-.216.214-.322.589-.322 1.127 0-.538-.161-.913-.483-1.127-.216.214-.805 1.019-1.771 2.415.105-1.826.105-3.006 0-3.542-.322 0-.539.161-.644.483-.216.966-.752 2.359-1.61 4.186-.108-.108-.269-.966-.483-2.576-.322-1.183-.161-2.201.483-3.059-.752-.86-1.502-1.288-2.254-1.288-.428 0-.911.053-1.449.161-.536.105-.966.161-1.288.161v-2.415c1.183-.217 2.737-.645 4.669-1.288.536-1.505 1.824-4.936 3.864-10.304 1.18-3.112 2.576-7.084 4.186-11.914v-.483c-.43.322-.805.86-1.127 1.61 4.613-15.134 8.855-31.984 12.719-50.554 2.468-12.45 3.864-21.896 4.186-28.336v-3.542c0-1.501-.055-2.629-.161-3.381v-2.898c.214.752.644 1.771 1.288 3.059.644-1.072.966-2.254.966-3.542 0-.966-.161-1.932-.483-2.898.106-.536.644-1.716 1.61-3.542-.322 3.328-.483 5.635-.483 6.923.322-.644.966-1.824 1.932-3.542.536-.644 1.394-1.502 2.576-2.576.214.216.588.86 1.127 1.932.214-.105.375-.483.483-1.127v1.127c.966 0 1.663.108 2.093.322.214-.214.402-.563.563-1.046.161-.483.294-.777.402-.885-.108.538-.108 1.61 0 3.22.75-.322 1.341-.911 1.771-1.771l-.966-1.127 2.898 1.932c.536-1.072.805-2.199.805-3.381.106.644.322 1.557.644 2.737.106-.644.375-1.288.805-1.932.214 1.183.697 2.954 1.449 5.313h.161c.106-1.61.483-3.647 1.127-6.118.536-1.072 1.341-1.61 2.415-1.61.644 0 1.341.966 2.093 2.898-1.396 0-2.254.644-2.576 1.932-.322.966-.322 2.148 0 3.542.536 3.437.805 6.817.805 10.143 0 5.474-.805 10.681-2.415 15.617 0-.428-.216-.911-.644-1.449-.322 1.61-.913 4.025-1.771 7.245-.216-.214-.43-.322-.644-.322-.43.86-.913 2.148-1.449 3.864.106.538.161 1.396.161 2.576-.43.538-1.021 1.449-1.771 2.737v-1.61c-.108-.106-.216 0-.322.322-.539 1.932-1.666 5.69-3.381 11.27 1.072-.105 3.326-.105 6.762 0 3.864.216 6.923.699 9.177 1.449 4.614 1.718 8.478 4.83 11.592 9.338 3.113 4.507 4.67 9.232 4.67 14.167zm-45.402-77.924c-.216.322-.43 1.235-.644 2.737-.322-.644-.752-1.716-1.288-3.22.428.43.697.644.805.644h.805c.106-.106.214-.161.322-.161zm-.644 94.829h-.483l-.805 1.932.483.161.805-2.093zm1.449-4.508c-.644.538-1.127 1.718-1.449 3.542-.216 0-.377.055-.483.161.105.216.267.483.483.805.966-2.254 1.449-3.756 1.449-4.508zm23.989-8.211c0-.858-.322-2.093-.966-3.703l-.805 2.576c0-1.394-.483-3.22-1.449-5.474 0 1.074-.108 1.771-.322 2.093 0-.536-.644-1.394-1.932-2.576h1.288c-.539-1.716-3.437-2.576-8.694-2.576-2.041 0-3.275.43-3.703 1.288.75 0 1.876.269 3.381.805l-3.542.805c-1.074 3.328-2.684 8.05-4.83 14.168 0-.214.053-.322.161-.322.105.216.161.538.161.966 0 .539-.242 1.396-.725 2.576-.483 1.182-.725 1.879-.725 2.093.536-.644 1.072-1.501 1.61-2.576.214.216.267.377.161.483 0-.322-.216-.106-.644.644-.538.966-1.021 1.61-1.449 1.932l-.322.322c-.108 1.182-.322 2.148-.644 2.898 0-.536.322-.805.966-.805.214.86-.27 2.041-1.449 3.542h1.288c-.539.752-1.183 1.771-1.932 3.059 1.61-.536 3.326-1.61 5.152-3.22-1.182.86-2.04 1.182-2.576.966.644-.536 1.288-1.019 1.932-1.449-1.183.43-1.932.538-2.254.322 3.434-2.038 8.425-4.883 14.973-8.533l-3.381.966c2.038-1.502 4.078-2.951 6.118-4.347 2.468-1.824 3.864-3.647 4.186-5.474.645-1.502.967-1.985.967-1.449zm-18.998-6.279c-.322.108-.699.322-1.127.644-.966 2.898-2.254 7.192-3.864 12.88l.805.483 4.186-14.007zm-3.864 24.311l-.644.805-.483-.322.966-.966.161.483zm1.771-102.396h-.483v-1.61h.483v1.61zm2.254 89.677l-.966 1.771-.644-.161 1.127-1.771.483.161zm.966-14.329c-1.074.539-1.61.966-1.61 1.288h1.288c0-.536.106-.966.322-1.288zm-.644 2.093v-.644h-.966v.644h.966zm1.771-77.763h-.644l-.322-1.449h.483l.483 1.449zm1.771 79.534c-.644 0-1.127.377-1.449 1.127.213-1.072.536-1.877.966-2.415 0 .538.161.966.483 1.288zm1.771-89.033l-.322.483-.805-.805.322-.322.805.644zm-.322 65.688v-.966h-.644v.966h.644zm.322-1.127v-1.127h-.644v1.127h.644zm.322-1.288v-1.61h-.483v1.61h.483zm.644 1.288l-.483-.161-.483 1.127.483.161.483-1.127zm3.703-5.635l-.483 1.771h-.483l.322-1.771h.644zm.322-.644h-.644v-1.127h.644v1.127zm3.864-8.533h-.483v-1.288h.483v1.288zm6.44-22.379h-.805v-2.254h.805v2.254zm.161-11.753h-.483v-.966h.483v.966zm0 8.533h-.483v-8.211h.483v8.211zm3.864 87.745l-1.61.805v-.483l1.449-.805.161.483zm9.016-23.023c0-1.932-.86-4.292-2.576-7.084 0 .538-.108.913-.322 1.127-.108-.966-.913-2.174-2.415-3.623-1.504-1.449-2.737-2.334-3.703-2.657 6.01 4.83 8.8 10.199 8.372 16.1.428-1.393.644-2.681.644-3.863zm-5.152-26.243l.483.483h1.127c-.43 0-.269-.214.483-.644.966.322 1.18.914.644 1.771-.538 1.183-.591 2.148-.161 2.898.536.322 1.18.914 1.932 1.771l2.415.483c1.072 0 1.394-.536.966-1.61.322-.214.805-1.341 1.449-3.381.428.43.697.644.805.644 1.394 0 2.093-.697 2.093-2.093 0-1.932-.913-2.898-2.737-2.898-.108 0-.242.081-.402.242-.161.161-.297.242-.403.242-.108 0-.43-.187-.966-.563-.539-.375-.86-.563-.966-.563-.538 0-1.449.377-2.737 1.127-.216.216-.699.591-1.449 1.127-.108 0-.161-.053-.161-.161 0-1.072-.43-1.61-1.288-1.61-.322 0-.699.322-1.127.966v1.769zm3.864 40.25l-.322-.322-3.059 3.22.161.322 3.22-3.22zm-1.127-37.996l.483-.161v.161l-.322.161-.161-.161zM108.996 103.04c-.538.43-2.523 1.557-5.957 3.381.214.43.375.644.483.644.428 0 .805-.161 1.127-.483-.108.322-.161.538-.161.644-.216.108-.108.161.322.161.322 0 .536-.161.644-.483.322.644.428 1.344.322 2.093-.108.752-.27 1.235-.483 1.449-1.826.644-3.919 1.987-6.279 4.025-.108 0-.322-.106-.644-.322-.322-.214-.591-.322-.805-.322-.538-.106-1.449.269-2.737 1.127l-.161.966c-.752.322-1.396.699-1.932 1.127-.217.108-.108.161.322.161.428.108 1.127-.053 2.093-.483-.644.216-1.504.483-2.576.805-.322.43-.752.966-1.288 1.61-.644-.106-1.61-.106-2.898 0-1.183.644-2.31 1.182-3.381 1.61-1.396.86-2.31 1.771-2.737 2.737.106-.538-.055-1.127-.483-1.771-.752.539-1.127 1.127-1.127 1.771-.108.536-.055.966.161 1.288l-.644-.805c-.539.535-1.288 1.449-2.254 2.736-.108-.216-.322-.538-.644-.966-.966 0-1.504.483-1.61 1.449-.108.966-.161 1.771-.161 2.415v.483h-1.127c0-.322.105-.645.322-.967v-1.127c.105-.321.053-.805-.161-1.448l-2.576 2.093c-1.394-.108-2.415-.86-3.059-2.254l-.966.805c0-.538-.161-1.021-.483-1.449-.105.105-.214.267-.322.483-.106.214-.214.375-.322.482 0-.43.27-1.182.805-2.254l-.483-.321c-.322.428-.697.91-1.127 1.448 0-.321.161-1.127.483-2.415.108-1.288-.214-1.932-.966-1.932-.322-.105-.911 0-1.771.322 0 .322.055.591.161.805l.805-.483c.322 0 .055.377-.805 1.127 0-.645-.267-1.233-.805-1.771 0-.105-.106-.053-.322.161v2.415c-.105-.645-.105-1.394 0-2.254-.105-.106-.375-.161-.805-.161-.214 0-.375.081-.483.241-.105.161-.214.242-.322.242.216-.105.35-.267.402-.483.056-.214.136-.375.242-.483-.428-.536-.911-1.072-1.449-1.61l1.449.966c.216-.214.108-.589-.322-1.127l3.22-4.186c-.106-.106-.375-.161-.805-.161.644 0-.536.322-3.542.966 1.074-.536 2.631-1.341 4.669-2.415v-.966c.216-.214.914-1.288 2.093-3.22.216-.214.833-.697 1.852-1.449 1.021-.75 1.529-1.449 1.529-2.093.644-.214 1.288-.644 1.932-1.288 6.01-12.772 10.679-29.569 14.007-50.393l.483-8.211c-1.718 10.198-2.684 16.1-2.898 17.71-1.504 6.762-3.22 12.505-5.152 17.227 3.112-15.992 4.83-26.027 5.152-30.107l.322.644c.105-.213.161-.483.161-.805.106-.214.106-.428 0-.644-.644.538-.966.644-.966.322 0-.105.081-.347.242-.724.161-.375.241-.725.241-1.047l.966-25.116c.105-3.434.75-6.332 1.932-8.694v-.644c.322-.214.805-.483 1.449-.805.105-.428.161-.697.161-.805h.8049999999999999c0 .216.106.539.322.966l-1.288 26.726c.322-1.18.858-5.527 1.61-13.041l-.161-7.084c.214-1.716.644-3.648 1.288-5.796.106.43.267.966.483 1.61.644-.536 1.019-1.663 1.127-3.381.75.43 1.341.644 1.771.644.213-.214.588-.644 1.127-1.288v1.288c.322.108 1.071.216 2.254.322.75.108 1.127 0 1.127-.322-.108.539-.055 1.021.161 1.449 0-.536.267-1.233.805-2.093.536-.858 1.019-1.232 1.449-1.127v.966c-.752.43-1.235.86-1.449 1.288l.161 1.127c.858-.322 1.824-1.18 2.898-2.576l-.322 2.576c0 1.074.697 1.665 2.093 1.771-.43.966-.699 1.826-.805 2.576-.108 1.288-.056 4.885.161 10.787l-.322 2.898c-.108 1.074.105 1.771.644 2.093l-1.61 15.134c-1.074 10.842-4.508 26.137-10.304 45.885 0 .216-.216.805-.644 1.771-.216.322-.269.539-.161.644.322-.214.697-.267 1.127-.161.214.108.644.591 1.288 1.449h.805c.644-.644 1.019-1.341 1.127-2.093 0 .108.105.377.322.805.428 0 .697-.214.805-.644-.322.644-1.235 1.449-2.737 2.415.966.216 1.715.322 2.254.322 2.576-.966 4.078-1.449 4.508-1.449.322 0 .697.242 1.127.725.428.483.697.725.805.725.214.108.428 0 .644-.322.214-.322.428-.427.644-.322 1.18.108 2.737.699 4.669 1.771l-.161 1.772zm-44.598 15.456l-.322-.322-.483.966.322.161.483-.805zm1.289 2.254c-.322-1.18-.428-2.146-.322-2.898-.214.216-.644 1.074-1.288 2.576.86 0 1.396.108 1.61.322zm-.645 4.83l-.483-.16.161-1.449.483.161-.161 1.448zm4.026-.644l-.644-.161-.322 1.449h.483l.483-1.288zm.483-18.676l-.483.644-.322-.161.483-.644.322.161zm7.244-16.583c-.322 1.288-1.343 3.542-3.059 6.762-.752.966-1.449 2.093-2.093 3.381.858-2.359 2.199-5.796 4.025-10.304l1.127.161zm1.771-9.338l-.483 1.127-.483-.161.322-1.127.644.161zm2.738-16.422h-.322l.161-.966.322.161-.161.805zm1.771-8.533l-.322 2.093-.483-.161.322-1.932h.483zm7.405 66.171c-1.718.966-3.489 2.198-5.313 3.703.428.857 1.072 1.341 1.932 1.448.214.106.428.106.644 0v-.321c-.108.966-.216 1.394-.322 1.288-.108-.108-.377-.108-.805 0l-.483.161c-.644-.645-.805-.967-.483-.967-.43-.321-1.449-.591-3.059-.805 2.576-1.825 5.205-3.327 7.889-4.507zm-7.084-68.425l-.483-.161.161-2.415h.644l-.322 2.576zm1.933-14.49l.805-15.456c-.216-.106-.591 1.665-1.127 5.313.427 4.508.535 7.889.322 10.143zm4.991 80.017l.161-.644h-1.127l-.161.483 1.127.161zm1.61-22.379h-.322l-.966 1.449.322.322.966-1.771zm.644-2.898h-.483l-.805 2.254h.322l.966-2.254zm.966 5.796l-.322-.644-1.932 1.127v.644l2.254-1.127zm3.059 17.388l-.805.161v-.483l.805-.322v.644zm4.347 1.127c-.108 0-.297.081-.563.242-.27.161-.563.188-.886.081l-1.932-.161c.536-.428 1.18-.589 1.932-.483l1.449.321zm1.931-19.803l-.805 1.127-.322-.483.805-.966.322.322zm2.577-46.69l-.644-.161.161-1.61.644.161-.161 1.61zm0 47.334h-.644l.161-.966.483.161v.805zm.644-53.613h-.644l.161-1.61h.644l-.161 1.61zm2.576 57.316h-.483l-.483 1.288h.483l.483-1.288zM187.081 73.416c0 1.932-.806 4.777-2.415 8.533-.645 1.826-1.558 4.724-2.737 8.694-1.288 1.396-3.114 3.758-5.474 7.084l.805-1.61c.644-1.18.857-1.877.644-2.093-.86 1.183-2.04 3.114-3.542 5.796-.644.539-1.609 1.557-2.897 3.059-.645 1.183-1.558 2.898-2.737 5.152-2.792 3.972-5.904 7.192-9.338 9.66-5.904 4.402-9.821 6.602-11.753 6.602-.322 0-.805-.108-1.449-.322-.644-.217-1.074-.322-1.288-.322-.86 0-2.067.187-3.622.563-1.558.375-2.765.563-3.623.563-3.22 0-6.656-1.718-10.304-5.152l-3.22-.644c-.108.322-.161.752-.161 1.288 0 .538.053 1.182.161 1.932-1.074-1.394-2.523-3.22-4.347-5.474-.108-.536-.377-1.502-.805-2.898l-.966-.644c-.216-1.394-.539-3.542-.966-6.44.536-.644.805-1.127.805-1.449-1.074-2.468-1.771-4.561-2.093-6.279.322-.322.322-3.22 0-8.694.966-7.833 2.951-15.562 5.957-23.184 1.18-3.326 3.486-6.815 6.923-10.465 3.647-4.292 6.923-6.762 9.821-7.406.428 0 2.468-.858 6.118-2.576-7.406 3.006-13.311 7.675-17.71 14.007-.108.108 0 .322.322.644l.805-.644c-1.396 1.504-2.523 3.329-3.381 5.474l.644.322c3.326-4.614 8.747-9.499 16.261-14.651-.322 0-1.235.27-2.737.805 6.868-4.078 12.181-6.063 15.939-5.957-.108 0-.322.161-.644.483.321.216.696.322 1.127.322.535 0 1.341-.106 2.415-.322 1.071-.214 1.876-.322 2.414-.322.322 0 1.047.377 2.174 1.127 1.127.752 1.796 1.127 2.013 1.127.428 0 .616-.081.563-.242-.056-.161.025-.241.241-.241.322.108.777.458 1.369 1.046.588.591 2.173 2.334 4.749 5.232.428.966 1.502 2.254 3.22 3.864l.645-.644c-.752-.322-1.047-.75-.886-1.288.161-.536.025-.966-.402-1.288 1.716 0 3.004.377 3.864 1.127.644-.75.966-1.232.966-1.449.428 1.182 1.288 2.415 2.576 3.703.749.86 1.876 3.598 3.381 8.211 0 .43.053 1.127.161 2.093.214.43.696.86 1.448 1.288.643.967.966 1.933.966 2.899zm-54.741-17.066l-2.093 2.254-.161-.483 1.932-1.932.322.161zm2.576-1.61l-2.093 1.61-.161-.644 1.932-1.449.322.483zm25.599 15.456c-1.074-1.61-1.718-2.842-1.932-3.703-1.396.966-3.65 2.792-6.763 5.474.106-.644.536-1.449 1.288-2.415-4.938 6.118-8.532 12.936-10.787 20.447-.43-.644-.699-.966-.805-.966-.752 0-1.477 1.288-2.174 3.864-.699 2.576-1.046 4.402-1.046 5.474 0 2.148.482 4.938 1.449 8.372 4.291-1.18 8.425-4.347 12.396-9.499 3.97-5.152 5.901-9.821 5.796-14.007.428.216.75-.105.966-.966l.483-1.127c-.86-.322-1.771-.697-2.737-1.127.106-.536.161-.966.161-1.288 0-1.072-1.718-2.038-5.151-2.898l4.024-.161c.536.216 1.288.699 2.254 1.449.105-.322.267-.697.483-1.127-.645 0-1.021-.053-1.127-.161.535-.536.749-.966.644-1.288-.43-.322-1.021-.75-1.771-1.288 1.609-.536 2.682-1.232 3.22-2.093-.322-.428-.752-.911-1.288-1.449.322 0 .75.081 1.288.242.538.161.913.241 1.129.241zm-14.329-23.506h-.966v-.644h.966v.644zm6.923.161c-1.182.322-3.597 1.127-7.245 2.415h1.449c.645.108 2.576-.697 5.796-2.415zm-4.83-.966h-.966v-.644h.966v.644zm7.084 34.615h-.805v-.644h.805v.644zm28.658-26.404h-.644v-1.449h.644v1.449zM302.193 96.6c-2.254 1.718-5.582 4.025-9.981 6.923v1.449c.857.538 1.394.805 1.61.805.644 0 1.582-.186 2.817-.563 1.232-.375 2.173-.616 2.817-.725-1.396 1.074-3.328 2.362-5.796 3.864l-3.703 1.449c-1.719.644-3.007 1.558-3.864 2.737h.322c.105.108.321.161.644.161.966-.106 4.131-1.771 9.499-4.991l1.127.322-21.896 11.753.321.322c2.36-.214 7.138-1.072 14.329-2.576.214.217.536.43.967.644l-25.922 10.143c.967.428 2.038.589 3.221.483 2.468-.217 10.034-2.846 22.701-7.889 1.823-.75 3.702-1.771 5.635-3.059.105.538.267.913.482 1.127.322-.214.589-.322.806-.322-7.192 3.22-16.853 7.083-28.98 11.591-6.87 2.576-13.149 4.83-18.837 6.763-.538.428-.752.805-.644 1.127l-.645-.645c-.322.536-1.021 3.112-2.093 7.729.322.105.697 0 1.127-.322-.322.214-.699.589-1.127 1.127-4.725 18.354-9.285 32.467-13.685 42.342-.539.859-1.988 2.416-4.348 4.67-.108 0-.402-.08-.886-.242-.482-.16-.885-.24-1.207-.24-.322.105-1.021.725-2.093 1.852-1.074 1.127-1.771 1.742-2.094 1.852-2.897 1.715-4.938 2.629-6.117 2.736l-1.771.322c0-.109.053-.27.161-.482l-.161-.807c-.108-.859-.913-1.557-2.415-2.092l-1.127.643c.105-1.182-.056-2.146-.482-2.896-1.183-2.254-1.771-3.598-1.771-4.025l.483-1.289c-.217-3.648-.431-9.232-.645-16.743 0 .535.375.805 1.127.805l.322-1.288c-.431-3.65.483-7.515 2.737-11.592.966-1.505 2.682-4.508 5.151-9.017 1.072-1.826 3.864-4.99 8.372-9.499.214-.107.428-.644.645-1.609-.217-.322-.431-.483-.645-.483.428-.108.75-.377.966-.805-.216-.217-.482-.27-.805-.161-.752.105-2.201.857-4.347 2.254.214.105.589.161 1.127.161-2.04.644-4.669 2.198-7.89 4.669-8.693 6.762-13.632 14.651-14.812 23.667-.966 6.762-1.396 10.678-1.288 11.752.214 1.289.589 2.416 1.127 3.381.214.537.105 1.555-.322 3.061-.752 0-1.396-.217-1.932-.645-.644-.967-1.288-2.201-1.932-3.703l-2.254-12.558c-.753-4.725.427-10.843 3.542-18.354 2.468-6.117 5.257-11.003 8.372-14.65.749-1.074 2.093-2.576 4.024-4.508 1.071-.86 2.629-1.987 4.669-3.382.322-2.04 1.394-3.649 3.22-4.829 2.79-1.183 6.763-3.004 11.914-5.475-.107-.322-.107-.885 0-1.69.106-.805.161-1.313.161-1.529 0-.322-.108-.589-.321-.805-1.933 1.074-4.134 1.987-6.602 2.737-.86 1.074-1.504 1.666-1.932 1.771-.217 0-.458-.053-.725-.161-.27-.106-.511-.106-.725 0-.538 0-3.22 1.343-8.05 4.024 2.037-1.071 4.991-2.79 8.854-5.151.322-.428.966-1.019 1.933-1.771l7.245-1.771c.105-.322.374-1.341.805-3.059l-.645-2.254c-.43.43-.591.913-.482 1.449l-.645-.483c-.216.216-.321.538-.321.966-.217 0-.539-.214-.967-.644-.216 0-.43.161-.644.483.105.644.536.913 1.288.805-1.826.43-4.508.966-8.05 1.61.644.216 1.502.43 2.575.644-5.903-.857-9.338-1.232-10.304-1.127-.43.108-1.102.297-2.013.563-.913.27-1.584.458-2.012.563-2.148.216-4.806-.483-7.97-2.093-3.167-1.61-5.502-3.381-7.004-5.313-.321-1.072-1.235-2.79-2.736-5.152.321.216.588.269.805.161.322-.427.482-.857.482-1.288-.107-.644-.618-1.771-1.529-3.381-.913-1.61-1.368-2.737-1.368-3.381l-.483-3.864c2.36-6.118 4.025-10.787 4.991-14.007-1.932 10.412-2.897 15.456-2.897 15.134 0 .644.214 1.288.644 1.932.105-1.394 1.341-5.957 3.703-13.685.75-2.254 2.359-4.722 4.83-7.406.428-1.072 3.917-5.957 10.465-14.651-.966 1.61-2.04 3.167-3.22 4.669-1.183 2.254-1.61 3.919-1.288 4.991 2.254-3.647 6.063-8.799 11.431-15.456-3.006 3.65-5.635 7.406-7.889 11.27.105.217.267.322.482.322l10.787-12.719c-.108.539-.805 1.666-2.093 3.381l1.288-.161c-.86.538-1.396 1.343-1.61 2.415 3.756-3.648 7.834-5.741 12.236-6.279 2.254-.213 4.186 0 5.796.644l.805-2.093c0 .86-.055 1.557-.16 2.093 3.434 1.074 6.331 2.254 8.693 3.542l1.288-.644-.161-1.61c-.752-.536-1.182-.805-1.288-.805-.321 0-.482.269-.482.805-.322-.644-1.987-1.072-4.991-1.288l2.093-.161c3.542-.428 6.332.966 8.372 4.186-.216.216-.43.322-.644.322-.217 0-.431-.161-.645-.483l-.805 1.127c.428.538 1.288 1.127 2.576 1.771.105-.322.321-.805.644-1.449.214 1.504.105 2.471-.322 2.898 0 .538.589 1.021 1.771 1.449-.108-.644.105-1.394.644-2.254.322.43.858 1.127 1.61 2.093l.966-.161c.322-1.18 1.019-2.951 2.093-5.313.645.752.858 1.396.645 1.932l-.645 1.288.483 4.186c.536.43.857.644.966.644.428-.105.725-.267.886-.483.161-.214.294-.322.402-.322.858 1.183 1.341 1.932 1.449 2.254l.161 1.771c.105.752.214 1.288.321 1.61.322 3.436-1.557 10.412-5.635 20.93-.538 1.504-.644 3.115-.321 4.83-.322 2.362-.86 6.065-1.61 11.109 1.288.538 2.629.699 4.024.483-.43.108 1.02-.428 4.348-1.61 0 .217-.028.539-.081.966-.055.43-.08.699-.08.805.536.322.91.483 1.127.483.322 0 .805-.161 1.449-.483.644-.322 1.127-.483 1.449-.483h2.8970000000000002c1.394-.105 3.004-.644 4.83-1.61-.966.322-1.718.913-2.254 1.771.536.43 1.18.591 1.932.483.75 0 1.933-.75 3.542-2.254.105.539.536.752 1.288.644.75-.105 1.824-.456 3.22-1.046 1.395-.589 2.415-.938 3.06-1.047.214 0 .455.028.725.081.267.056.508.081.725.081 3.97-.428 7.298-2.093 9.981-4.991.214.108.806.591 1.771 1.449.321-.105.91-.483 1.771-1.127l.974.158zm-100.785 61.502l-.645-.161-.482 1.127h.805l.322-.966zm21.252-23.989c-4.509 2.576-7.462 4.4-8.855 5.475-3.114 2.575-5.635 5.579-7.566 9.016-.645.75-1.558 1.877-2.737 3.381-.645 1.394-1.235 3.112-1.771 5.152 2.038-3.328 3.542-5.69 4.509-7.084 1.609-2.576 3.381-4.777 5.313-6.602 1.288-.86 2.737-2.093 4.347-3.703.645-.86 1.852-1.851 3.623-2.979 1.768-1.127 2.814-2.012 3.137-2.656zm-15.779-6.923l-2.576 2.898-.482-.645 2.736-2.576.322.323zm38.319-72.128c-.108-1.288-1.235-2.199-3.382-2.737-2.792-.644-4.455-1.18-4.99-1.61-.322 2.148-.913 5.152-1.771 9.016.105-.75.375-3.703.805-8.855l-2.736.322c-6.013.644-11.647 5.69-16.905 15.134-.644 1.182-1.396 2.576-2.254 4.186-5.26 11.486-7.728 18.784-7.406 21.896.105.43.322.805.645 1.127l.644.644c.105-.858.589-2.146 1.449-3.864l.805.644c-.752.216-1.182.644-1.288 1.288v1.932c1.288 1.074 2.199 1.557 2.737 1.449h1.127c.214-1.394.645-2.898 1.288-4.508.105-.322.322-.483.644-.483s.589.108.806.322l-1.449 4.83 5.796-.644c2.359-.214 6.279-2.093 11.753-5.635 0-.322.105-.644.322-.966.214.216.322.483.322.805.644-.75.857-1.716.644-2.898 0 .216-.216.644-.644 1.288l-.645-.644c.428-2.038 1.502-7.728 3.22-17.066 0 .322-.16.538-.482.644-.431-1.502-.27-4.991.482-10.465l.645.483c-.538 3.759-.645 6.762-.322 9.016.105-7.406 1.341-12.181 3.703-14.329.428.86.911 1.827 1.449 2.898.535-.75 1.341-1.824 2.415-3.22.644 1.396.91 2.362.805 2.898 1.284-1.502 1.873-2.468 1.768-2.898zm-37.192 41.538l-.644-.161-.322.966.644.161.322-.966zm3.542 27.048l-4.186 3.381-.322-.644 4.186-3.221.322.484zm-1.61-59.892c-.216-.322-.43-.588-.644-.805-.538 1.074-.913 1.771-1.127 2.093.428 0 1.019-.428 1.771-1.288zm3.06 35.098l-.161-1.127c-.645-.322-2.201-.644-4.669-.966.428.538.696 1.396.805 2.576l4.025-.483zm-4.026 61.341c.214 1.933.053 2.898-.482 2.898-.108.105-.217.053-.322-.161l.644-.483c-.001-.322.052-1.074.16-2.254zm4.187-7.889l-1.61 2.254-.483-.161 1.449-2.415.644.322zm16.744-6.601h-.645c-1.61.858-2.685 1.716-3.22 2.576-.217 1.072-.538 2.468-.966 4.187-.539 1.394-1.235 3.486-2.094 6.278-.216-.216-.269-.43-.161-.644.322-1.288 1.128-4.616 2.415-9.982-4.186 2.038-8.104 6.815-11.753 14.329-.538 1.18-.805 2.79-.805 4.83-.43 2.038-.591 3.22-.483 3.542 0 .322.161.858.483 1.61.322.749.536 1.288.645 1.609.644-2.47 1.715-5.689 3.22-9.659.105.321-.322 2.468-1.288 6.439-.431.858-.752 1.933-.966 3.22-.322 3.112-.322 6.225 0 9.338.214 1.932.482 3.326.805 4.186l1.61-.16c1.18-.109 1.984-.592 2.415-1.449.321-1.287.696-2.523 1.127-3.703-.539 0-.806-.217-.806-.645.322-.215.536-.27.645-.16.428.322.749.482.966.482-.217-.217-.377-.482-.483-.805l.967-1.287c.428-.861.588-1.828.482-2.898-.216 0-.43-.057-.644-.162.644-.537 1.823-3.058 3.542-7.566 1.288-2.362 2.037-5.583 2.254-9.66l-1.127.161c.966-3.22 2.254-7.889 3.865-14.007zm1.448-51.842l-.161-1.449-.966.805c-.966.108-2.201.538-3.703 1.288 0 .322-.216.7-.644 1.127-3.006.86-5.474 1.396-7.406 1.61-1.609.108-3.006.161-4.186.161-.539 1.183-.753 1.932-.645 2.254l4.991-.483c2.254-.213 5.366-1.232 9.338-3.059.751-.644 1.878-1.394 3.382-2.254zm-8.211 109.481l-1.288 1.127c0 .213.161.482.483.805-1.396.322-3.864 1.232-7.406 2.736 3.22-3.113 5.58-4.777 7.084-4.99l1.127.322zm-5.474-146.833l-.483-.483-1.127 1.449.483.483 1.127-1.449zm4.025 148.282l-.644-.484-.322.322.483.645.483-.483zm.483-42.344l-.322 1.127-.644-.321.322-.967.644.161zm.161-1.61l-.322 1.127-.482-.161.321-.966h.483zm7.568-17.549c.105-.216-.056-.591-.483-1.127-1.183.858-2.148 1.877-2.898 3.06 1.932-.753 3.059-1.397 3.381-1.933zm1.931 60.858c-.431.428-.966.697-1.61.805-.321 0-.86-.43-1.609-1.289.105 0 .267.082.482.242.214.162.509.242.886.242h1.851zm17.066-150.213c-.107-.428-.377-1.127-.805-2.093-.216.43-.269 1.288-.161 2.576.214-.214.536-.375.966-.483zm14.008 71.484l-.161-.645-1.127.161.161.644 1.127-.16zm2.736-53.613l-1.127 1.771-.644-.322 1.127-1.771.644.322zm-.321-9.177l-1.127.644v-.483l.805-.644.322.483z"/></g></svg>