<svg xmlns="http://www.w3.org/2000/svg" width="1175.495" height="313.961" viewBox="0 0 1175.495 313.961"><g fill="#FEFEFE"><path d="M188.27 83.146c0-1.56-1.9 6.59-5.695 24.455-.225.225-.785.895-1.675 2.01l.335.67c-.45.45-.895 1.565-1.34 3.35-.45.895-1.34 1.79-2.68 2.68l-9.38 14.07c-2.46 3.575-3.685 6.03-3.685 7.37-2.46 2.01-6.145 4.915-11.055 8.71-13.4 8.04-26.02 15.19-37.855 21.44-6.7 3.35-12.285 4.69-16.75 4.02-.45 0-.728-.167-.837-.502-.115-.335-.393-.502-.837-.502-.895-.22-2.57 0-5.025.67-2.46.67-4.245 1.005-5.36 1.005.22-.89.335-.78.335.335l-1.006 11.053c-.895 7.37-2.125 12.563-3.685 15.578-1.565 3.015-4.245 10.667-8.04 22.948.22.895.22 2.01 0 3.35-5.36 12.51-7.93 18.315-7.705 17.42-.45 4.245-.225 7.37.67 9.38 0 .895.22 1.455.67 1.675-.45.225-.67.56-.67 1.005-.67 1.12-.56 2.68.335 4.69-.225.225-.335.67-.335 1.34.445.895 1.005 2.125 1.675 3.686.22.449.11 1.229-.335 2.344.67.67 1.56 1.225 2.68 1.676.67-.225 1.005-.67 1.005-1.34 0-1.561-.67-5.58-2.01-12.061-.225-.22-.67-.89-1.34-2.01 0-.445.555-.89 1.675-1.34l-.335-.67-1.005-1.005c-.225.225-.335.45-.335.67.445-4.69 2.345-10.83 5.695-18.425 0-1.56-.67 3.35-2.01 14.74-.67 8.265 0 15.19 2.01 20.77.445-.451 1.56-1.791 3.35-4.02.445 2.68.67 4.354.67 5.023l-1.005 10.387c-2.01.67-3.575.889-4.69.67-.67 0-1.23-.115-1.675-.336-1.565-2.01-2.46-3.686-2.68-5.025l1.005-5.025-1.675-3.35c-.225.445-.45 1.115-.67 2.01l-1.005.336c-1.121.445-1.121.779 0 1.004-.45 0-.785-.334-1.005-1.004-1.12.891-1.675 1.676-1.675 2.346-.225 1.113.052 3.459.837 7.033.78 3.57 1.393 5.361 1.843 5.361.445 0 .67-.115.67-.336 0-.225.22-.225.67 0 1.56 0 2.12 1.895 1.675 5.695 0 1.115.167 2.957.502 5.527.335 2.564.388 4.408.167 5.527-.225 1.34-1.79 2.23-4.69 2.68-1.79-.225-2.68-1.34-2.68-3.35.22-8.264.11-14.186-.335-17.754-.225 0-.67-.451-1.34-1.34-.67 1.113-1.79 2.789-3.35 5.023.445-.225.67-.895.67-2.01l-1.34-1.34c-.67-.67-1.565-1.789-2.68-3.35-.225.221-.45.555-.67 1.006.22.219.11 1.113-.335 2.68v-1.006c-.45 2.01-2.01 4.801-4.69 8.375l-2.345-.334c-.45 0-.67-.451-.67-1.34.22-.451.78-1.342 1.675-2.682.89-1.34 1.34-2.234 1.34-2.68.22-1.789.11-3.465-.335-5.025-1.34.891-1.9 1.342-1.675 1.342-.45 0-.67-.115-.67-.336h-.335c-.225.221-.56.891-1.005 2.01h-2.01c-.67-.225-2.345-1.9-5.025-5.025-.45 0-.728.168-.838.504-.115.334-.393.387-.837.166-2.68-.225-4.245-1.455-4.69-3.684-.225-.896-.335-3.801-.335-8.711-.225-3.57-1.12-5.915-2.68-7.035l5.36-43.215c.445.225 1.005.56 1.675 1.005l.335-.335.335-1.34-2.68-4.02h1.34c0-1.115.22-2.68.67-4.69 0 .895.11 1.565.335 2.01 1.115-.89 2.12-4.465 3.015-10.72-.225.225-.785.225-1.675 0l.335-3.685h2.01c1.34.225 2.23-1.45 2.68-5.025l.335-2.68c-.225 0-.56-.22-1.005-.67-.225 0-.335.115-.335.335v1.005-.67h-1.004c-.45 0-.67.167-.67.503 0 .335-.225.502-.67.502-.225 0-.283-.11-.167-.335.11-.22-.058-.335-.502-.335l-1.34-.335c-.67-.22-1.23-.335-1.675-.335-1.565-.22-3.015-.11-4.355.335-9.16-.445-14.295-1.115-15.41-2.01 1.34-.67 5.47-1.115 12.395-1.34.22-.89.67-2.12 1.34-3.685 0-.22.837-.723 2.512-1.508 1.675-.78 2.513-1.617 2.513-2.512 1.34.895 2.455 1.12 3.35.67-.45-.89-1.791-1.45-4.02-1.675-1.12-.22-1.675.225-1.675 1.34.22.45.22.785 0 1.005l-3.015-.335c0-.22.11-.555.335-1.005v-1.005c-.45-.67-1.005-1.005-1.675-1.005-.45 0-.785.335-1.005 1.005-.45-1.56-1.12-3.57-2.01-6.03.89-.67 2.345-1.895 4.355-3.685-.225-.22-.67-.335-1.34-.335-.45 0-.895.115-1.34.335-.45.225-.895.335-1.34.335-4.02.45-10.05 1.12-18.09 2.01l-1.005.67c-.67.45-1.225.67-1.675.67l-2.68-.335-.671-.667.335-2.01c6.7-2.9 15.52-4.575 26.465-5.025l.335-.67v-1.005c-.225-.22-1.23-.445-3.015-.67-.225 0-.728.167-1.508.502-.785.335-1.288.393-1.507.167h-7.705l-1.005-1.675c.895-1.785 4.072-3.235 9.547-4.355 5.47-1.115 8.652-2.12 9.547-3.015 4.69-.67 9.6-1.34 14.74-2.01.67-.67 1.005-1.115 1.005-1.34 0-.445-.335-.67-1.005-.67.67-.445 1.56-2.01 2.68-4.69-.225.895-.225 2.235 0 4.02.445.225.89 0 1.34-.67 1.115-2.68 1.785-5.135 2.01-7.37.22-1.56.22-2.565 0-3.015-1.34.895-2.125 2.125-2.345 3.685-.225 0-.67-.335-1.34-1.005 1.56-2.229 2.68-6.25 3.35-12.06 0-1.115.387-2.565 1.172-4.355.78-1.785 1.283-2.9 1.508-3.35-.225-.445-.895-1.34-2.01-2.68 1.115-.67 1.785-1.56 2.01-2.68 1.785-5.36 3.35-10.27 4.69-14.74l1.34-3.015.335-2.345c-.45 0-1.172.115-2.177.335-1.005.225-1.732.335-2.178.335l-7.37-.67c-1.121-.67-1.34-1.895-.67-3.685.22-.67.555-1.675 1.005-3.015-.45-.89-.785-1.34-1.005-1.34-.895 0-2.067.225-3.517.67-1.456.45-2.403.56-2.848.335-2.235-.22-4.58-1.005-7.035-2.345-2.905-1.56-4.245-3.35-4.02-5.36-.225.895 1.34-1.34 4.69-6.7.67 0 1.56-.11 2.68-.335.22-.445-.225-1.115-1.34-2.01l-2.01 1.675v-1.34h.67c.445 0 .67-.22.67-.67l-1.34-1.675c-.67-1.115-.895-2.455-.67-4.02 1.56 0 2.345.115 2.345.335-.225-.445.11-.67 1.005-.67.89 0 1.45-.335 1.675-1.005-.67.225-2.235-.22-4.69-1.34-.895.895-2.57 1.9-5.025 3.015-1.79-1.34-2.235-1.895-1.34-1.675 1.115 0-1.005.335-6.365 1.005-.895-1.34-1.34-1.895-1.34-1.675 3.125-3.125 5.805-4.575 8.04-4.355-.67-.22.78.115 4.355 1.005l2.01 2.345c.445-.445 1.005-.89 1.675-1.34l.67-5.695c-.225-.22-.785-.445-1.675-.67h2.01c.22-.22.22-.67 0-1.34.67-.445 1.005-.89 1.005-1.34 0-.445-.335-.89-1.005-1.34.67-.22 1.225-.335 1.675-.335-.67 0 .445.785 3.35 2.345 0 .225-.45.67-1.34 1.34.67 1.12 1.45 1.675 2.345 1.675-.225.45-.115 1.12.335 2.01.67-.22 1.56-1.005 2.68-2.345l.67-6.03 4.02.67c.445 0 1.005.115 1.675.335l.67.335c.67-.22.89-.78.67-1.675l2.345-2.68c.22-.67.11-1.005-.335-1.005.67-1.56 1.005-2.9 1.005-4.02 2.455-.445 5.58-1.675 9.38-3.685 2.9-2.23 7.37-4.13 13.4-5.695 0-.67-1.23-1.45-3.685-2.345.67.225 1.785.225 3.35 0 .67-.22 1.225-.555 1.675-1.005.89 0 2.12.335 3.685 1.005-1.12-.445-2.795.115-5.025 1.675l.67.67h1.005c1.56.225 3.125-.335 4.69-1.675l.335-1.34c1.115 1.565 1.785 2.345 2.01 2.345.89.225 2.23.225 4.02 0 1.785-.22 3.183-.277 4.188-.167 1.005.115 2.455 0 4.355-.335 1.895-.335 3.292-.502 4.188-.502.445 0 1.005.225 1.675.67.67.45 1.225.67 1.675.67.67.225 1.785.225 3.35 0l3.685.67h5.192c2.345 0 4.072.115 5.192.335 2.9.225 8.04 1.397 15.41 3.518 7.37 2.125 11.61 3.852 12.73 5.192-1.12-.67-2.57-1.45-4.355-2.345-.895.67-1.34 1.23-1.34 1.675 4.69 1.565 7.37 2.68 8.04 3.35 2.9 1.565 5.805 4.245 8.71 8.04l5.695-2.345c1.34.225 3.235 1.565 5.695 4.02 5.58 5.81 8.82 13.515 9.715 23.115.891 7.595 1.341 11.725 1.341 12.395zm-171.185 65.66l-.335-.67-1.005 1.34.67.335.67-1.005zm4.69-1.005c-1.565.225-2.46.335-2.68.335.22.67.555 1.12 1.005 1.34 1.34 0 2.01-.22 2.01-.67.22-.22.11-.555-.335-1.005zm6.03-134.67c-.225 2.01-1.34 2.905-3.35 2.68-1.565-.22-2.795-.89-3.685-2.01v-2.345l4.355-1.675c2.01.225 2.9 1.34 2.68 3.35zm1.675 33.5c-2.46 3.575-4.135 5.25-5.025 5.025-2.46-.22-3.575-1.34-3.35-3.35 0-.67.67-1.45 2.01-2.345 1.34-.89 2.345-1.225 3.015-1.005.445 0 1.005.283 1.675.837.67.56 1.225.838 1.675.838zm1.005 180.9h-1.005l-1.005 2.68h1.005l1.005-2.68zm.67-82.745h-1.34v-.67h1.34v.67zm3.015-.67c-.225 0-.56.058-1.005.167-.45.115-.785.167-1.005.167.22.225.67.56 1.34 1.005.22-.219.445-.669.67-1.339zm-1.005-81.741h-.67v-1.675h.67v1.675zm4.69-19.429l-1.675 1.34-3.015-.335c1.115-.89 2.229-1.56 3.35-2.01-.67.67-.225 1.005 1.34 1.005zm-1.005 154.099c-.225-.89-.67.45-1.34 4.02-.45-1.56-.895-2.12-1.34-1.675.67-.669 1.56-1.449 2.68-2.345zm-2.01 21.776h-.67v-2.01h.67v2.01zm3.015-74.37l-2.01-.335v-.67l2.01.335v.67zm13.4 39.529c0 .895-.225 2.293-.67 4.188-.45 1.9-.785 3.298-1.005 4.188-.45-2.229-.335-4.24.335-6.03 0-.22-.225-.445-.67-.67-1.565 8.265-2.235 13.065-2.01 14.405.445-.22.67-.555.67-1.005 0 .895-.56 2.125-1.675 3.685 0 .67.335 1.005 1.005 1.005-.895 4.47-2.235 10.5-4.02 18.09-.225 1.791-.67 4.69-1.34 8.71 0-.22-.225-.78-.67-1.675v3.685c.22 1.79-.115 3.8-1.005 6.03h-1.675c.445-1.56.22-2.79-.67-3.685.445 0 .78.225 1.005.67.22-.445.445-1.56.67-3.35l-1.675 1.005 2.01-4.02c0-1.115-.335-2.455-1.005-4.02 0-.445.22-1.005.67-1.675.22-.89.335-2.345.335-4.355.22 0 .11-.22-.335-.67-.225.67-.67 1.455-1.34 2.345l1.675-15.41c.22 0 .445-.22.67-.67 0-1.115.11-3.015.335-5.695.445-.445 1.005-1.115 1.675-2.01.22-.89 0-1.34-.67-1.34l1.005-9.045c1.115-.22 2.01-1.115 2.68-2.68 3.35.45 5.245.45 5.695-.001zm-11.725 58.625l.335-3.35h-1.005l-.335 3.35h1.005zm.335 2.011l-.67-.335-.67 1.34.335.335 1.005-1.34zm5.025-176.88l.335-2.345c-.896.45-2.235.895-4.02 1.34v2.01c1.115.67 2.01 1.12 2.68 1.34.445-.445.78-1.225 1.005-2.345zm-1.675 152.425h-1.005l-1.005 2.01 1.005.335 1.005-2.345zm0-181.57l-.335 2.01-1.005-.335.67-1.675h.67zm0 179.224h-1.005l.335-1.34h1.005l-.335 1.34zm12.395-183.915c-1.34.896-3.575 2.345-6.7 4.355v2.01c.67-.22 1.225-.335 1.675-.335.445 0 .67.225.67.67-1.12 0-2.125-.22-3.015-.67-.45.45-1.12 1.565-2.01 3.35-2.01-.89-2.795-2.12-2.345-3.685l.335-4.355c0 .45.335.785 1.005 1.005.67 0 2.229-.67 4.69-2.01-.225 0-.45.225-.67.67-.225.45 0 .67.67.67.67-.22 2.12-1.115 4.355-2.68.22.001.67.335 1.34 1.005zm-9.045 38.191c.445-.67.67-1.34.67-2.01.22-.89-.115-1.895-1.005-3.015-.895 0-1.34.785-1.34 2.345-.225.45-.115 1.005.335 1.675.445.67.67 1.12.67 1.34 0-1.785.22-3.125.67-4.02.445.895.445 2.125 0 3.685zm.335-10.05l.335-4.355c-1.34.895-2.125 1.9-2.345 3.015v1.675c.22 0 .555-.11 1.005-.335.445-.22.78-.22 1.005 0zm-.67 116.915l-.67-.67-.335.335.335.67.67-.335zm16.415-168.505c0 1.565-1.34 2.737-4.02 3.518-2.68.785-4.915 1.063-6.7.837-4.47-.445-6.48-3.125-6.03-8.04.445-3.57 1.895-5.135 4.355-4.69.445 0 .67.115.67.335h1.005c.22 0 .837-.445 1.843-1.34 1.005-.89 2.062-1.225 3.182-1.005 2.23.225 3.795 1.456 4.69 3.685-.225.45-.335 1.12-.335 2.01.89 3.8 1.34 5.36 1.34 4.69zm-13.4 173.529v-1.005l-2.68-.335v1.005l2.68.335zm-1.005-48.909l.335-1.34h-1.005l-.335 1.34h1.005zm1.34 2.679l-1.005-.335.335-1.34 1.005.335-.335 1.34zm-.335 56.281h-.67v-2.01h.67v2.01zm4.02-62.98v-3.015c-1.565 2.01-2.235 2.905-2.01 2.68l2.01.335zm1.005-89.111c-.45.225-.67.785-.67 1.675-1.34-1.56-2.125-2.23-2.345-2.01l3.015.335zm8.375 79.73c-.225 0-.785.335-1.675 1.005l.67-6.365c-.45 1.565-1.23 3.35-2.345 5.36v-1.675c-.67 3.13-2.01 8.825-4.02 17.085-.45 1.12-1.23 3.575-2.345 7.37.22-.22.78-.445 1.675-.67v-1.005c-.225-.445-.335-.78-.335-1.005l2.68.335 1.34-1.005.335-3.015c-.225 0-.56.115-1.005.335l-.67.67c-.67-.67-.895-1.225-.67-1.675l-.335.335c0 .225.22.335.67.335.445 0 .613-.167.502-.502-.115-.335.053-.502.503-.502l1.675.67.67-8.375c.22-2.455 1.115-5.025 2.68-7.706zm-7.37 0l.335-.67c-1.12-.445-1.675-.555-1.675-.335 0 .67.445 1.005 1.34 1.005zm1.005-4.02l-1.675 1.34v-.67l1.34-1.34.335.67zm.67-107.869l.335-1.005-2.345-1.005v1.005l2.01 1.005zm3.015 270.68c-.67-1.791-1.455-3.131-2.345-4.021l.335-3.014c.445.67 1.225 1.004 2.345 1.004-.225 1.785-.335 3.234-.335 4.355v1.676zm0-176.211c0-1.115-.225-1.675-.67-1.675-.225 0-.67.225-1.34.67.67.671 1.34 1.005 2.01 1.005zm1.34 34.17l-.67 2.345h-.67l.335-2.345h1.005zm5.36 126.295c.445 0 .67.226.67.67-.225.67-.56 1.34-1.005 2.01.22-.895.22-1.34 0-1.34-.225 0-.56.115-1.005.336.22-1.115.67-1.676 1.34-1.676zm12.06-67.67c-.45-.67-1.005-1.005-1.675-1.005l.67-6.7c.22-2.455.335-4.355.335-5.695.445-1.115.555-1.115.335 0-.896.895-1.565 2.905-2.01 6.03l-3.35 16.415c-1.12 2.68-1.675 4.69-1.675 6.03.22 0 .445.115.67.335-.45.67-2.01 6.145-4.69 16.415-.225.45-.45.67-.67.67 0 .45.22 1.34.67 2.68.67-2.01 1.895-5.025 3.685-9.045l-1.005.335-.67-.67c1.56-.445 2.455-1.225 2.68-2.345 0-.445-.225-1.005-.67-1.675-.45 0 .335-.78 2.345-2.345-.45 0-1.005-.335-1.675-1.005.89-.67 1.34-1.225 1.34-1.675-.225 0-.56-.11-1.005-.335 1.56-.22 2.345-1.225 2.345-3.015-.225.225-.56.225-1.005 0-.225 0-.335-.11-.335-.335 0-.445.22-1.115.67-2.01.445-.89.67-1.56.67-2.01h2.345l1.005-7.37-2.01 1.34c0-.67.445-1.225 1.34-1.675-1.12 0-1.675-.335-1.675-1.005.67-.444 1.675-.554 3.015-.335zm-3.015-174.869l-2.01.335v-.67l1.675-.335.335.67zm0 181.905l-.67-.335-.67 1.005.67.67.67-1.34zm1.675-2.681l-1.005 1.34-.335-.335.67-1.34.67.335zm1.675-19.429l-.67-.335-.67 1.675.335.335 1.005-1.675zm5.025 1.675l1.005-10.05-2.345-.335-1.34 1.005-2.345-.335v2.345c1.115-.22 1.895-.78 2.345-1.675.445 1.12.555 2.01.335 2.68 0 .45-.225.785-.67 1.005 0 3.35-.785 6.815-2.345 10.385 0 1.34.22 3.015.67 5.025.445-2.455 2.01-5.805 4.69-10.05zm55.945-37.855c-.895 1.34-3.743 3.465-8.542 6.365-4.805 2.905-7.652 5.475-8.542 7.705-.895-.22-1.565-.22-2.01 0-.225 1.12-1.34 2.01-3.35 2.68l-5.025 1.675-18.76 5.025c0-.67-.45-1.45-1.34-2.345-1.565 1.565-2.905 2.345-4.02 2.345-2.235 0-3.575.115-4.02.335.67 1.12 1.115 1.565 1.34 1.34l-1.675.335-2.01-.335v-3.685c.445-.22 8.26-2.229 23.45-6.03.445-.22.445-.67 0-1.34 8.485-1.34 17.53-5.025 27.135-11.055-.225-.445-.115-.89.335-1.34.22 0 .67-.22 1.34-.67-.895-.445-2.01-.78-3.35-1.005-.45.225-1.455.56-3.015 1.005.22.225.89.45 2.01.67-.225 1.34-.895 1.9-2.01 1.675-.45 0-.618-.11-.502-.335.11-.22-.058-.335-.502-.335-.895 0-4.355.953-10.385 2.848-6.03 1.9-9.94 2.737-11.725 2.512 2.01-.445 3.905-.89 5.695-1.34 1.56-1.34 3.46-2.345 5.695-3.015 1.115-.22 2.455-.445 4.02-.67 2.899-1.56 7.705-4.02 14.405-7.37.67 0 1.115.67 1.34 2.01 1.115-.67 2.23-.67 3.35 0l-2.01 1.34-4.02-.335-1.005 1.005c.67 0 1.56-.11 2.68-.335l5.023.67zm-51.925 13.064l-.335-.67-2.01 1.005.335.67 2.01-1.005zm62.31-72.359c-.45-1.115-.895-3.235-1.34-6.365-.45-1.785-3.13-5.695-8.04-11.725-1.12 0-3.13-.89-6.03-2.68.22.45-.45.895-2.01 1.34.22-.22-.335-.445-1.675-.67-.225-.22-.45.335-.67 1.675.22.45.555.67 1.005.67 1.34-.22 3.235 1.005 5.695 3.685-1.12-.22-3.24-.78-6.365-1.675-1.34-1.56-2.345-2.345-3.015-2.345-.225 0-.45.115-.67.335.89.45 1.675 1.23 2.345 2.345-1.34 0-2.795-.445-4.355-1.34-1.565-.89-2.57-1.34-3.015-1.34-.45 0-1.34.115-2.68.335l-2.68 1.005c-.67.225-1.455.67-2.345 1.34-1.565-.22-3.685-.335-6.365-.335-.45.895-2.235 2.235-5.36 4.02l-1.005 7.37c-.67 3.13-2.01 7.595-4.02 13.4.22.225.555.225 1.005 0 .67-.22 1.115-.22 1.34 0-.225.67-.785 2.01-1.675 4.02-.225-.445-.335-.89-.335-1.34 0 .225-.283.67-.837 1.34-.56.67-.837 1.23-.837 1.675l-.335 1.005.335.67h.335c.22-.22.555-.335 1.005-.335.22 0 .335.335.335 1.005-1.79.45-2.795 2.01-3.015 4.69 0-.22.11-.335.335-.335v.335c-.896 3.13-1.34 4.135-1.34 3.015.22 0 .555.115 1.005.335l-1.34.67c-2.235 10.72-3.575 18.54-4.02 23.45.22 0 .335.115.335.335-.45.225-.45.45 0 .67.67.45 1.005.785 1.005 1.005l-1.34 1.005 3.35.335c8.26-3.795 20.435-9.825 36.515-18.09.445-.445 1.34-1.45 2.68-3.015-.895.225-2.125.67-3.685 1.34l-10.385 5.025c-.67-.22-.895-.335-.67-.335l1.34-1.005c.22.225.78.45 1.675.67 0-.22-.335-.78-1.005-1.675.445-.22 1.005-.22 1.675 0-.895-1.34-1.34-1.895-1.34-1.675 3.795-1.56 9.715-5.58 17.755-12.06 3.125-3.125 6.365-8.04 9.715-14.74.444-1.785 1.449-4.13 3.014-7.035zm-36.85 75.375l-.335-.335c-.45-.22-.895-.445-1.34-.67 2.899.45-2.68 2.01-16.75 4.69-1.121.67-1.675 1.23-1.675 1.675 1.115-.22 2.455-.555 4.02-1.005-.67.225-.225.335 1.34.335-.67 0-.225-.335 1.34-1.005 2.68-.445 7.145-1.675 13.4-3.685zm-18.425-4.02l-.67.335-.67-.67.335-.67 1.005 1.005zm9.715-3.351c-4.245 2.01-7.595 2.795-10.05 2.345 4.69-1.785 7.37-2.68 8.04-2.68l2.01.335zm-5.695-54.27l-1.005-.335-.335 1.34.335.335 1.005-1.34zm17.755 25.46l-3.685-.335c-.895 1.12-3.465 2.68-7.705 4.69-1.79 2.235-3.8 3.24-6.03 3.015l2.01.335 1.005-1.005c4.91-2.009 9.715-4.239 14.405-6.7zm-14.07-37.184c-.45 2.01-1.34 3.91-2.68 5.695 0-.67.22-1.728.67-3.183.445-1.45.78-2.512 1.005-3.183l1.005.671zm18.76 69.345l-2.345 1.005v-.67l2.345-1.34v1.005zm9.045-92.46c-1.79-.22-3.24-.555-4.355-1.005l3.35 2.01c.67.225 1.005-.11 1.005-1.005zm12.06 76.714c.445.225-.56.225-3.015 0-.45 0-.895-.445-1.34-1.34l-1.005 1.005c-.45 0-1.12-.555-2.01-1.675l3.35-1.34c.445.225 1.115.45 2.01.67.89.225 1.56.45 2.01.67v2.01zm-1.005-68.674l-1.675-.67v.67l1.34.67.335-.67zm33.5 24.12c-1.12 3.35-2.795 7.93-5.025 13.735 0 .895-.785 2.235-2.345 4.02l-2.345 2.68c-.225.67-.895 1.79-2.01 3.35l.335 1.675c-.225 1.79-1.34 3.575-3.35 5.36-.225 0-.67-.335-1.34-1.005l-1.34-.335c-.225.45-.67 1.005-1.34 1.675 0 .225.22.67.67 1.34-.225.45-1.12 1.456-2.68 3.015v-.67c-.225-.22-.56-.335-1.005-.335-1.12-.22-2.235.115-3.35 1.005.67.67 1.675 1.12 3.015 1.34-2.46 2.905-5.695 5.476-9.715 7.705v-2.01c.67-.22 1.56-.555 2.68-1.005l-3.015-.335c5.36-4.69 10.605-10.16 15.745-16.415.22-.67.89-1.895 2.01-3.685l3.35-3.685.335-2.345c1.785-2.68 4.355-6.81 7.705-12.395 0-1.34.11-2.79.335-4.355.445-1.115 1.225-1.56 2.345-1.34l.335 3.015zM323.606 164.216c0 4.02-1.675 9.94-5.025 17.755-1.34 3.8-3.24 9.83-5.695 18.09-2.68 2.905-6.48 7.82-11.39 14.74l1.675-3.35c1.34-2.455 1.785-3.905 1.34-4.355-1.791 2.46-4.245 6.48-7.37 12.06-1.34 1.12-3.35 3.24-6.03 6.365-1.34 2.46-3.24 6.03-5.695 10.72-5.81 8.265-12.285 14.965-19.43 20.1-12.285 9.16-20.435 13.734-24.455 13.734-.67 0-1.675-.225-3.015-.67-1.34-.449-2.235-.67-2.68-.67-1.79 0-4.303.389-7.538 1.174-3.24.779-5.752 1.172-7.537 1.172-6.7 0-13.851-3.574-21.44-10.72l-6.7-1.34c-.225.67-.335 1.566-.335 2.68 0 1.12.11 2.46.335 4.021-2.235-2.9-5.25-6.701-9.045-11.391-.225-1.115-.785-3.125-1.675-6.03-.67-.445-1.34-.89-2.01-1.34-.45-2.9-1.12-7.37-2.01-13.4 1.115-1.34 1.675-2.345 1.675-3.015-2.235-5.135-3.685-9.49-4.355-13.065.67-.67.67-6.7 0-18.09 2.01-16.3 6.14-32.38 12.395-48.24 2.455-6.919 7.255-14.18 14.405-21.775 7.59-8.93 14.405-14.07 20.435-15.41.89 0 5.135-1.785 12.73-5.36-15.41 6.255-27.695 15.97-36.85 29.145-.225.225 0 .67.67 1.34l1.675-1.34c-2.905 3.13-5.25 6.925-7.035 11.39l1.34.67c6.92-9.6 18.2-19.765 33.835-30.485-.67 0-2.57.56-5.695 1.675 14.29-8.485 25.345-12.615 33.165-12.395-.225 0-.67.335-1.34 1.005.67.45 1.45.67 2.345.67 1.115 0 2.79-.22 5.025-.67 2.229-.445 3.905-.67 5.025-.67.67 0 2.177.785 4.522 2.345 2.345 1.565 3.737 2.345 4.188 2.345.89 0 1.282-.168 1.172-.503-.115-.335.052-.502.502-.502.67.225 1.618.953 2.848 2.178 1.225 1.23 4.522 4.857 9.882 10.887.89 2.01 3.125 4.69 6.7 8.04l1.34-1.34c-1.565-.67-2.177-1.56-1.842-2.68.335-1.115.052-2.01-.837-2.68 3.57 0 6.25.785 8.04 2.345 1.34-1.56 2.01-2.565 2.01-3.015.89 2.46 2.68 5.025 5.36 7.705 1.56 1.791 3.905 7.485 7.035 17.085 0 .896.11 2.345.335 4.355.445.895 1.45 1.79 3.015 2.68 1.341 2.01 2.01 4.02 2.01 6.03zm-113.899-35.51l-4.355 4.69-.335-1.005 4.02-4.02.67.335zm5.359-3.351l-4.355 3.35-.335-1.34 4.02-3.015.67 1.005zm53.266 32.161c-2.235-3.35-3.575-5.915-4.02-7.705-2.905 2.01-7.595 5.81-14.07 11.39.22-1.34 1.115-3.015 2.68-5.025-10.275 12.73-17.755 26.915-22.445 42.545-.895-1.34-1.455-2.01-1.675-2.01-1.565 0-3.073 2.68-4.523 8.04-1.455 5.36-2.177 9.16-2.177 11.39 0 4.47 1.005 10.275 3.015 17.42 8.93-2.455 17.53-9.045 25.795-19.765 8.26-10.72 12.28-20.435 12.06-29.145.89.45 1.56-.22 2.01-2.01l1.005-2.345c-1.79-.67-3.685-1.45-5.695-2.345.22-1.115.335-2.01.335-2.68 0-2.229-3.575-4.24-10.72-6.03l8.375-.335c1.115.45 2.68 1.455 4.69 3.015.22-.67.555-1.45 1.005-2.345-1.34 0-2.125-.11-2.345-.335 1.115-1.115 1.56-2.01 1.34-2.68-.895-.67-2.125-1.56-3.685-2.68 3.35-1.115 5.58-2.565 6.7-4.355-.67-.89-1.565-1.895-2.68-3.015.67 0 1.56.167 2.68.502 1.115.335 1.894.503 2.345.503zm-29.815-48.911h-2.01v-1.34h2.01v1.34zm14.404.335c-2.46.67-7.485 2.345-15.075 5.025h3.015c1.341.226 5.361-1.449 12.06-5.025zm-10.049-2.009h-2.01v-1.34h2.01v1.34zm14.739 72.025h-1.675v-1.34h1.675v1.34zm59.631-54.94h-1.34v-3.016h1.34v3.016zM317.574 86.831c3.125-1.34 5.58-2.345 7.37-3.015.22 2.68.335 4.47.335 5.36-4.47 1.79-6.365 2.68-5.695 2.68-.225 0-.785-.335-1.675-1.005l-.335-4.02zm8.71 81.74l.335-1.34-.335-3.35c2.455-5.805 4.69-8.82 6.7-9.045 1.56 0 3.015 1.005 4.355 3.015.445 1.34 1.115 2.57 2.01 3.685.445-.22 1.115-.335 2.01-.335 2.229 0 3.46 1.675 3.685 5.025.22 6.48-1.565 9.715-5.36 9.715-.225 0-.335-.11-.335-.335l-.67.335c-1.12 0-2.57.67-4.355 2.01-5.81-4.24-8.71-6.81-8.71-7.705 0-.445.219-1.005.67-1.675zm7.035 72.025l-3.685 12.395.67.335 4.02-12.73h-1.005zm127.97-108.205c-.67-2.68-.67-4.24 0-4.69-1.79-6.475-3.13-11.39-4.02-14.74-3.13-2.455-5.14-3.795-6.03-4.02-.67 1.565-1.005 2.795-1.005 3.685h-.67c-1.79-2.9-3.24-4.24-4.355-4.02l-4.02 2.345c-.45-.67-.785-1.115-1.005-1.34-4.47-2.68-7.37-3.905-8.71-3.685-1.34 0-5.36 3.24-12.06 9.715-1.12 0-2.01-.445-2.68-1.34 0 1.12-.225 1.9-.67 2.345l-2.01.335c-.45 0-.618-.167-.502-.502.11-.335-.058-.502-.502-.502-1.12 0-2.235 1.23-3.35 3.685v3.015c0 1.12-.225 2.01-.67 2.68 2.01-2.9 3.46-5.025 4.355-6.365l.335.67c-8.265 14.52-14.965 25.575-20.1 33.165-.225-2.9-.225-6.92 0-12.06-.225-.22-.335-.445-.335-.67.67-6.03.67-11.055 0-15.075-.225 0-.393.115-.502.335-.115.225-.393.335-.837.335-.895 0-1.23-1.34-1.005-4.02l.67-4.02c-4.915-5.36-8.6-7.37-11.055-6.03 4.465 2.235 6.585 4.02 6.365 5.36 1.785.45 2.79 1.9 3.015 4.355 0 .895-.115 1.565-.335 2.01-2.235-4.465-4.58-7.035-7.035-7.705 0 .225.11.56.335 1.005.22.45.335.785.335 1.005l1.005-.335c1.115 0 2.345 1.12 3.685 3.35l-2.68 1.34c-4.69-5.135-7.485-7.815-8.375-8.04.445-.67.67-1.45.67-2.345-3.8 2.46-7.37 4.02-10.72 4.69-2.46 1.12-4.245 1.9-5.36 2.345-.225.895-.335 1.675-.335 2.345-.895 1.791-2.125 3.13-3.685 4.02-2.01-.67-3.575-1.115-4.69-1.34 0-.22-.335-.11-1.005.335.445 0 .67.225.67.67-1.12 3.13-1.79 4.915-2.01 5.36.22-.22.722-.445 1.507-.67.78-.22 1.283-.445 1.507-.67.22.225.22.45 0 .67-2.46 3.13-3.685 5.025-3.685 5.695-1.791.895-3.13 1.79-4.02 2.68l1.34-1.005c.67.67 1.115 1.23 1.34 1.675-.225.45-.225 1.005 0 1.675.89-2.455 1.56-3.905 2.01-4.355.445.895.335 1.675-.335 2.345 1.115-.22 1.56.785 1.34 3.015 1.56 6.925 2.455 10.835 2.68 11.725.22 1.34-.225 4.47-1.34 9.38.22-.22.67.225 1.34 1.34-1.791 9.831-3.015 16.415-3.685 19.765-2.905 15.635-5.025 25.46-6.365 29.48-2.46 6.925-3.685 12.395-3.685 16.415 0 .225-.167.785-.502 1.675-.335.895-.502 1.565-.502 2.01 0 .895.22 1.34.67 1.34l9.38-29.145-9.045 34.84c1.56-5.36 2.79-9.155 3.685-11.39 0 .45-1.23 5.25-3.685 14.405 0-.445.445-.78 1.34-1.005l-4.02 10.05c-.225-1.34.052-3.125.837-5.36.78-2.229 1.057-3.57.837-4.02-1.565 5.585-2.46 8.825-2.68 9.715 0-.22.11-.445.335-.67.22 1.34-1.121 6.815-4.02 16.415l-.67-1.004c.22 3.57-.115 5.914-1.005 7.035 1.115-1.791 2.01-3.131 2.68-4.021.22.672.335 1.115.335 1.342-.225-1.791.445-4.137 2.01-7.035l.67 1.004c0-.219.11-.555.335-1.004.22 1.34.052 2.898-.502 4.689-.561 1.785-.838 3.016-.838 3.686.89-2.461 1.56-4.137 2.01-5.025.67.67 1.005 1.115 1.005 1.34-1.12 2.9-1.675 5.025-1.675 6.365 2.68-5.361 4.13-8.266 4.355-8.711 13.62-35.955 20.435-54.044 20.435-54.27 4.24-13.62 7.815-26.35 10.72-38.19 1.56 1.565 2.345 2.125 2.345 1.675-7.82 29.48-11.84 44.555-12.06 45.225-5.36 20.1-11.17 36.18-17.42 48.239.67-.449 1.005-.334 1.005.336v2.01c.89-2.904 2.12-5.359 3.685-7.369.445.225.555.449.335.67-1.565 4.689-2.905 7.59-4.02 8.709-3.13 6.25-5.14 11.166-6.03 14.74 1.34-2.68 2.345-4.58 3.015-5.695.22 0 .22.221 0 .67 0 .221.22.336.67.336.445-.225 2.455-4.246 6.03-12.061 5.58-12.06 8.485-18.31 8.71-18.76.22.225.335.67.335 1.34.22 1.565-2.345 8.155-7.705 19.766 1.34-1.791 2.565-3.35 3.685-4.691.22-.67.445-.895.67-.67.67-.449 1.225-.449 1.675 0-2.01 5.135-3.35 9.156-4.02 12.061 2.455-4.244 5.135-9.939 8.04-17.085l-1.005 1.005c0-.67.67-2.455 2.01-5.36.445.45.67.786.67 1.005.445-3.57 1.005-6.14 1.675-7.705.67.67.78 1.23.335 1.675 5.135-9.825 7.705-17.195 7.705-22.11 2.23-3.57 3.35-6.25 3.35-8.04 0-.67-.335-1.225-1.005-1.675.89-.67 1.45-1.115 1.675-1.34.22-2.01.67-3.235 1.34-3.685l-.335-2.345c-.45-.89-.335-1.895.335-3.015l1.005.67c.89-2.455 1.56-4.24 2.01-5.36-.895 1.12-1.675 1.79-2.345 2.01 0-2.68.67-4.355 2.01-5.025.445.67.67 1.34.67 2.01 4.24-15.41 7.48-23.895 9.715-25.46l1.005 1.005c.445-.445 1.225-.67 2.345-.67.22-1.785.78-3.57 1.675-5.36.445.225.555.45.335.67-.45 2.68-1.12 5.025-2.01 7.035-.45-.445-.56-.67-.335-.67.67.67 1.005 1.34 1.005 2.01 0 .67-.393 1.958-1.173 3.852-.785 1.9-.953 3.298-.502 4.188 2.23-4.465 3.57-6.919 4.02-7.37l.67.67c-.225 2.68-.335 4.69-.335 6.03 2.01-4.24 3.57-6.92 4.69-8.04l.67.67c-.45 1.34-.56 2.905-.335 4.69 1.56-2.01 2.68-3.685 3.35-5.025 1.115 1.565 2.23 2.345 3.35 2.345.89-1.56 1.45-2.79 1.675-3.685.445.45.555 1.9.335 4.355 3.35-6.475 5.36-10.27 6.03-11.39.22.225.445.785.67 1.675 2.9-5.135 4.575-8.15 5.025-9.045.22.45.335 1.675.335 3.685l1.005-1.005c.445.45.89.67 1.34.67.445 0 2.565-3.125 6.365-9.38 3.795-6.25 5.915-9.38 6.365-9.38h2.0100000000000002l.67-2.68c0-1.785.555-2.68 1.675-2.68.67 0 2.01.393 4.02 1.172 2.01.785 3.35 1.172 4.02 1.172.445 0 1.005-.445 1.675-1.34-.225-1.34-.115-2.12.335-2.345 1.34 1.791 2.01 3.24 2.01 4.355.22-2.68.555-4.69 1.005-6.03.67 1.565 1.115 2.795 1.34 3.685l-1.005 1.34h2.68c-.225-4.69-.115-7.59.335-8.71 1.34-2.455 2.12-3.905 2.345-4.355-.671-2.683-1.006-4.242-1.006-4.692zm-128.976 146.059l-.67 2.012.67.334.67-2.346h-.67zm3.351-5.36l-.67 1.676h.67l.67-1.34-.67-.336zm3.685-6.029l-.67-.336 3.685-12.395h.67l-3.685 12.731zm1.339 24.119l-1.34 2.68 1.005.336 1.005-2.68-.67-.336zm.671-174.2c2.455-2.01 4.465-3.015 6.03-3.015 2.01-.22 3.125 1.12 3.35 4.02.22 4.02-.895 6.145-3.35 6.365.89 0-1.12-1.225-6.03-3.685v-3.685zm2.345 171.856l-2.345 5.359h1.34l2.01-5.359h-1.005zm-.335-35.845v-1.34h1.005v1.34h-1.005zm1.674-24.455h-1.005l.67-3.35h1.005l-.67 3.35zm1.006-3.35h-.67l1.34-8.375h1.005l-1.675 8.375zm1.34 56.279l-1.34 1.34.67.67 1.34-1.34-.67-.67zm.335-149.744h-1.005v1.675h1.005v-1.675zm2.01-8.04c-.896.895-1.675 2.235-2.345 4.02.445-1.56 1.225-2.565 2.345-3.015l1.34.67c-.67-.89-1.12-1.45-1.34-1.675zm1.34 20.435l-1.34 2.01 1.005.67 1.005-2.345-.67-.335zm.335 26.465h-1.005v1.675h1.005v-1.675zm-.335-34.17v-1.675h1.005v1.675h-1.005zm1.675 27.805h-1.005l.335 1.675h1.005l-.335-1.675zm1.34-32.16l-.67-.335.67-1.34.67.335-.67 1.34zm-.335-3.35c.67-2.01 1.56-3.235 2.68-3.685l.335 3.015c-.67-.445-1.675-.22-3.015.67zm.67 6.7l-.67-.335.67-1.34h.335l-.335 1.675zm.67 81.07l-.67-.335.67-1.675 1.005.335-1.005 1.675zm6.03 16.415l-.67-.335.67-3.35h1.005l-1.005 3.685zm4.02-109.545c-.225-2.23 1.675-3.46 5.695-3.685 1.56 0 2.9.785 4.02 2.345l-9.715 1.34zm1.005 126.965v-1.34l1.005-.335v1.34l-1.005.335zm1.675-2.345l-.67-.335 1.675-5.025h.67l-1.675 5.36zm2.68-10.05v-1.34h1.005v1.34h-1.005zm.67-1.675l-.335-1.34h1.005l.335 1.34h-1.005zm.67-2.68v-2.01l1.005-.335v2.01l-1.005.335zm1.005-3.016l-.335-2.01h1.005l.335 2.01h-1.005zm.67-118.924c0-.67.723-1.45 2.178-2.345 1.45-.89 2.512-1.34 3.183-1.34.445 0 .837.167 1.172.502s.612.502.837.502c.89-1.56 2.565-2.345 5.025-2.345 5.36-.22 8.15 1.79 8.375 6.03.22.895 0 3.13-.67 6.7l-20.1-7.704zm1.005 59.295h-1.005l.335-4.355h1.005l-.335 4.355zm-.67 55.945v-1.675h.67v1.675h-.67zm1.675-55.611h-1.005l.67-4.69h1.005l-.67 4.69zm6.03 32.831l-.67-.335.335-1.34 1.005.335-.67 1.34zm.67-2.345h-.67l.67-3.015h1.005l-1.005 3.015zm1.005-6.03l-.67-.335 1.005-2.345h1.005l-1.34 2.68zm1.675-3.016l-.67.335v-3.015l1.005-.335-.335 3.015zm.67-47.569l-1.005-.335.67-1.675h1.005l-.67 2.01zm0 5.359v-2.01h1.005v2.01h-1.005zm1.339-3.349h-.67v-3.685h1.005l-.335 3.685zm3.686 35.845l-.67 3.015.67.335 1.005-3.015-1.005-.335zm5.025-44.556h-1.005l.335 1.34h1.005l-.335-1.34zm12.059-11.724l-.67 1.675.67.335.67-2.01h-.67zm17.421 45.895l-2.01 1.675.67.67 2.01-2.01-.67-.335zm5.025-6.7l-.67-.335.67-1.34h.67l-.67 1.675zm2.679-64.32c-.67.895-1.455 1.34-2.345 1.34 2.9-.22 4.355.56 4.355 2.345.001-2.01-.669-3.235-2.01-3.685zm18.091 52.929c0-.67-.225-1.115-.67-1.34 0 1.79-.225 2.795-.67 3.015h1.005c.22-.669.335-1.224.335-1.675zm2.01-17.084l-.67-3.35h1.005l.67 3.015-1.005.335zm3.35 1.675c.89 3.35 1.45 5.25 1.675 5.695-2.01-3.35-3.13-5.245-3.35-5.695 0-.445.11-1.005.335-1.675.22-.67.335-1.115.335-1.34.89.67 1.56 1.005 2.01 1.005 0 .225-.335.895-1.005 2.01zm5.694 7.704h-.67v2.01h.67v-2.01zM463.63 228.201c-.45 2.46-1.455 3.575-3.015 3.35-.45 0-2.125-1.56-5.025-4.69.22-1.34-.67-2.9-2.68-4.69-.225-1.34-.335-2.12-.335-2.345.67 0 1.34.45 2.01 1.34l2.68-2.01c1.115-.89 1.895-1.34 2.345-1.34 2.455.45 3.795 3.91 4.02 10.385zm-4.355-166.83c0 .45-.167 1.005-.502 1.675-.335.67-.502 1.121-.502 1.34-1.12-.22-2.235-.22-3.35 0-.895-.89-1.23-1.45-1.005-1.675 0-.445.335-1.282 1.005-2.512.67-1.225 1.005-2.063 1.005-2.513.89 0 2.23.225 4.02.67l-.671 3.015zm170.515 56.615l-6.365 3.014c-.225.895.555 1.9 2.346 3.015 0 .45-.451 1.12-1.34 2.01-4.021.45-9.83.785-17.42 1.005-1.34 0-2.57.45-3.686 1.34 1.785.45 3.686.895 5.695 1.34 2.01.225 4.02.335 6.029.335-2.461.45-6.145 1.005-11.055 1.675-2.234.895-5.475 1.79-9.715 2.68.22.45.555.561 1.005.335 3.795-.445 5.916-.67 6.365-.67 1.561 0 6.92-.22 16.08-.67l1.34.67-2.344 1.675-42.21 4.69c-15.41 1.565-29.37 2.57-41.875 3.015l-.67.67c-.225.225-2.57 6.815-7.035 19.765-2.905 8.49-4.915 15.97-6.03 22.445-3.35 21.89-1.9 39.42 4.355 52.595 11.61-6.919 17.085-10.385 16.415-10.385.89 0 2.345 1.172 4.355 3.518 2.01 2.345 3.46 3.632 4.355 3.853.445 0 .67-.11.67-.335 0-.22.22-.22.67 0 .445.225 1.115.895 2.01 2.01 1.34-1.115 8.485-4.91 21.44-11.39-12.955 14.295-28.14 24.68-45.56 31.155-.896.45-1.34.895-1.34 1.34l.67 1.005c4.465-.22 15.63-5.58 33.5-16.08l-17.42 13.065c-11.17 8.04-18.54 11.725-22.11 11.055-.67 0-2.513-1.34-5.527-4.021-3.015-2.68-4.638-4.355-4.858-5.025-2.235.67-3.465 1.901-3.685 3.685l-4.02-.67c-2.235-.444-7.37-6.81-15.41-19.095-3.13-4.91-4.69-14.625-4.69-29.145.22-10.495 1.115-20.77 2.68-30.82.445-2.9 3.35-15.185 8.71-36.85-5.585.895-9.715 1.12-12.395.67-1.565-.22-4.135-1.115-7.705-2.68-3.575-1.56-6.365-2.455-8.375-2.68l-9.045-1.34h-1.34c0-.67.335-1.45 1.005-2.345 2.01-.67 3.795-.89 5.36-.67.89.225 2.345.56 4.355 1.005 2.01.45 3.46.785 4.355 1.005l1.005-.67c-.45-.67-1.9-1.675-4.355-3.015 1.115 0 3.015-.11 5.695-.335-6.48-6.475-10.275-9.825-11.39-10.05-.67 0-2.795.225-6.365.67.22-.67.78-.89 1.675-.67.22-.22 0-.67-.67-1.34l5.36-5.36c4.69 0 7.145-.78 7.37-2.345.445-2.01.11-3.015-1.005-3.015-1.79-.22-3.24-1.005-4.355-2.345 2.01-.22 5.025-.78 9.045-1.675l-1.005-1.34c1.34-.67 3.46-1.785 6.365-3.35.445-.67.335-1.005-.335-1.005 1.34.225 2.12.67 2.345 1.34 1.56-.445 2.565-1.785 3.015-4.02 1.56-.67 3.795-1.225 6.7-1.675 4.24-.445 10.605-1.225 19.095-2.345.89-1.785 3.57-9.6 8.04-23.45l.67-4.69c.22-.89 1.225-3.125 3.015-6.7l.335-3.35c.67-1.785 1.895-4.575 3.685-8.375.22-.89.67-2.229 1.34-4.02 1.785-2.01 3.015-3.905 3.685-5.695 2.68 1.79 5.695 3.91 9.045 6.365 1.34-1.115 3.235-2.68 5.695-4.69 0 .895.89 3.465 2.68 7.705.89-2.01 2.345-5.36 4.355-10.05l1.675.67c0 1.79.78 4.58 2.345 8.375.445 3.13.67 6.48.67 10.05 0 5.585.22 8.155.67 7.705l-.67 3.015h-1.005c-1.34 5.585-3.575 13.96-6.7 25.125.22.45.555 1.005 1.005 1.675.445 0 1.005-.335 1.675-1.005-.225.895.11 1.455 1.005 1.675 1.56.225 4.13 0 7.705-.67 3.125.225 8.15.335 15.075.335 8.71 0 13.735-.11 15.075-.335-1.34 2.46-3.015 3.575-5.025 3.35l-5.025-.67-1.005.335c.67.895 1.675 1.455 3.015 1.675.89 0 2.345-.22 4.355-.67 2.01-.445 3.46-.555 4.355-.335.445 0 .555.225.335.67-.225.45 0 .67.67.67-1.565-.22 2.79-.89 13.064-2.01h15.746c-.67 0-2.178.502-4.523 1.507-2.344 1.005-3.852 1.398-4.521 1.173-4.916-.67-9.27-.335-13.065 1.005.67.895 1.34 1.34 2.01 1.34 10.495 1.79 14.741 2.235 12.729 1.34.67.895 2.455 3.24 5.361 7.035 0 .67.109 1.34.334 2.01 1.785.895 2.346 1.23 1.676 1.005 1.561.225 4.689.225 9.379 0l.67.67-.335 2.011zm-169.51 16.414l-4.69-.67c.67-.22 1.34-.555 2.01-1.005.89 1.121 1.785 1.675 2.68 1.675zm61.975-95.139c-1.34.895-2.125 1.34-2.345 1.34l-4.02-.67c-.225-.22-.502-.67-.837-1.34-.335-.67-.618-1.115-.838-1.34-1.34.225-2.46 1.063-3.35 2.513-.896 1.455-1.121 2.627-.67 3.518 1.56 5.14 1.225 8.71-1.005 10.72-2.01 1.34-4.915 3.24-8.71 5.695-6.925.45-10.165.785-9.715 1.005-1.34-.22-2.345-1.058-3.015-2.513-.67-1.45-.67-2.847 0-4.188-.67-.89-1.565-2.345-2.68-4.355-.225-2.229-.56-5.36-1.005-9.38-1.565 1.34-2.795 1.9-3.685 1.675-5.585-.89-7.93-3.795-7.035-8.71.445-2.455 2.01-4.8 4.69-7.035 2.68-2.23 5.245-3.125 7.705-2.68.445 0 1.005.225 1.675.67.67.45 1.225.785 1.675 1.005.445 0 1.895-.502 4.355-1.507 2.455-1.005 3.905-1.392 4.355-1.172 1.785.225 5.025 2.125 9.715 5.695.89 1.34 2.565 3.35 5.025 6.03.67-1.34 1.785-2.9 3.35-4.69 1.34-1.115 2.455-1.56 3.35-1.34 1.56.225 2.899 1.675 4.02 4.355l-1.005 6.699zm-31.49 30.485l-6.03-2.345.335-.67 5.695 2.01v1.005zm5.025 15.075c-.45 2.235-1.675 3.13-3.685 2.68-3.575-.445-5.92-2.229-7.035-5.36 1.115-2.455 2.455-3.57 4.02-3.35 4.91.669 7.145 2.68 6.7 6.03zm13.735-38.526l-.67-1.005-.67.335.67 1.005.67-.335zm11.055 7.036l-12.395 36.515 10.05-40.2c.445.225 1.225 1.455 2.345 3.685zm7.035 155.44c-1.121 0-1.9-.555-2.345-1.675-.67-2.455-.785-5.025-.335-7.705-.225 1.79 1.785-6.03 6.03-23.45-.67 3.13-1.172 8.433-1.507 15.913-.335 7.484-.953 13.122-1.843 16.917zm25.46-121.605l-1.34 5.36h-1.34l1.675-5.695 1.005.335zm3.685-40.871h-1.005l.335-1.34h1.005l-.335 1.34zm20.435 1.341c-.225 2.235-2.01 4.135-5.36 5.695-.67-.89-1.005-1.56-1.005-2.01.22-.89 1.057-2.12 2.512-3.685 1.45-1.56 2.623-2.455 3.518-2.68.445.669.555 1.565.335 2.68zm41.874.335c-2.01 1.34-3.574 1.9-4.689 1.675l-.67-.67.336-2.01c.443-.445 2.01-1.225 4.689-2.345l1.004.67-.67 2.68zM571.833 211.786h-2.345v-1.34h2.345v1.34zm7.37-4.355l-3.015 1.005c-1.34 2.68-2.01 3.35-2.01 2.01 0-.445.335-1.115 1.005-2.01-1.115.45-2.9 0-5.36-1.34 0 .45.56.67 1.675.67l6.7-2.01c.67.895 1.005 1.455 1.005 1.675zm-1.676 3.685l-3.35 2.01-.335-1.005 2.68-2.01 1.005 1.005zm2.346-15.745l-3.685 3.685-.335-1.005 3.35-3.35.67.67zm215.405-31.826c-1.34 0-2.57.785-3.686 2.345-.895 1.34-.895 2.68 0 4.02-1.34.225-6.59.895-15.746 2.01 0 .896.221 1.34.67 1.34h9.717c0 .45.219 1.005.67 1.675-4.246.225-8.375.335-12.396.335-5.809.67-9.715 1.79-11.725 3.35.67.225 3.35.335 8.041.335-1.34.225-3.352.785-6.031 1.675-.449.225-.225.67.67 1.34-1.119-.445-2.125-.335-3.014.335 2.68.225 6.584.56 11.725 1.005-37.52 6.255-68.23 12.175-92.125 17.755-1.791 1.34-5.25 3.35-10.385 6.03-2.236.67-9.83 2.68-22.781 6.03v7.035c1.34 0 3.352.225 6.031.67h2.01c-5.586 0-8.375 1.34-8.375 4.02-3.131 27.92-6.031 48.24-8.711 60.97.67-4.471 1.451-11.391 2.346-20.77l-1.006-1.006c-.225 0-.67.336-1.34 1.006.67 3.568-.559 10.719-3.684 21.439.889-3.35 1.34-7.369 1.34-12.061-.227 0-.451.111-.67.336-2.01 5.805-7.035 14.74-15.076 26.799-.449.221-1.119.67-2.01 1.34-.895 2.23-2.125 5.916-3.686 11.057-2.234-2.236-3.129-3.801-2.68-4.691 2.01-6.924.221-13.064-5.359-18.424v-1.676l-1.006-1.34c-1.789.891-.115 6.365 5.025 16.416 0-.672-.115-1.844-.334-3.518-.227-1.676-.336-2.848-.336-3.518 0 1.113-2.346-2.682-7.035-11.391l-1.004-1.006c-.67 1.561-1.791 3.57-3.351 6.031-1.12-1.121-1.675-1.791-1.675-2.01 0-1.34.388-3.408 1.173-6.199.779-2.795 1.172-4.857 1.172-6.197-.67 1.34-1.79 4.24-3.35 8.711-.45-.225-.785-.67-1.005-1.34 3.35-14.74 5.026-23.45 5.026-26.13v-1.675c-.671-.445-1.676-.555-3.016-.335l5.36-38.19c-.67-.89-1.23-1.34-1.674-1.34-.896.225-2.346 1.455-4.356 3.685l.67-.335c.445-.22.67-.555.67-1.005.67-.22.445-.335-.67-.335-.895 0-3.465 1.23-7.705 3.685l-8.04 4.355c-.45.225-.785.335-1.005.335l-3.685-.335c4.465.225 8.71-1.895 12.73-6.365.22.225-.335.335-1.675.335-.45 0-.56-.22-.335-.67v-1.34c-2.68 2.68-4.69 4.02-6.03 4.02-.45 0-.895-.22-1.34-.67l-1.005-.67 1.005-.67c.22-.445.555-.67 1.005-.67.89 0 1.34.115 1.34.335 0 .225.11.335.335.335 1.115-2.01 1.675-3.235 1.675-3.685 0-.89-1.005-2.565-3.015-5.025.445-1.34 1.005-3.235 1.675-5.695.22-.445 0-.67-.67-.67-.895 0-1.9.56-3.015 1.675.445-.89.89-2.565 1.34-5.025h-4.02c4.24-3.125 9.825-7.255 16.75-12.395 2.899-.67 6.365-2.68 10.384-6.03-.225-.22-.785-.335-1.674-.335-2.906 0-6.648 1.397-11.223 4.188-4.58 2.795-7.763 5.527-9.547 8.208-.225-.445 0-1.005.67-1.675-.895-.67-1.455-1.005-1.675-1.005-.67.225-1.005.785-1.005 1.675 0-1.785.445-3.46 1.34-5.025-.45.67-.335 1.34.335 2.01.67-.22 1.785-1.005 3.35-2.345-.895.895-1.005 1.565-.335 2.01 3.125-5.135 10.385-8.82 21.774-11.055.67-.67 1.34-1.56 2.01-2.68v-1.34c-.225-.445-.785-.67-1.674-.67l-11.39 4.69c-.226.45-.226.785 0 1.005-.226-.22-.785-.335-1.675-.335-1.34 0-4.806 1.675-10.385 5.025v-2.01c-.45 0-1.34.67-2.68 2.01 1.785-1.785 4.02-4.13 6.7-7.035 2.01-.89 2.9-1.34 2.68-1.34h1.005c0 .45.22.67.669.67.891 0 6.365-1.675 16.416-5.025.445-1.56.445-3.015 0-4.355h-.67c0-.22.168-.555.502-1.005.336-.445.502-.78.502-1.005.221-.67.221-1.895 0-3.685.221-.89.336-2.68.336-5.36l7.369-60.3c0-2.455.891-6.585 2.682-12.395 2.229-7.145 3.459-11.5 3.684-13.065 2.68-13.175 5.695-23.785 9.045-31.825 2.23-.89 3.906-2.68 5.025-5.36l2.68-7.035c-.225.67-.334 1.34-.334 2.01 0 .45.109.785.334 1.005 2.23-4.465 6.92-9.265 14.07-14.405l-3.016 3.015c.672.45 1.561.115 2.682-1.005-4.246 5.14-6.146 8.375-5.695 9.715.219-.89 1.004-2.12 2.344-3.685 12.061-6.7 18.646-10.05 19.766-10.05l1.34 1.34c1.34-2.455 5.916-3.685 13.736-3.685 3.123 0 6.248 1.005 9.379 3.015 2.68 2.68 4.02 4.135 4.02 4.355.67 0 1.006-.167 1.006-.502s.219-.502.67-.502c.445 0 .891.45 1.34 1.34.445.895.891 1.34 1.34 1.34 6.92.45 12.506 2.345 16.75 5.695 1.785 1.34 3.686 3.13 5.695 5.36 3.795 2.68 6.92 4.02 9.379 4.02-.895 0 0-.67 2.682-2.01.889 2.46 2.119 5.811 3.684 10.05-.895.225-3.014-.11-6.365-1.005-3.35-.89-5.359-1.34-6.029-1.34s-1.674 1.005-3.016 3.015c-1.34 2.01-2.234 3.015-2.68 3.015-.895 0-4.521-1.953-10.887-5.863-6.365-3.905-10.107-6.417-11.223-7.537-.895 0-1.34.335-1.34 1.005 0 .225.219.56.67 1.005-1.121-1.115-2.234-1.675-3.35-1.675l-2.01 1.005c-2.012.45-4.916 1.565-8.711 3.35-6.926 7.82-12.73 22.67-17.42 44.555-.895 3.35-2.234 10.5-4.02 21.44-.67.67-1.34 1.791-2.01 3.35-.67 4.02-1.455 9.605-2.346 16.75-.895 1.34-1.9 3.35-3.016 6.03l-1.674 25.125c.219 0 .67.225 1.34.67.67.45 1.115.67 1.34.67-1.121 0-2.234.785-3.35 2.345 1.115.67 3.014.785 5.695.335 1.34-.22 3.234-.445 5.693-.67-2.68.67-6.699 2.235-12.059 4.69 0 .45.219.67.67.67l44.555-7.705c2.23.225 5.914.56 11.055 1.005-7.369.895-19.766 3.465-37.186 7.705 2.9 1.12 4.691 1.675 5.361 1.675l66.33-7.37-45.227 7.37-1.34 1.005c.221.225 1.34.335 3.352.335l53.934-8.71c20.548.001 33.724 1.121 39.534 3.35zm-213.06 50.25c-1.34 1.565-2.01 2.46-2.01 2.68 0-.22-.115-.67-.335-1.34l-.335-1.34.67 1.34c.669-.889 1.339-1.34 2.01-1.34zm5.025 3.685l-.67-1.005-1.34 1.005v.67l2.01-.67zm13.399 11.391c-1.12-.445-2.569.167-4.354 1.842-1.79 1.675-3.13 2.513-4.021 2.513 2.455-1.115 5.471-2.565 9.046-4.355h-.671zm8.041 33.5v-6.7c-.451 0-1.006-.335-1.676-1.005-.225.67-.67 1.565-1.34 2.68-.67 6.254-1.455 14.514-2.344 24.79 3.569-12.286 5.36-18.87 5.36-19.765zm-1.676-79.06v-1.005h-2.01v1.005h2.01zm5.025 123.615h-1.34v-1.676h1.34v1.676zm1.006-184.25h-1.006v-2.345h1.006v2.345zm25.125-68.676v-2.68h-.67v2.68h.67zm8.039-34.169l-4.355 5.36-.67-1.005 4.355-4.69.67.335zm-4.019 27.805v-2.68h-1.006v2.68h1.006zm2.009-7.37h-.67l-1.676 4.355.67.335 1.676-4.69zm1.006 0v-1.675h-1.34v1.675h1.34zm3.35-10.385h-.67l-3.686 8.04 1.34.335 3.016-8.375zm29.48 2.01h-.67l-2.682 5.695.67.335 2.682-6.03zm14.069-15.076c-.67 0-1.674-.22-3.014-.67-1.34-.445-2.461-.67-3.35-.67-2.236 0-4.246.67-6.031 2.01 2.68.001 6.811-.219 12.395-.67zm24.121 141.371h-4.355v-1.005h4.355v1.005zm6.365-.67h-4.691v-1.34h4.691v1.34zm5.025-1.005h-4.355v-1.005h4.355v1.005zm6.03-.335h-5.025v-1.005h5.025v1.005zm2.009-123.615l-.334 1.005-2.012-1.005v-.67l2.346.67zm3.686 122.945h-3.686v-1.34h3.686v1.34zm24.455 58.96h-2.346v-1.005h2.346v1.005zM854.905 164.216c0 4.02-1.674 9.94-5.025 17.755-1.34 3.8-3.238 9.83-5.693 18.09-2.682 2.905-6.48 7.82-11.391 14.74l1.676-3.35c1.34-2.455 1.783-3.905 1.34-4.355-1.791 2.46-4.246 6.48-7.371 12.06-1.34 1.12-3.35 3.24-6.029 6.365-1.34 2.46-3.24 6.03-5.695 10.72-5.811 8.265-12.285 14.965-19.43 20.1-12.285 9.16-20.436 13.734-24.455 13.734-.67 0-1.676-.225-3.016-.67-1.34-.449-2.234-.67-2.68-.67-1.791 0-4.303.389-7.537 1.174-3.24.779-5.752 1.172-7.537 1.172-6.701 0-13.852-3.574-21.441-10.72l-6.699-1.34c-.225.67-.336 1.566-.336 2.68 0 1.12.111 2.46.336 4.021-2.234-2.9-5.25-6.701-9.045-11.391-.225-1.115-.785-3.125-1.676-6.03-.67-.445-1.34-.89-2.01-1.34-.449-2.9-1.119-7.37-2.01-13.4 1.115-1.34 1.676-2.345 1.676-3.015-2.236-5.135-3.686-9.49-4.355-13.065.67-.67.67-6.7 0-18.09 2.01-16.3 6.141-32.38 12.395-48.24 2.455-6.919 7.256-14.18 14.406-21.775 7.59-8.93 14.404-14.07 20.434-15.41.891 0 5.135-1.785 12.73-5.36-15.41 6.255-27.695 15.97-36.85 29.145-.225.225 0 .67.67 1.34l1.674-1.34c-2.904 3.13-5.25 6.925-7.033 11.39l1.34.67c6.92-9.6 18.199-19.765 33.834-30.485-.67 0-2.57.56-5.695 1.675 14.291-8.485 25.346-12.615 33.166-12.395-.225 0-.67.335-1.34 1.005.67.45 1.449.67 2.344.67 1.115 0 2.791-.22 5.025-.67 2.23-.445 3.904-.67 5.025-.67.67 0 2.178.785 4.521 2.345 2.346 1.565 3.738 2.345 4.188 2.345.891 0 1.283-.168 1.174-.503-.115-.335.053-.502.502-.502.67.225 1.617.953 2.848 2.178 1.225 1.23 4.521 4.857 9.883 10.887.889 2.01 3.125 4.69 6.699 8.04l1.34-1.34c-1.564-.67-2.178-1.56-1.842-2.68.334-1.115.053-2.01-.838-2.68 3.57 0 6.25.785 8.041 2.345 1.34-1.56 2.01-2.565 2.01-3.015.889 2.46 2.68 5.025 5.359 7.705 1.561 1.791 3.904 7.485 7.035 17.085 0 .896.109 2.345.334 4.355.445.895 1.451 1.79 3.016 2.68 1.338 2.01 2.008 4.02 2.008 6.03zm-113.9-35.51l-4.354 4.69-.336-1.005 4.02-4.02.67.335zm5.361-3.351l-4.355 3.35-.334-1.34 4.02-3.015.669 1.005zm53.264 32.161c-2.234-3.35-3.574-5.915-4.02-7.705-2.904 2.01-7.594 5.81-14.07 11.39.221-1.34 1.115-3.015 2.682-5.025-10.275 12.73-17.756 26.915-22.445 42.545-.896-1.34-1.455-2.01-1.676-2.01-1.564 0-3.072 2.68-4.521 8.04-1.455 5.36-2.178 9.16-2.178 11.39 0 4.47 1.004 10.275 3.014 17.42 8.93-2.455 17.531-9.045 25.795-19.765 8.26-10.72 12.281-20.435 12.061-29.145.891.45 1.561-.22 2.01-2.01l1.006-2.345c-1.791-.67-3.686-1.45-5.695-2.345.221-1.115.336-2.01.336-2.68 0-2.229-3.576-4.24-10.721-6.03l8.375-.335c1.115.45 2.68 1.455 4.689 3.015.221-.67.555-1.45 1.006-2.345-1.34 0-2.125-.11-2.346-.335 1.115-1.115 1.561-2.01 1.34-2.68-.895-.67-2.125-1.56-3.686-2.68 3.352-1.115 5.58-2.565 6.701-4.355-.67-.89-1.564-1.895-2.68-3.015.67 0 1.559.167 2.68.502 1.114.335 1.894.503 2.343.503zm-29.815-48.911h-2.01v-1.34h2.01v1.34zm14.407.335c-2.461.67-7.486 2.345-15.076 5.025h3.016c1.339.226 5.359-1.449 12.06-5.025zm-10.051-2.009h-2.01v-1.34h2.01v1.34zm14.74 72.025h-1.676v-1.34h1.676v1.34zm59.629-54.94h-1.34v-3.016h1.34v3.016zM927.933 225.855c-1.121.895-5.25 3.24-12.395 7.035.445.895.779 1.34 1.004 1.34.891 0 1.676-.335 2.346-1.005-.225.67-.336 1.12-.336 1.34-.449.225-.225.335.67.335.67 0 1.115-.335 1.342-1.005.67 1.34.889 2.795.67 4.355-.227 1.565-.561 2.57-1.006 3.015-3.801 1.34-8.154 4.135-13.064 8.375-.227 0-.67-.22-1.34-.67-.67-.445-1.23-.67-1.676-.67-1.119-.22-3.016.56-5.695 2.345l-.334 2.01c-1.566.67-2.906 1.455-4.021 2.345-.449.225-.225.335.67.335.891.225 2.346-.11 4.355-1.005-1.34.45-3.129 1.005-5.359 1.675-.67.895-1.564 2.01-2.68 3.35-1.34-.22-3.35-.22-6.031 0-2.459 1.34-4.805 2.46-7.035 3.35-2.904 1.79-4.805 3.686-5.693 5.695.219-1.121-.115-2.346-1.006-3.686-1.564 1.121-2.346 2.346-2.346 3.686-.225 1.115-.115 2.01.336 2.68l-1.34-1.676c-1.121 1.115-2.68 3.016-4.689 5.695-.227-.449-.67-1.119-1.34-2.01-2.012 0-3.131 1.006-3.352 3.016-.225 2.01-.334 3.686-.334 5.025v1.004h-2.346c0-.67.221-1.34.67-2.01v-2.346c.221-.67.109-1.674-.334-3.014l-5.361 4.355c-2.898-.227-5.023-1.791-6.365-4.691l-2.01 1.676c0-1.121-.334-2.125-1.004-3.016-.221.221-.445.555-.67 1.006-.221.445-.445.779-.67 1.004 0-.895.559-2.459 1.674-4.689l-1.004-.67c-.67.891-1.451 1.895-2.346 3.016 0-.67.336-2.346 1.006-5.025.225-2.68-.445-4.021-2.01-4.021-.67-.22-1.896 0-3.686.671 0 .67.115 1.229.334 1.674l1.676-1.004c.67 0 .115.785-1.676 2.344 0-1.34-.555-2.564-1.674-3.685 0-.22-.221-.11-.67.335v5.025c-.221-1.34-.221-2.9 0-4.689-.221-.221-.781-.336-1.676-.336-.445 0-.779.168-1.004.503-.221.335-.445.503-.67.503.449-.221.727-.556.836-1.006.115-.445.283-.779.504-1.005-.891-1.114-1.896-2.229-3.016-3.35l3.016 2.01c.449-.444.225-1.226-.67-2.345l6.699-8.71c-.221-.22-.779-.335-1.676-.335 1.34 0-1.113.67-7.369 2.01 2.234-1.115 5.475-2.79 9.715-5.025v-2.01c.449-.445 1.9-2.68 4.355-6.7.449-.445 1.732-1.45 3.852-3.015 2.125-1.56 3.184-3.015 3.184-4.355 1.34-.445 2.68-1.34 4.02-2.68 12.504-26.575 22.221-61.525 29.145-104.855l1.006-17.085c-3.576 21.22-5.586 33.5-6.031 36.85-3.129 14.07-6.699 26.02-10.719 35.845 6.475-33.275 10.049-54.155 10.719-62.645l.67 1.34c.221-.445.336-1.005.336-1.675.219-.445.219-.89 0-1.34-1.34 1.12-2.01 1.34-2.01.67 0-.22.168-.722.502-1.507.336-.78.502-1.508.502-2.178l2.01-52.26c.221-7.145 1.561-13.175 4.021-18.09v-1.34c.67-.445 1.674-1.005 3.014-1.675.221-.89.336-1.45.336-1.675h1.6760000000000002c0 .45.219 1.12.67 2.01l-2.682 55.61c.67-2.455 1.785-11.5 3.352-27.135l-.336-14.74c.445-3.57 1.34-7.59 2.68-12.06.221.895.555 2.01 1.006 3.35 1.34-1.115 2.119-3.46 2.344-7.035 1.561.895 2.791 1.34 3.686 1.34.445-.445 1.225-1.34 2.346-2.68v2.68c.67.225 2.229.45 4.689.67 1.561.225 2.346 0 2.346-.67-.227 1.12-.115 2.125.334 3.015 0-1.115.555-2.565 1.676-4.355 1.115-1.785 2.119-2.565 3.016-2.345v2.01c-1.566.895-2.57 1.79-3.016 2.68l.334 2.345c1.785-.67 3.795-2.455 6.031-5.36l-.67 5.36c0 2.235 1.449 3.465 4.354 3.685-.895 2.01-1.455 3.8-1.674 5.36-.225 2.68-.115 10.166.334 22.445l-.67 6.03c-.225 2.235.221 3.685 1.34 4.355l-3.35 31.49c-2.234 22.56-9.379 54.385-21.439 95.475 0 .45-.451 1.675-1.34 3.685-.451.67-.561 1.12-.336 1.34.67-.445 1.451-.555 2.346-.335.445.225 1.34 1.23 2.68 3.015h1.676c1.34-1.34 2.119-2.79 2.344-4.355 0 .225.221.785.67 1.675.891 0 1.451-.445 1.676-1.34-.67 1.34-2.57 3.015-5.695 5.025 2.01.45 3.57.67 4.689.67 5.361-2.01 8.486-3.015 9.381-3.015.67 0 1.449.502 2.346 1.508.889 1.005 1.449 1.507 1.674 1.507.445.225.891 0 1.34-.67.445-.67.891-.89 1.34-.67 2.455.225 5.695 1.455 9.715 3.685l-.339 3.686zm-92.795 32.161l-.67-.67-1.006 2.01.67.335 1.006-1.675zm2.679 4.69c-.67-2.455-.891-4.465-.67-6.03-.445.45-1.34 2.235-2.68 5.36 1.79 0 2.905.224 3.35.67zm-1.339 10.05l-1.006-.336.336-3.016 1.006.336-.336 3.016zm8.375-1.339l-1.34-.336-.67 3.016h1.004l1.006-2.68zm1.005-38.861l-1.006 1.34-.67-.335 1.006-1.34.67.335zm15.075-34.505c-.67 2.68-2.795 7.37-6.365 14.07-1.564 2.01-3.016 4.355-4.355 7.035 1.785-4.91 4.576-12.06 8.375-21.44l2.345.335zm3.685-19.43l-1.006 2.345-1.004-.335.67-2.345 1.34.335zm5.695-34.17h-.672l.336-2.01.67.335-.334 1.675zm3.684-17.755l-.67 4.355-1.004-.335.67-4.02h1.004zm15.41 137.685c-3.574 2.01-7.26 4.574-11.055 7.705.891 1.783 2.23 2.789 4.02 3.014.445.221.891.221 1.34 0v-.67c-.225 2.01-.449 2.9-.67 2.68-.225-.225-.785-.225-1.674 0l-1.006.336c-1.34-1.34-1.674-2.01-1.004-2.01-.896-.67-3.016-1.23-6.365-1.676 5.36-3.799 10.83-6.924 16.414-9.379zm-14.74-142.375l-1.004-.335.334-5.025h1.34l-.67 5.36zm4.021-30.151l1.674-32.16c-.449-.22-1.23 3.465-2.346 11.055.891 9.381 1.116 16.416.672 21.105zm10.385 166.496l.334-1.34h-2.344l-.336 1.005 2.346.335zm3.35-46.565h-.67l-2.01 3.015.67.67 2.01-3.685zm1.34-6.03h-1.006l-1.674 4.69h.67l2.01-4.69zm2.009 12.059l-.67-1.34-4.02 2.345v1.34l4.69-2.345zm6.366 36.181l-1.676.335v-1.005l1.676-.67v1.34zm9.045 2.345c-.225 0-.617.167-1.172.502-.561.335-1.174.393-1.844.167l-4.02-.335c1.115-.89 2.455-1.225 4.02-1.005l3.016.671zm4.019-41.205l-1.674 2.345-.67-1.005 1.674-2.01.67.67zm5.361-97.15l-1.342-.335.336-3.35 1.34.335-.334 3.35zm0 98.49h-1.342l.336-2.01 1.006.335v1.675zm1.34-111.556h-1.34l.334-3.35h1.34l-.334 3.35zm5.36 119.261h-1.006l-1.004 2.68h1.004l1.006-2.68zM1027.763 233.226c-3.576 2.46-5.361 4.135-5.361 5.025-.225.67.221 1.12 1.34 1.34-.895.895-4.02 3.575-9.379 8.04-.451.45-.67 1.12-.67 2.01-1.791 2.01-3.91 4.245-6.365 6.7-1.121 1.12-3.131 3.015-6.031 5.695-2.459 1.564-5.693 3.91-9.715 7.035l-.334.67 1.674-1.006c-.225.221-.449.555-.67 1.006 0 .445.221.891.67 1.34-1.34.67-2.795.891-4.354.67-.227.445-.451.891-.67 1.34 0 .445.219.779.67 1.006h-1.006c-.67-.451-1.23-.67-1.674-.67-1.121 0-1.676.443-1.676 1.34-.225.67-.225 1.559 0 2.68-1.121-.67-2.57-1.006-4.355-1.006-.895.67-1.455 1.006-1.674 1.006-.67-.225-1.676-.617-3.016-1.172-1.34-.561-2.346-.838-3.016-.838-1.119-1.121-2.459-2.906-4.02-5.361-.225-.67-.67-1.004-1.34-1.004s-1.006.445-1.006 1.34c-.225-.449-.785-1.23-1.674-2.346-.67.891-1.455 1.225-2.346 1.006-2.459.219-4.02.334-4.689.334-.451 0-.561-.115-.336-.334.445-.451.445-.67 0-.67-2.459-.225-4.469-2.346-6.029-6.365-4.916-12.73-6.699-25.795-5.359-39.195 1.34-11.39 4.354-26.465 9.045-45.225 3.795-16.525 7.705-29.925 11.725-40.2 1.34-3.35 3.57-6.7 6.699-10.05.891-.22 2.23-.78 4.021-1.675.443-.22 1.559-1.005 3.35-2.345.889 1.34 2.344 3.575 4.354 6.7 3.57-2.229 6.25-3.235 8.041-3.015h2.01c0 .225-.115.56-.334 1.005l-.336.67c.445.45.779.67 1.006.67.67 0 1.783-.89 3.35-2.68.67-.22 1.559-.67 2.68-1.34-2.234 2.905-3.465 5.14-3.686 6.7v2.01l1.006 1.005c.67 0 1.449-.335 2.344-1.005.221 1.565.336 2.795.336 3.685-.225.895-.67 1.34-1.34 1.34h-1.34l.334 2.68c.67-.67 1.34-1.005 2.01-1.005 0 .225.111.67.336 1.34-1.564.895-2.461 1.9-2.68 3.015.219-.445.219-.78 0-1.005l-4.02 20.435c-6.256 21.44-10.166 39.865-11.727 55.275-.67 7.15-.895 14.07-.67 20.77.221.225.555.45 1.006.67l27.471-17.755c-2.012 4.02-5.586 8.04-10.721 12.06-2.461 1.79-6.926 5.025-13.4 9.715.891-.67 6.25-4.24 16.08-10.72l-17.756 14.07c.221.225.781.115 1.676-.335l-2.346 1.675c0 .225.336.335 1.006.335.891.225 12.061-7.255 33.5-22.445.221.45.779.785 1.676 1.005.67-.22 2.01-.67 4.02-1.34-2.236 1.565-3.35 2.795-3.35 3.685-.227 1.565.555 2.46 2.344 2.68.89-.001 2.454-.221 4.691-.671zm-70.352 33.835v-.67l-2.344-.336v.67l2.344.336zm5.026-8.04l.336-1.005-3.686-.335-.336 1.005 3.686.335zm-.67 9.38l.336-1.34h-1.006l-.334 1.34h1.004zm2.679-12.731l-3.014-.335-.336 1.34c.891-.219 2.01-.554 3.35-1.005zm3.686 27.471l-6.365-1.34.336-1.006 6.029 1.34v1.006zm66.664-202.675c-.449-.445-1.119-1.225-2.01-2.345-.225 0-.449.115-.67.335.221.67.336 1.565.336 2.68-.225 1.79-.895 3.8-2.01 6.03.219-1.56.109-4.24-.336-8.04-.449-.22-.785-.22-1.004 0v2.345c-1.791 1.565-2.57 3.35-2.346 5.36.445.45 1.225 1.23 2.346 2.345.443-.445.67-.78.67-1.005l-3.016 7.705c-2.68 2.46-7.26 6.03-13.734 10.72 0 .45.277.895.836 1.34.557.45.838.895.838 1.34 0 .225-.225.561-.67 1.005-2.01-1.785-3.465-2.68-4.355-2.68l-5.693 2.68c1.34-1.785 2.119-3.015 2.344-3.685l-2.344-.335-.336 3.35c0-.445-.334-.67-1.004-.67-.451 0-.67.115-.67.335 0 .67.219 1.34.67 2.01-.451-.445-1.121-1.507-2.012-3.183-.895-1.675-1.564-2.512-2.01-2.512-2.01-.22-3.465-.11-4.354.335-.67-3.35-2.012-4.69-4.021-4.02 1.34-1.34 2.121-2.345 2.346-3.015-.67-.67-1.121-1.005-1.34-1.005l-1.676 1.34c-1.564 1.34-3.014 1.9-4.354 1.675-.227 0-.336-.11-.336-.335 0-.22-.225-.335-.67-.335-.225 0-.729.225-1.508.67-.785.45-1.287.67-1.508.67-2.459-.22-3.35-4.13-2.68-11.725l1.34-1.005c.891-2.01 1.225-4.02 1.006-6.03 1.34-4.465 5.135-12.06 11.389-22.78 4.91-2.01 9.381-3.685 13.4-5.025-.67-.89-1.564-1.34-2.68-1.34-.449 0-1.004.225-1.676.67-4.689.67-8.877 3.24-12.563 7.705-3.684 4.47-5.861 9.16-6.531 14.07.889-2.68 1.785-6.365 2.68-11.055-6.699 5.14-10.051 11.17-10.051 18.09.445.895.781 2.01 1.006 3.35 0-.445-.225-.67-.67-.67-.451 0-1.121.115-2.01.335l-.336-2.68c.891-8.485 5.805-15.965 14.74-22.445l4.355-3.35c0-1.34-.451-3.35-1.34-6.03 2.01-1.34 3.57-2.01 4.689-2.01 1.785.225 4.689 1.005 8.711 2.345l9.045 3.015c0 .45.67 1.79 2.01 4.02 1.115-.22 2.01-.22 2.68 0 .221.67.445 1.005.67 1.005.445 0 .779-.11 1.006-.335.219-.22.443-.335.67-.335.443 0 .836.335 1.172 1.005.334.67.723 1.005 1.172 1.005.445 0 1.006-.11 1.676-.335.67-.22 1.225-.335 1.674-.335 0 .895.389 1.455 1.174 1.675.779.225 1.057.502.838.837-.227.335-.115.503.334.503 2.455.225 4.131.225 5.025 0l.67 1.005-.67.67c0 .45.334 1.23 1.004 2.345l-4.354 2.01c0 .45.443.785 1.34 1.005-.451 1.12-.67 2.905-.67 5.36 1.34 0 2.898.895 4.689 2.68l-.333 1.675zm-56.613 6.7l-.67-.335-.336-1.34h.67l.336 1.675zm7.705 158.455l-.67-1.005-1.676 1.005.334.67 2.012-.67zm1.004-181.57h-.67l-1.004 1.005.67.335 1.004-1.34zm28.14 173.195v-.335l-1.34.335v.67l1.34-.67zm14.405-150.75l-.67 1.005-.67-.335.336-1.34 1.004.67zM1175.495 164.216c0 4.02-1.674 9.94-5.025 17.755-1.34 3.8-3.238 9.83-5.693 18.09-2.682 2.905-6.48 7.82-11.391 14.74l1.676-3.35c1.34-2.455 1.783-3.905 1.34-4.355-1.791 2.46-4.246 6.48-7.371 12.06-1.34 1.12-3.35 3.24-6.029 6.365-1.34 2.46-3.24 6.03-5.695 10.72-5.811 8.265-12.285 14.965-19.43 20.1-12.285 9.16-20.436 13.734-24.455 13.734-.67 0-1.676-.225-3.016-.67-1.34-.449-2.234-.67-2.68-.67-1.791 0-4.303.389-7.537 1.174-3.24.779-5.752 1.172-7.537 1.172-6.701 0-13.852-3.574-21.441-10.72l-6.699-1.34c-.225.67-.336 1.566-.336 2.68 0 1.12.111 2.46.336 4.021-2.234-2.9-5.25-6.701-9.045-11.391-.225-1.115-.785-3.125-1.676-6.03-.67-.445-1.34-.89-2.01-1.34-.449-2.9-1.119-7.37-2.01-13.4 1.115-1.34 1.676-2.345 1.676-3.015-2.236-5.135-3.686-9.49-4.355-13.065.67-.67.67-6.7 0-18.09 2.01-16.3 6.141-32.38 12.395-48.24 2.455-6.919 7.256-14.18 14.406-21.775 7.59-8.93 14.404-14.07 20.434-15.41.891 0 5.135-1.785 12.73-5.36-15.41 6.255-27.695 15.97-36.85 29.145-.225.225 0 .67.67 1.34l1.674-1.34c-2.904 3.13-5.25 6.925-7.033 11.39l1.34.67c6.92-9.6 18.199-19.765 33.834-30.485-.67 0-2.57.56-5.695 1.675 14.291-8.485 25.346-12.615 33.166-12.395-.225 0-.67.335-1.34 1.005.67.45 1.449.67 2.344.67 1.115 0 2.791-.22 5.025-.67 2.23-.445 3.904-.67 5.025-.67.67 0 2.178.785 4.521 2.345 2.346 1.565 3.738 2.345 4.188 2.345.891 0 1.283-.168 1.174-.503-.115-.335.053-.502.502-.502.67.225 1.617.953 2.848 2.178 1.225 1.23 4.521 4.857 9.883 10.887.889 2.01 3.125 4.69 6.699 8.04l1.34-1.34c-1.564-.67-2.178-1.56-1.842-2.68.334-1.115.053-2.01-.838-2.68 3.57 0 6.25.785 8.041 2.345 1.34-1.56 2.01-2.565 2.01-3.015.889 2.46 2.68 5.025 5.359 7.705 1.561 1.791 3.904 7.485 7.035 17.085 0 .896.109 2.345.334 4.355.445.895 1.451 1.79 3.016 2.68 1.338 2.01 2.008 4.02 2.008 6.03zm-113.9-35.51l-4.354 4.69-.336-1.005 4.02-4.02.67.335zm5.361-3.351l-4.355 3.35-.334-1.34 4.02-3.015.669 1.005zm53.264 32.161c-2.234-3.35-3.574-5.915-4.02-7.705-2.904 2.01-7.594 5.81-14.07 11.39.221-1.34 1.115-3.015 2.682-5.025-10.275 12.73-17.756 26.915-22.445 42.545-.896-1.34-1.455-2.01-1.676-2.01-1.564 0-3.072 2.68-4.521 8.04-1.455 5.36-2.178 9.16-2.178 11.39 0 4.47 1.004 10.275 3.014 17.42 8.93-2.455 17.531-9.045 25.795-19.765 8.26-10.72 12.281-20.435 12.061-29.145.891.45 1.561-.22 2.01-2.01l1.006-2.345c-1.791-.67-3.686-1.45-5.695-2.345.221-1.115.336-2.01.336-2.68 0-2.229-3.576-4.24-10.721-6.03l8.375-.335c1.115.45 2.68 1.455 4.689 3.015.221-.67.555-1.45 1.006-2.345-1.34 0-2.125-.11-2.346-.335 1.115-1.115 1.561-2.01 1.34-2.68-.895-.67-2.125-1.56-3.686-2.68 3.352-1.115 5.58-2.565 6.701-4.355-.67-.89-1.564-1.895-2.68-3.015.67 0 1.559.167 2.68.502 1.114.335 1.894.503 2.343.503zm-29.815-48.911h-2.01v-1.34h2.01v1.34zm14.407.335c-2.461.67-7.486 2.345-15.076 5.025h3.016c1.339.226 5.358-1.449 12.06-5.025zm-10.051-2.009h-2.01v-1.34h2.01v1.34zm14.74 72.025h-1.676v-1.34h1.676v1.34zm59.629-54.94h-1.34v-3.016h1.34v3.016z"/></g></svg>