<svg xmlns="http://www.w3.org/2000/svg" width="505.101" height="165.036" viewBox="0 0 505.101 165.036"><g fill="#6E7171"><path d="M12.852 32.64c-.137 1.09-1.906 3.742-5.304 7.956-.408.816-1.02 1.157-1.836 1.02-1.09 0-2.11-.408-3.06-1.224-.408-.408-1.224-1.699-2.448-3.876-.137-2.174-.204-3.535-.204-4.08.408-3.943 2.244-5.712 5.508-5.304.816.137 1.836 1.294 3.06 3.468.134.137.306.102.51-.102.204-.204.44-.306.714-.306.408 0 1.02.306 1.836.918.816.612 1.224 1.122 1.224 1.53zm137.7-6.528c-1.361.816-2.11 1.769-2.244 2.856 0 .545.134 1.09.408 1.632-.682.274-1.565.886-2.652 1.836 0-.134-.07-.338-.204-.612-2.722 1.632-4.08 3.946-4.08 6.936 1.087-.95 2.652-2.515 4.692-4.692l-.204 1.02 1.224.204c.408-.134.679-.204.816-.204-1.498 0-2.926 1.565-4.284 4.692 0 .274.067.612.204 1.02-2.856 4.896-4.284 7.889-4.284 8.976.408.137.816 0 1.224-.408.408-1.087 2.244-3.535 5.508-7.344-1.498 2.448-3.06 5.17-4.692 8.16-3.13 6.12-4.762 9.929-4.896 11.424 0 .274-.239.851-.714 1.734-.479.886-.784 1.6-.918 2.142 0 .545.134 1.294.408 2.244l-.612-.408c.271.274.408.612.408 1.02 0 .274-.204.612-.612 1.02v.408c-.137.137-.07.274.204.408l.816-1.428c.679 1.09.95 1.836.816 2.244 0 .816-1.361 3.468-4.08 7.956-.137 0-.204.408-.204 1.224l-.816-.612v.204c0 .137.067.274.204.408.134.137.204.408.204.816-.137.408-1.02 2.652-2.652 6.732-.682-.134-1.224-.134-1.632 0-.137.545 0 .816.408.816.271.137.612 0 1.02-.408-.274.545-.816 1.361-1.632 2.448.542.545 1.087 1.294 1.632 2.244l-11.628 26.112c-5.986 13.738-11.832 23.256-17.544 28.561 0 .679-.749 1.969-2.244 3.875-.682.271-1.632.883-2.856 1.836-.274 0-.647-.238-1.122-.714-.478-.478-.851-.714-1.122-.714-.274 0-.545.134-.816.408-.274.271-.545.408-.816.408-.816 0-1.836-1.157-3.06-3.469-.682.271-1.02.746-1.02 1.429.134.679.134 1.224 0 1.632-.137-.408-1.09-.545-2.856-.408.271.816.883 2.107 1.836 3.876-6.936-2.993-10.2-4.488-9.792-4.488-.274 0-.408.135-.408.408 0 .271-.204.408-.612.408.134 0 .067-.204-.204-.612-3.946-1.224-6.802-1.836-8.568-1.836-1.224-.545-2.11-1.766-2.652-3.672-.137-.271-.545-.541-1.224-.816-2.448-4.621-4.217-7.002-5.304-7.14 0-.134.134-.338.408-.612l.408-.612c.271-1.632-.204-2.515-1.428-2.652-.953-.134-2.04 1.09-3.264 3.672.134.274.204.682.204 1.224-.274 0-2.177 2.04-5.712 6.12-3.538 4.08-5.849 6.051-6.936 5.917.408.134-.478-.408-2.652-1.633-.545 0-1.294-.137-2.244-.407-.953-.274-1.702-.408-2.244-.408-.816.815-1.361 1.97-1.632 3.468-.408.679-1.361.883-2.856.612-3.809-.274-6.257-2.381-7.344-6.324l-3.672-4.08c-1.498-2.719-3.06-5.371-4.692-7.956-1.769-3.535-2.926-6.391-3.468-8.568-2.585-10.471-4.421-21.487-5.508-33.048l.204-2.448c0-.95-.479-1.699-1.428-2.244-.408 8.705.338 16.661 2.244 23.868-1.09-.134-1.702-.542-1.836-1.224-.545-1.766-1.02-3.943-1.428-6.528-1.498-8.432-1.702-17.679-.612-27.745.271-2.99 1.291-5.642 3.06-7.956-.137.274-.137-.067 0-1.02.271.408.542.612.816.612l.816-.408c-.408-.271-.816-.95-1.224-2.04.542 0 .95-.134 1.224-.408.271.816.679 1.906 1.224 3.264l.816.204c.271.274.475-.271.612-1.632-1.224-1.224-1.769-2.311-1.632-3.264.134 0 .306-.134.51-.408.204-.271.44-.338.714-.204.542 0 1.224.953 2.04 2.856.134-.134.204-.408.204-.816.271-2.04-.274-3.943-1.632-5.712-.137 0-.306.035-.51.102-.204.07-.443.102-.714.102-.408 0-1.02-.848-1.836-2.55-.816-1.699-1.157-2.821-1.02-3.366 0-.271.102-.51.306-.714s.306-.373.306-.51h1.224c.95.545 1.632 1.498 2.04 2.856.134.682 0 1.702-.408 3.06.134.408.475.816 1.02 1.224.271-.679.746-.95 1.428-.816.408.137 1.087.749 2.04 1.836.134-.679.475-1.699 1.02-3.06 1.087 1.09 1.836 1.973 2.244 2.652.679.137 1.154.137 1.428 0-2.722-4.759-4.013-7.819-3.876-9.18.134-.95.883-2.244 2.244-3.876 1.358-1.632 2.515-2.378 3.468-2.244.679 0 1.562.612 2.652 1.836 1.087 1.224 1.562 2.177 1.428 2.856 0 .545-.306 1.428-.918 2.652-.612 1.224-.918 2.11-.918 2.652.134.274.542 1.157 1.224 2.652 3.264-.679 4.896-1.428 4.896-2.244 0 1.09-.274-.067-.816-3.468.134 0 .373-.067.714-.204.338-.134.644-.134.918 0 1.358.137 2.244 2.789 2.652 7.956-.545 13.056.542 27.406 3.264 43.044.271.408.679 1.157 1.224 2.244.271 0 .475-.134.612-.408 0-.134-.137-.338-.408-.612 1.224-1.495 1.699-2.515 1.428-3.06l.816 1.02c.542-.679.883-1.224 1.02-1.632-.137-.271-.274-.408-.408-.408.408-.408.612-.883.612-1.428.542-.816 1.632-2.652 3.264-5.508-.137.274-.545-.067-1.224-1.02.542.137.883.274 1.02.408.271-.271.679-.746 1.224-1.428 0-.134-.07-.338-.204-.612.816-1.087 1.358-2.311 1.632-3.672 1.358-1.495 2.174-2.786 2.448-3.876 0 .137.134.274.408.408.816-.542 1.358-1.495 1.632-2.856 0-.542.067-1.428.204-2.652.816-.271 1.326-1.052 1.53-2.346.204-1.291.985-2.346 2.346-3.162 1.358-.816 2.244-1.428 2.652-1.836.134-4.351 1.02-8.906 2.652-13.668.408-1.224 1.428-2.582 3.06-4.08 1.632-1.495 2.99-2.174 4.08-2.04 1.224.137 2.378 1.294 3.468 3.468.408-.271 1.087-.338 2.04-.204-.274-.134.067-.408 1.02-.816l2.04-2.856 3.06 1.428c.408 0 1.087-.134 2.04-.408 1.224 2.722 1.766 6.461 1.632 11.22l-.204 11.22c-.137-.408-.274 0-.408 1.224.134.274.271.408.408.408.408-.408.679-.95.816-1.632 0-.408-.137-1.087-.408-2.04.271-.271.679-.338 1.224-.204 0-.679.134-1.632.408-2.856.271-1.224.475-2.174.612-2.856 0 .545.204 1.294.612 2.244.134-.408.612-1.632 1.428-3.672 0 .137.067.204.204.204.271.137.542.137.816 0l-2.856 25.296c0-.816-.137-2.107-.408-3.876-.408.545-.682 1.361-.816 2.448-.137 1.361 0 2.993.408 4.896.679-1.632 1.02-2.652 1.02-3.06l-.612 16.932c-.137 2.177-.274 5.441-.408 9.792 4.896-5.712 9.859-14.347 14.892-25.908 7.07-16.046 11.22-25.226 12.444-27.54.679-1.358 1.02-2.515 1.02-3.468.679-.134 1.087-.408 1.224-.816 0-.134-.07-.408-.204-.816 1.632-2.448 3.672-6.12 6.12-11.016 0 .408.338.953 1.02 1.632h.612c.816-1.224 1.97-2.856 3.468-4.896-.953 3.264-2.652 6.732-5.1 10.404l.408 1.02c-1.09.274-1.973 1.224-2.652 2.856-.274.682-.408 1.294-.408 1.836-.137.545 0 1.02.408 1.428-.137 0-.408-.271-.816-.816-.137.545-.682 1.294-1.632 2.244v1.632c1.632-.679 2.378-1.087 2.244-1.224-.545-.408-.816-.746-.816-1.02l.816.204c-.274 0 .271-.204 1.632-.612-.408-.542-.478-.816-.204-.816l.204-.204.204-.816c.134-.271 1.699-2.856 4.692-7.752.408-.95.338-1.495-.204-1.632.408-.134.883-.612 1.428-1.428.408-1.495 1.291-3.672 2.652-6.528 1.632-1.495 3.194-3.264 4.692-5.304.408-.408 1.766-2.107 4.08-5.1l2.04-2.448c-.137.682-.137 1.09 0 1.224.542-.542 1.428-1.358 2.652-2.448l1.224-2.448c-.137.137-.07.341.204.612.408-.542.816-1.154 1.224-1.836 0 1.632-.545 3.197-1.632 4.692.134.137.338.204.612.204l3.264-3.264c-5.849 7.752-11.086 15.233-15.708 22.44-.408.816-.545 1.632-.408 2.448l13.056-17.544c.542-.816 1.154-1.699 1.836-2.652-.274 0-.204.274.204.816 1.766-2.582 2.582-4.284 2.448-5.1.134 0 .408.274.816.816.408-.271.95-.612 1.632-1.02.134-.542.542-1.154 1.224-1.836v1.224zm-121.176-7.344c-.137 1.906-3.197 4.354-9.18 7.344-1.498-1.358-2.856-2.107-4.08-2.244h-.612c0 .137-.137.204-.408.204-3.809-.408-5.374-3.806-4.692-10.2.408-3.535 1.766-5.167 4.08-4.896.816.137 1.428.341 1.836.612 2.99-4.351 5.234-6.458 6.732-6.324 1.903.274 3.331 1.498 4.284 3.672l1.836 5.916-.204 3.264c0 .137.067.545.204 1.224.134.682.204 1.157.204 1.428zm-11.832 21.216c-.137 1.224-1.157 1.769-3.06 1.632-1.09-.134-2.04-1.087-2.856-2.856.679-.816 1.495-1.154 2.448-1.02 2.448.137 3.602.886 3.468 2.244zm-4.284 27.336h-.612l-.612.816.612.408.612-1.224zm.204 17.952c0-1.766.067-4.147.204-7.14l-1.224-1.836-.204 1.836c0 .953.271 1.973.816 3.06-.682 1.769-.545 3.13.408 4.08zm.204-22.644h-.612l-.408 1.02.612.204.408-1.224zm-.204 2.448v-.816h-.408l-.204.816h.612zm4.896 15.708l-.408-.204-.408.816.408.408.408-1.02zm6.12 65.28l-1.02-.204v-.611l1.02.203v.612zm3.264-72.012l.204-2.856c-.274-.134-.545-.338-.816-.612 0 .408-.137 1.565-.408 3.468l-.408.204v1.02c.134-.271.612-.679 1.428-1.224zm4.284-34.884c-2.993 1.361-4.217 2.04-3.672 2.04-1.499-.134-2.11-1.428-1.836-3.876.134-1.766.816-2.582 2.04-2.448.95.137 2.174.816 3.672 2.04l-.204 2.244zm-3.264 19.992v-.816l-.612-.204v.816l.612.204zm22.644-37.128c-.545.545-.886.816-1.02.816.408 0-.749-.612-3.468-1.836 0-.542.134-1.632.408-3.264 1.087.408 2.515 1.02 4.284 1.836l-.204 2.448zm3.672 50.388l-.408-.204-.408 1.02.408.204.408-1.02zm11.016-15.708c.271-2.174.271-3.398 0-3.672-1.09.953-1.702 1.769-1.836 2.448 0 .408.067.75.204 1.02v.408c.134 0 .408-.032.816-.102.408-.067.678-.102.816-.102zm12.648 64.872l1.632-26.52c0 .408-.102 1.122-.306 2.142s-.376 1.734-.51 2.142l-.816 22.236zm2.244-28.356h-.612l-.408 1.02.612.204.408-1.224zm.204-1.224h-.612l-.408 1.02.408.204.612-1.224zm.408-4.08c-.274-1.358-.341-2.311-.204-2.856-.408 3.13-.545 4.966-.408 5.508 0-.408.204-1.291.612-2.652zm.408-5.712l.408-4.08c-.816 1.361-1.224 2.244-1.224 2.652.134.274.408.749.816 1.428zm.816-5.508l-.612-.204-.408.612.612.408.408-.816zm.204 34.476l.408-3.06h-.612l-.408 3.06h.612zm.204 2.244l.204-1.224h-.612l-.204 1.224h.612zm.204 3.672l-.408 1.428-.408-.204.408-1.224h.408zm0-10.608l.204-2.856h-.612l-.204 2.856h.612zm.204-6.324l.204-1.224h-.612l-.204 1.224h.612zm.612-15.504l.204-2.652h-.612l-.204 2.448.612.204zm19.584 6.528c-.408 0-.682-.204-.816-.612.679-1.632 1.087-3.264 1.224-4.896-.816 1.361-1.836 3.264-3.06 5.712.271.816.338 1.428.204 1.836 0 .545-.341 1.09-1.02 1.632l-.204 2.244c.816-.408 1.597-1.46 2.346-3.162.746-1.699 1.189-2.617 1.326-2.754zm-.816 56.305c-.408.545-1.02.745-1.836.611.134.134.204.408.204.816 1.087-.274 1.632-.749 1.632-1.427zm1.428-1.225l-1.02 1.02-.204-.408.816-1.02.408.408zm6.324-69.156c0-.271-.07-.542-.204-.816-.137-.271-.204-.475-.204-.612-.274 0-.478.137-.612.408.134.816-.274 1.428-1.224 1.836-.408 1.906-1.361 4.15-2.856 6.732 0-1.087-.07-1.903-.204-2.448 0 .408-.172.918-.51 1.53-.341.612-.51 1.122-.51 1.53l1.02-.408c.271.274.408.612.408 1.02 3.127-5.438 4.759-8.364 4.896-8.772zm-4.08 4.08l.204-1.02-.408.204c-.274.137-.408.274-.408.408 0 .274.204.408.612.408zm5.508-11.832l-.408-.204-.612 1.836h.612l.408-1.632zm2.04.816c0-.134-.035-.373-.102-.714-.07-.338-.102-.577-.102-.714-.274.408-.682.953-1.224 1.632.408-.271.883-.338 1.428-.204zm.612-4.284h-.612l-.612 1.632.612.204.612-1.836zm11.832-8.772h-.408l-.408 1.02.204.408.612-1.428zm2.244-14.688l-.204-.612-1.428 1.224.408.204 1.224-.816zm-.612 47.124l-.408-.408-.408.204.408.612.408-.408zm2.244-5.916c-.682.953-1.157 1.632-1.428 2.04h.612c.408-.95.679-1.632.816-2.04zm3.264-14.688l-.612-.204-.612 2.244h.408l.816-2.04zm.204-47.532l-.816.816-.408-.204.612-1.02.612.408zm1.02 46.716v-1.428h-.612v1.428h.612zm2.652 5.508l-1.02 1.428-.408-.204 1.02-1.224h.408zm-.204-7.956l-1.02.204v-.408l.816-.408.204.612zm3.06-47.124c-.682 1.498-1.294 2.652-1.836 3.468-.137-.271-.204-.612-.204-1.02 0-.408.679-1.224 2.04-2.448zm.816 4.692h-.612v-1.02h.612v1.02zm2.04-7.14l-1.836 2.04-.408-.408 1.836-2.04.408.408zm-1.02 8.16l-1.224 1.02c0-.542.338-1.291 1.02-2.244 0 .545.067.953.204 1.224zM233.783 85.884c0 2.448-1.021 6.053-3.06 10.812-.816 2.314-1.973 5.986-3.468 11.016-1.632 1.769-3.946 4.762-6.936 8.976l1.02-2.04c.816-1.495 1.087-2.378.816-2.652-1.09 1.498-2.585 3.946-4.488 7.344-.816.682-2.04 1.973-3.672 3.876-.816 1.499-1.973 3.672-3.468 6.528-3.539 5.033-7.481 9.113-11.832 12.24-7.481 5.578-12.444 8.364-14.892 8.364-.408 0-1.02-.137-1.836-.408-.816-.274-1.361-.408-1.632-.408-1.09 0-2.62.236-4.59.714-1.973.476-3.503.715-4.59.715-4.08 0-8.434-2.178-13.056-6.528l-4.08-.816c-.137.408-.204.953-.204 1.633 0 .682.067 1.498.204 2.447-1.361-1.766-3.197-4.08-5.508-6.936-.137-.679-.478-1.903-1.02-3.672l-1.224-.816c-.274-1.766-.682-4.488-1.224-8.16.679-.816 1.02-1.428 1.02-1.836-1.361-3.127-2.244-5.779-2.652-7.956.408-.408.408-4.08 0-11.016 1.224-9.926 3.739-19.718 7.548-29.376 1.495-4.214 4.418-8.635 8.772-13.26 4.622-5.438 8.772-8.568 12.444-9.384.542 0 3.127-1.087 7.752-3.264-9.384 3.809-16.865 9.725-22.44 17.748-.137.137 0 .408.408.816l1.02-.816c-1.769 1.906-3.197 4.217-4.284 6.936l.816.408c4.214-5.846 11.083-12.036 20.604-18.564-.408 0-1.565.341-3.468 1.02 8.702-5.167 15.434-7.682 20.196-7.548-.137 0-.408.204-.816.612.408.274.883.408 1.428.408.679 0 1.699-.134 3.06-.408 1.358-.271 2.378-.408 3.06-.408.408 0 1.326.478 2.754 1.428 1.428.953 2.276 1.428 2.55 1.428.542 0 .781-.102.714-.306-.07-.204.032-.306.306-.306.408.137.985.581 1.734 1.326.746.749 2.754 2.958 6.018 6.63.542 1.224 1.903 2.856 4.08 4.896l.816-.816c-.953-.408-1.326-.95-1.122-1.632.204-.679.032-1.224-.51-1.632 2.174 0 3.806.478 4.896 1.428.816-.95 1.224-1.562 1.224-1.836.542 1.498 1.632 3.06 3.264 4.692.95 1.09 2.378 4.558 4.284 10.404 0 .545.067 1.428.204 2.652.271.545.883 1.09 1.836 1.632.816 1.223 1.224 2.447 1.224 3.671zm-69.36-21.624l-2.652 2.856-.204-.612 2.448-2.448.408.204zm3.264-2.04l-2.652 2.04-.204-.816 2.448-1.836.408.612zm32.436 19.584c-1.361-2.04-2.177-3.602-2.448-4.692-1.769 1.224-4.625 3.538-8.568 6.936.134-.816.679-1.836 1.632-3.06-6.257 7.752-10.812 16.39-13.668 25.908-.545-.816-.886-1.224-1.02-1.224-.953 0-1.871 1.632-2.754 4.896-.886 3.264-1.326 5.578-1.326 6.936 0 2.722.612 6.257 1.836 10.608 5.438-1.495 10.675-5.508 15.708-12.036 5.03-6.528 7.478-12.444 7.344-17.748.542.274.95-.134 1.224-1.224l.612-1.428c-1.09-.408-2.244-.883-3.468-1.428.134-.679.204-1.224.204-1.632 0-1.358-2.177-2.582-6.528-3.672l5.1-.204c.679.274 1.632.886 2.856 1.836.134-.408.338-.883.612-1.428-.816 0-1.294-.067-1.428-.204.679-.679.95-1.224.816-1.632-.545-.408-1.294-.95-2.244-1.632 2.04-.679 3.398-1.562 4.08-2.652-.408-.542-.953-1.154-1.632-1.836.408 0 .95.102 1.632.306.679.204 1.154.306 1.428.306zm-18.156-29.784h-1.224v-.816h1.224v.816zm8.772.204c-1.498.408-4.558 1.428-9.18 3.06h1.836c.816.137 3.264-.883 7.344-3.06zm-6.12-1.224h-1.224v-.816h1.224v.816zm8.976 43.86h-1.02v-.816h1.02v.816zm36.312-33.456h-.816v-1.836h.816v1.836zM230.109 38.76c1.903-.816 3.398-1.428 4.488-1.836.134 1.632.204 2.722.204 3.264-2.722 1.09-3.876 1.632-3.468 1.632-.137 0-.478-.204-1.02-.612l-.204-2.448zm5.304 49.776l.204-.816-.204-2.04c1.495-3.535 2.856-5.371 4.08-5.508.95 0 1.836.612 2.652 1.836.271.816.678 1.565 1.223 2.244.271-.134.68-.204 1.225-.204 1.357 0 2.107 1.02 2.244 3.06.135 3.946-.953 5.916-3.264 5.916-.137 0-.205-.067-.205-.204l-.406.204c-.683 0-1.566.408-2.653 1.224-3.538-2.582-5.304-4.147-5.304-4.692.001-.271.135-.612.408-1.02zm4.284 43.86l-2.244 7.548.408.204 2.448-7.752h-.612zm77.928-65.892c-.406-1.632-.406-2.582 0-2.856-1.09-3.943-1.904-6.936-2.447-8.976-1.906-1.495-3.131-2.311-3.672-2.448-.408.953-.611 1.702-.611 2.244h-.408c-1.09-1.766-1.973-2.582-2.652-2.448l-2.447 1.428c-.275-.408-.479-.679-.613-.816-2.721-1.632-4.488-2.378-5.303-2.244-.816 0-3.266 1.973-7.346 5.916-.682 0-1.223-.271-1.631-.816 0 .682-.137 1.157-.408 1.428l-1.225.204c-.273 0-.375-.102-.305-.306.066-.204-.035-.306-.307-.306-.682 0-1.361.749-2.039 2.244v1.836c0 .682-.139 1.224-.408 1.632 1.223-1.766 2.105-3.06 2.65-3.876l.205.408c-5.033 8.842-9.113 15.574-12.24 20.196-.137-1.766-.137-4.214 0-7.344-.137-.134-.203-.271-.203-.408.406-3.672.406-6.732 0-9.18-.139 0-.24.07-.307.204-.07.137-.24.204-.51.204-.545 0-.75-.816-.613-2.448l.408-2.448c-2.992-3.264-5.236-4.488-6.73-3.672 2.719 1.361 4.01 2.448 3.875 3.264 1.088.274 1.699 1.157 1.836 2.652 0 .545-.07.953-.203 1.224-1.361-2.719-2.789-4.284-4.285-4.692 0 .137.066.341.205.612.133.274.203.478.203.612l.611-.204c.68 0 1.43.682 2.244 2.04l-1.631.816c-2.855-3.127-4.559-4.759-5.1-4.896.27-.408.406-.883.406-1.428-2.313 1.498-4.486 2.448-6.527 2.856-1.498.682-2.584 1.157-3.264 1.428-.137.545-.203 1.02-.203 1.428-.547 1.09-1.295 1.906-2.244 2.448-1.225-.408-2.178-.679-2.857-.816 0-.134-.203-.067-.611.204.271 0 .408.137.408.408-.682 1.906-1.09 2.993-1.225 3.264.135-.134.439-.271.918-.408.475-.134.781-.271.918-.408.135.137.135.274 0 .408-1.498 1.906-2.244 3.06-2.244 3.468-1.09.545-1.906 1.09-2.447 1.632l.816-.612c.408.408.678.75.816 1.02-.139.274-.139.612 0 1.02.541-1.495.949-2.377 1.223-2.652.271.545.205 1.02-.203 1.428.678-.134.949.478.816 1.836.949 4.217 1.494 6.598 1.631 7.14.135.816-.137 2.722-.816 5.712.135-.134.408.137.816.816-1.09 5.986-1.836 9.996-2.244 12.036-1.77 9.521-3.061 15.504-3.875 17.952-1.498 4.217-2.244 7.548-2.244 9.996 0 .137-.102.478-.307 1.02-.203.545-.307.953-.307 1.224 0 .545.135.816.408.816l5.713-17.748-5.508 21.216c.949-3.264 1.699-5.575 2.244-6.936 0 .274-.75 3.197-2.244 8.772 0-.271.27-.475.816-.612l-2.449 6.12c-.137-.816.032-1.903.509-3.264.475-1.358.645-2.174.51-2.448-.953 3.401-1.498 5.374-1.631 5.916 0-.134.067-.271.204-.408.134.816-.682 4.15-2.448 9.996l-.407-.611c.134 2.174-.07 3.602-.612 4.284.679-1.091 1.224-1.906 1.632-2.448.134.408.204.679.204.815-.137-1.09.271-2.518 1.224-4.284l.408.613c0-.135.067-.338.204-.613.134.816.032 1.767-.306 2.856-.342 1.087-.511 1.836-.511 2.244.542-1.498.95-2.519 1.225-3.06.408.407.611.679.611.815-.682 1.766-1.02 3.061-1.02 3.876 1.631-3.264 2.514-5.033 2.653-5.304 8.293-21.895 12.443-32.911 12.443-33.048 2.582-8.293 4.758-16.045 6.527-23.256.951.953 1.428 1.294 1.428 1.02-4.762 17.952-7.209 27.132-7.344 27.54-3.264 12.24-6.801 22.032-10.607 29.376.408-.274.611-.204.611.204v1.224c.543-1.769 1.291-3.264 2.244-4.488.271.138.338.275.205.408-.953 2.856-1.77 4.622-2.449 5.305-1.906 3.806-3.129 6.799-3.672 8.976.816-1.632 1.428-2.789 1.836-3.468.135 0 .135.134 0 .408 0 .134.135.204.408.204.271-.138 1.496-2.586 3.672-7.345 3.398-7.344 5.168-11.149 5.305-11.424.133.137.203.408.203.816.135.954-1.428 4.966-4.691 12.037.816-1.091 1.563-2.04 2.244-2.856.133-.408.271-.545.408-.408.408-.273.746-.273 1.02 0-1.225 3.127-2.039 5.575-2.447 7.345 1.494-2.586 3.127-6.054 4.895-10.404l-.611.612c0-.408.408-1.496 1.225-3.265.271.274.408.479.408.612.27-2.174.611-3.739 1.02-4.692.408.408.475.749.203 1.02 3.127-5.983 4.693-10.471 4.693-13.464 1.357-2.174 2.039-3.806 2.039-4.896 0-.408-.203-.746-.611-1.02.541-.408.883-.679 1.02-.816.135-1.224.408-1.97.816-2.244l-.205-1.428c-.273-.542-.203-1.154.205-1.836l.611.408c.543-1.495.951-2.582 1.225-3.264-.545.682-1.02 1.09-1.428 1.224 0-1.632.408-2.652 1.223-3.06.271.408.408.816.408 1.224 2.582-9.384 4.555-14.551 5.916-15.504l.613.612c.27-.271.746-.408 1.428-.408.133-1.087.475-2.174 1.02-3.264.271.137.338.274.203.408-.273 1.632-.682 3.06-1.223 4.284-.275-.271-.342-.408-.205-.408.408.408.613.816.613 1.224 0 .408-.24 1.192-.715 2.346-.479 1.157-.58 2.008-.307 2.55 1.359-2.719 2.174-4.214 2.449-4.488l.408.408c-.137 1.632-.205 2.856-.205 3.672 1.225-2.582 2.174-4.214 2.857-4.896l.406.408c-.273.816-.34 1.769-.203 2.856.949-1.224 1.633-2.244 2.039-3.06.68.953 1.359 1.428 2.041 1.428.541-.95.883-1.699 1.02-2.244.271.274.338 1.157.205 2.652 2.039-3.943 3.264-6.254 3.672-6.936.133.137.27.478.408 1.02 1.766-3.127 2.785-4.963 3.059-5.508.135.274.205 1.02.205 2.244l.611-.612c.271.274.543.408.816.408.271 0 1.563-1.903 3.875-5.712 2.313-3.806 3.604-5.712 3.877-5.712h1.224l.408-1.632c0-1.087.338-1.632 1.02-1.632.408 0 1.223.239 2.447.714 1.225.478 2.041.714 2.449.714.27 0 .611-.271 1.02-.816-.137-.816-.07-1.291.203-1.428.816 1.09 1.225 1.973 1.225 2.652.133-1.632.338-2.856.611-3.672.408.953.68 1.702.816 2.244l-.611.816h1.631c-.137-2.856-.07-4.622.205-5.304.814-1.495 1.291-2.378 1.428-2.652-.406-1.632-.611-2.582-.611-2.856zm-78.539 88.944l-.408 1.225.408.204.407-1.429h-.407zm2.039-3.264l-.407 1.02h.407l.408-.815-.408-.205zm2.244-3.672l-.406-.204 2.242-7.548h.408l-2.244 7.752zm.816 14.688l-.816 1.632.613.204.611-1.632-.408-.204zm.408-106.08c1.496-1.224 2.719-1.836 3.672-1.836 1.225-.134 1.902.682 2.041 2.448.133 2.448-.545 3.742-2.041 3.876.543 0-.682-.746-3.672-2.244v-2.244zm1.428 104.652l-1.428 3.264h.816l1.225-3.264h-.613zm-.203-21.828v-.816h.611v.816h-.611zm1.019-14.892h-.611l.408-2.04h.611l-.408 2.04zm.612-2.04h-.408l.816-5.1h.613l-1.021 5.1zm.816 34.272l-.816.816.408.408.816-.816-.408-.408zm.205-91.188h-.613v1.02h.613v-1.02zm1.223-4.896c-.545.545-1.02 1.361-1.428 2.448.271-.95.746-1.562 1.428-1.836l.816.408c-.408-.542-.681-.883-.816-1.02zm.816 12.444l-.816 1.224.613.408.611-1.428-.408-.204zm.205 16.116h-.613v1.02h.613v-1.02zm-.205-20.808v-1.02h.611v1.02h-.611zm1.02 16.932h-.611l.203 1.02h.613l-.205-1.02zm.816-19.584l-.408-.204.408-.816.408.204-.408.816zm-.203-2.04c.408-1.224.949-1.97 1.631-2.244l.205 1.836c-.408-.271-1.021-.134-1.836.408zm.408 4.08l-.408-.204.408-.816h.203l-.203 1.02zm.407 49.368l-.406-.204.406-1.02.613.204-.613 1.02zm3.673 9.996l-.408-.204.408-2.04h.611l-.611 2.244zm2.448-66.708c-.137-1.358 1.02-2.107 3.469-2.244.949 0 1.766.478 2.447 1.428l-5.916.816zm.611 77.316v-.816l.613-.204v.816l-.613.204zm1.021-1.428l-.408-.204 1.02-3.06h.408l-1.02 3.264zm1.631-6.12v-.816h.611v.816h-.611zm.409-1.02l-.203-.816h.611l.203.816h-.611zm.408-1.632v-1.224l.611-.204v1.224l-.611.204zm.611-1.836l-.203-1.224h.611l.205 1.224h-.613zm.408-72.42c0-.408.439-.883 1.326-1.428.883-.542 1.529-.816 1.938-.816.271 0 .51.102.715.306.203.204.373.306.51.306.541-.95 1.563-1.428 3.061-1.428 3.264-.134 4.963 1.09 5.1 3.672.133.545 0 1.906-.408 4.08l-12.242-4.692zm.612 36.108h-.611l.205-2.652h.611l-.205 2.652zm-.407 34.068v-1.02h.406v1.02h-.406zm1.02-33.864h-.613l.408-2.856h.613l-.408 2.856zm3.672 19.992l-.408-.204.203-.816.613.204-.408.816zm.408-1.428h-.408l.408-1.836h.611l-.611 1.836zm.611-3.672l-.408-.204.613-1.428h.611l-.816 1.632zm1.02-1.836l-.408.204v-1.836l.613-.204-.205 1.836zm.408-28.968l-.611-.204.408-1.02h.611l-.408 1.224zm0 3.264v-1.224h.613v1.224h-.613zm.816-2.04h-.408v-2.244h.611l-.203 2.244zm2.245 21.828l-.408 1.836.408.204.611-1.836-.611-.204zm3.06-27.132h-.613l.205.816h.611l-.203-.816zm7.344-7.14l-.408 1.02.408.204.408-1.224h-.408zm10.607 27.948l-1.225 1.02.408.408 1.225-1.224-.408-.204zm3.061-4.08l-.408-.204.408-.816h.408l-.408 1.02zm1.631-39.168c-.406.545-.885.816-1.428.816 1.766-.134 2.652.341 2.652 1.428 0-1.224-.408-1.97-1.224-2.244zm11.017 32.232c0-.408-.139-.679-.408-.816 0 1.09-.137 1.702-.408 1.836h.611c.135-.408.205-.746.205-1.02zm1.223-10.404l-.408-2.04h.613l.408 1.836-.613.204zm2.041 1.02c.541 2.04.883 3.197 1.02 3.468-1.225-2.04-1.906-3.194-2.039-3.468 0-.271.066-.612.203-1.02.135-.408.203-.679.203-.816.543.408.951.612 1.225.612-.001.137-.204.545-.612 1.224zm3.467 4.692h-.408v1.224h.408v-1.224zM455.324 100.368c-2.041-.271-3.809.204-5.305 1.428-.273.545-.748 1.157-1.428 1.836-1.225 1.09-2.518 2.11-3.877 3.06-1.631 1.498-2.381 2.856-2.242 4.08-1.77 1.769-5.713 5.17-11.832 10.2-.139.137-.07.341.203.612 1.902-.816 3.33-1.699 4.283-2.652l1.43 1.428c0 .545-.07.749-.205.612l.816.204c1.494 0 3.602-1.224 6.324-3.672l-3.672 3.06c.133.137.611.274 1.428.408 1.225 0 3.467-.883 6.732-2.652l-.205 1.428c-.682.953-1.701 2.11-3.061 3.468-1.498.408-3.264 1.632-5.303 3.672.541.274 1.428.137 2.652-.408-.408.408-1.057.918-1.939 1.53-.885.612-1.529 1.122-1.938 1.53l1.02 1.224c-1.906-.271-2.855.204-2.855 1.428v1.428c-.273 0-1.225.408-2.855 1.224 0 .408.475.612 1.428.612-2.992 1.906-6.189 3.876-9.588 5.916l-1.225 1.225c0 .273.135.816.408 1.632.135.545.066 1.091-.203 1.632l-5.713 4.08c-2.447 1.903-4.42 2.856-5.916 2.856-3.4-.138-5.1.541-5.1 2.04l-5.508-.204c-.408.134-.682.031-.816-.307-.137-.341-.342-.58-.611-.714-.545 0-3.131.679-7.752 2.04-2.857.816-5.916 1.154-9.18 1.021-7.891-.408-15.371-2.856-22.441-7.345-.137-.273-.408-.682-.816-1.224-2.584-1.357-3.672-2.04-3.264-2.04-.545 0-.885.07-1.02.204l.408-.408v-.204h-.611l-1.021-1.02c-.682-.816-1.361-1.154-2.039-1.021.271.545.816 1.428 1.631 2.652-1.09-1.087-2.518-2.786-4.283-5.1 0-.679-.137-1.632-.408-2.856-1.09-2.311-2.518-5.983-4.283-11.016-.684.137-1.021.478-1.021 1.02 0 .816.068 1.157.205 1.02 0-.542-.273-1.087-.816-1.632l-.611.612c-.816 4.762-2.855 12.24-6.121 22.44.271.407-.34.611-1.836.611-.273 0-.748-.273-1.428-.815-.682-.545-1.293-.816-1.836-.816 0-.408.271-.886.816-1.428-.137-.271-.887-.746-2.244-1.429-1.361 1.767-3.605 4.692-6.732 8.772l-1.428-1.632c.949-1.224 1.428-1.973 1.428-2.244 0-.545-.479-1.428-1.428-2.652-.545.271-1.701 1.699-3.469 4.284-.814-1.224-1.768-2.722-2.855-4.487-.137.134-1.631 1.224-4.488 3.264-1.223-2.448-1.836-4.146-1.836-5.1.135-.95.613-1.766 1.428-2.448-.137-.271-.406-.612-.814-1.021h-1.021c-.406 0-.611.204-.611.612v-1.429c.816-.541 1.633-1.494 2.447-2.855 1.225-3.535 2.244-9.247 3.061-17.136.271-.408.543-1.224.816-2.448.135-.271.203-1.562.203-3.876 0-2.174-.137-3.739-.406-4.692l1.836-1.428 5.303-46.716c2.311-20.263 4.623-35.7 6.936-46.308.543-2.174 2.174-7.07 4.896-14.688.271-3.127.338-.883.205 6.732l-.613 12.648c.543 0 1.021-.338 1.428-1.02.816-5.03 2.652-12.036 5.51-21.012.949.408 2.105 1.361 3.467 2.856.543-.408 1.633-.542 3.264-.408.135 0 .408.07.816.204.408.137.746.204 1.02.204.408 0 .613-.134.613-.408 0-.271.203-.338.611-.204.271 0 .541.137.816.408.271.274.611.408 1.02.408 1.357.137 2.174-.612 2.447-2.244l2.244 4.896c-.137 3.401-.07 5.304.205 5.712.133 1.361 0 3.672-.408 6.936.271.953.541 2.11.816 3.468l-8.16 64.668c-.275 2.585.816 5.17 3.264 7.752.271.682 1.291 2.314 3.061 4.896 9.518-7.615 19.176-20.059 28.967-37.332.543.545 1.496 1.294 2.857 2.244-.545 2.04-1.158 3.672-1.836 4.896l-.205 1.428c.816.137 1.633-.338 2.447-1.428l1.633-2.652c.271.274.541.408.816.408-.137 2.177-.275 3.468-.408 3.876 1.086-.816 1.902-1.766 2.447-2.856l-7.547 15.096c-2.586 5.304-5.646 9.929-9.18 13.872-.408.408-1.734 1.804-3.979 4.182-2.244 2.381-3.367 3.707-3.367 3.978 0-.408.613.682 1.836 3.264-.545-.542-1.293-1.358-2.242-2.448-.684.274-1.43 1.224-2.244 2.856l.814.408c.408.137-.273.204-2.039.204-.682.274-.887.545-.611.816-.816.274-1.906 1.294-3.266 3.06 1.768 1.906 4.488 3.334 8.16 4.284 8.16 2.177 11.967 3.264 11.424 3.264h6.121l5.916-.204.611.816c4.488.274 14.893-4.759 31.213-15.096-2.178 1.632-6.461 4.488-12.852 8.568 0 .953.475 1.428 1.428 1.428l14.482-7.956c9.385-5.304 15.027-7.886 16.934-7.752.27 0 .408.07.408.204 0 .137.203.204.611.204.541.137 1.664-.102 3.365-.714 1.699-.612 2.889-.918 3.57-.918.27.139 1.427.547 3.468 1.226zm-121.381-89.76h-.816l-1.02 5.712h.613l1.223-5.712zm11.629 120.36h-.816v-1.02h.816v1.02zm2.039.204l-.408-2.04-.814-.204.406 2.04.816.204zm5.099-43.248l-2.039 1.632-.408-.408 2.041-1.632.406.408zm8.569 20.604l-.408-.408-2.855 2.448.408.612 2.855-2.652zm-2.244-97.512h-.814v-1.02h.814v1.02zm.613 80.784l-.613-.204-.408-1.428.613-.204.408 1.836zm6.527 11.424l-.408-.204-4.08 4.08.408.408 4.08-4.284zm-2.244 42.636l-2.039-1.02-.205.611 2.041 1.021.203-.612zm4.283-36.108h-1.223v-.816h1.223v.816zm3.877-46.512l-3.264 4.692-.613-.408 3.266-4.896.611.612zm-1.633 46.716l-.203.612-1.428-.612v-.612l1.631.612zm16.934 43.452c-4.896-.682-8.027-1.157-9.385-1.428-3.539-.816-6.324-1.973-8.363-3.468h1.428c1.766.134 4.283.815 7.547 2.04 3.264 1.224 5.779 1.902 7.549 2.04.816 0 1.224.271 1.224.816zm-14.892-42.432l-.205.612-1.428-.612v-.612l1.633.612zm4.691-46.308l-1.225 1.632-.406-.612 1.02-1.428.611.408zm1.019-3.468l-.814 1.632-.613-.204.816-1.428h.611zm0 28.356l-.406-.408-1.021 1.428.408.408 1.019-1.428zm17.545-20.808c-1.633 3.13-4.217 7.752-7.752 13.872-2.314 2.856-5.645 7.14-9.996 12.852l17.748-26.724zm-9.588 9.18h-.611l-1.836 3.876.406.408 2.041-4.284zm53.04 31.008l-.203-.612-2.652 1.224v.612l2.855-1.224zm17.748-8.568l-1.223-.204v-.612l1.223.204v.612zM472.666 48.96c-1.498.682-3.061 1.769-4.693 3.264-.137-.271-.408-.408-.814-.408-1.633 0-2.789 1.565-3.469 4.692 2.855-1.495 4.826-2.856 5.916-4.08-.682.545-1.02 1.09-1.02 1.632 0 .408.27.816.814 1.224-.406.137-2.789 1.294-7.139 3.468l.203.408-1.02-.204-.611.612c1.494.408 2.719.612 3.672.612-.275.137-.887.612-1.836 1.428-.684-.271-1.703.035-3.061.918-1.361.886-1.973 1.667-1.836 2.346-.137.137-1.156.953-3.061 2.448-.137.274-.07.408.205.408-.137 0-.408.07-.816.204-.408.137-.682.204-.816.204.135 0 .408-.134.816-.408-1.361-.271-2.652 0-3.877.816l-1.836 1.224h-1.223c-.139.137-.205.274-.205.408 0 .274.135.545.408.816-.137-.134-.342-.067-.611.204-.275.274-.545.408-.816.408-.273 0-.273-.134 0-.408.135-.271 0-.408-.408-.408-.816 0-2.855.816-6.119 2.448l-4.896 2.448-3.264 1.02c-1.361.682-2.178 1.02-2.449 1.02l-.814.612c-2.314.545-3.469 1.361-3.469 2.448 0 1.09.816 2.448 2.447 4.08.135.953.543 2.381 1.225 4.284 2.174.274 3.398.408 3.672.408.271 0 .408-.067.408-.204 0-.134.133-.204.408-.204.271 0 .576.172.918.51.338.341.645.51.918.51 1.086 0 2.617.204 4.59.612 1.971.408 3.434.612 4.387.612 1.902.137 3.533.478 4.895 1.02l.816-.816c2.174.545 5.576 2.244 10.201 5.1l-.408.204c.27.816 1.02 1.906 2.244 3.264h1.02c.408 0 .541-.067.408-.204l2.447 2.652c-.137.137-.238.376-.307.714-.068.341-.172.58-.305.714 4.488 2.993 6.732 4.829 6.732 5.508 0 .545-.104 1.396-.307 2.55-.205 1.157-.307 2.008-.307 2.55 0 .816.066 1.769.205 2.856-.408-.271-.75-.408-1.021-.408.271-.679.408-1.428.408-2.244s-.137-1.766-.408-2.856c-.953 5.578-1.768 9.658-2.447 12.24-1.361 4.896-3.334 8.976-5.916 12.24-.137.274-.479.816-1.02 1.632l.408-.612-.613-.612c-.408.545-1.02 1.224-1.836 2.04.135.137.338.274.613.408l1.02-.612c-.137.682-.545 1.498-1.225 2.448-1.09.545-2.652 1.499-4.691 2.856-.545-1.225-1.158-1.836-1.836-1.836-.137.137-1.158.479-3.061 1.02-.273.408-.137.612.408.612-.682 1.361-1.564 2.04-2.652 2.04-.273 0-.408-.066-.408-.204 0-.134-.137-.204-.408-.204-.273 0-.646.172-1.121.51-.479.342-.852.511-1.123.511-.137-.271-.406-.612-.814-1.021-.137.137-.342.307-.613.51-.273.205-.477.377-.611.511.68 0 1.154.137 1.428.407-.408 0-1.055-.066-1.938-.203-.887-.135-1.529-.204-1.938-.204.408 0 .746-.134 1.02-.408-.408-.408-.682-.612-.816-.612-.545 0-1.02.204-1.428.612l1.02 1.224c-.273-.271-.545-.408-.816-.408l-.408.613c.408.407.746.611 1.021.611-4.08 1.357-5.646 2.04-4.693 2.04l-1.223-.408c-.275 0-.918.373-1.939 1.122-1.02.746-1.666 1.122-1.938 1.122-.682 0-1.701.067-3.059.204-1.361.134-2.383.204-3.061.204-.275 0-.816-.408-1.633-1.225-.137.271-.07.612.205 1.021-1.225.408-2.928.883-5.102 1.428-9.791 1.225-16.727 1.836-20.807 1.836h-2.041c-.816 0-2.447-.478-4.895-1.428-.139 0-.342-.07-.613-.204h-1.02c-.408 0-.545.103-.408.306.135.204.066.307-.203.307-.275 0-.613-.138-1.021-.408-.408-.137-.885-.137-1.428 0 .68.679 1.291 1.02 1.836 1.02h-.816c-.682.135-1.156.204-1.428.204-.273 0-.646-.238-1.121-.714-.479-.478-.918-.714-1.326-.714-.682 0-1.02.338-1.02 1.021l-1.428-.612c-.953-.408-1.43-.749-1.43-1.021 0-.137.068-.273.205-.407-.137-.274-.545-.408-1.225-.408h-.816c-.133.134-.338.204-.611.204.408 0-2.039-.749-7.344-2.244-1.633-.545-8.568-1.77-20.809-3.672.408 0 .613-.271.613-.816 3.809 1.361 6.664 2.04 8.566 2.04.684 0 1.158-.134 1.43-.407-2.582-1.088-4.352-1.633-5.305-1.633-.271 0-.439.07-.51.204-.068.138-.236.204-.51.204-.135-.271-.613-.612-1.428-1.02-2.041-1.088-3.943-1.633-5.713-1.633 0-.271.07-.541.203-.816-1.357-1.086-3.193-2.718-5.508-4.896-.133-.408 0-1.428.408-3.06-.271-.134-.611-.612-1.02-1.428h1.225c-.135 0 0 .204.408.612l.611-.612c-.408-.134-1.563-.816-3.469-2.04-.133-.408-.541-1.02-1.223-1.836.406-.95 1.156-1.699 2.244-2.244 0-.408-.477-.612-1.43-.612.408-.816 1.361-1.358 2.857-1.632-.135-1.358 0-2.174.408-2.448 1.631.408 4.217.886 7.752 1.428l.611.612c.408 0 1.09.274 2.039.816.275-.271.408-.679.408-1.224 2.314 1.224 4.014 1.836 5.102 1.836.682 0 1.02-.475 1.02-1.428.137.274.408.408.816.408.545 0 .814-.271.814-.816.684.408 1.566.886 2.652 1.428 4.08.816 7.006 1.224 8.771 1.224.275 0 .479-.134.613-.408.137-.271.34-.408.611-.408.273 0 .51.239.715.714.203.478.443.714.713.714.816 0 2.008.172 3.57.51 1.563.341 2.754.51 3.57.51 5.438 0 11.15-.204 17.137-.612-.139-.134-.479-.204-1.021-.204 2.582-.271 6.051-.746 10.404-1.428 8.977-.271 18.902-1.766 29.785-4.488.541-.408.814-.679.814-.816 1.359-.134 2.787-.746 4.285-1.836 0-.816-.275-1.224-.816-1.224h-.816l1.225-.612c-.273-.271-.75-.408-1.428-.408.816-.134 2.855-1.154 6.119-3.06l-7.955-1.836c1.631.545 2.922.816 3.875.816h5.1v-1.428c-4.486-.542-9.588-1.495-15.299-2.856l-1.225.204c.68.682 1.02 1.09 1.02 1.224-1.359-.542-2.518-.816-3.467-.816.133 0 .338-.134.611-.408-.273-.408-.816-.612-1.631-.612-.684 0-1.225.137-1.633.408-.273.137-.137.682.408 1.632-.682-.134-2.789-1.428-6.324-3.876-.408.408-.479.749-.205 1.02-.682-.408-1.359-.612-2.039-.612-1.361 0-2.244 1.294-2.652 3.876-.816-.408-1.631-.612-2.447-.612-.275 0-.715.07-1.326.204-.611.137-1.055.204-1.326.204-.273.274-.203.816.203 1.632-1.631-.134-2.926.137-3.875.816.271-.816.066-1.766-.611-2.856-.816.137-1.703 1.428-2.652 3.876.133-.95.066-1.632-.205-2.04h-1.02c-.137.408-.203.816-.203 1.224 0 .408.066.816.203 1.224-.545-.134-1.156 0-1.836.408-.137-.679-.408-1.562-.816-2.652-.545.682-1.428 1.294-2.652 1.836.271-.542.816-1.087 1.633-1.632.135-1.087.408-2.244.816-3.468l-.205-1.632c-.273.274-.408.545-.408.816 0 .137.068.274.205.408-.273.137-.611.408-1.02.816-.684-.542-.953-1.224-.816-2.04.133-1.087.133-1.97 0-2.652-1.906.816-2.723 2.652-2.449 5.508 0-.134-.102-.271-.305-.408-.205-.134-.307-.338-.307-.612 0-.816.949-2.856 2.855-6.12l-.203-1.632c-.408 0-.816.545-1.225 1.632-.137-.271-.545-.746-1.223-1.428-.953.408-1.43 1.09-1.43 2.04-.406-.408-.748-.612-1.02-.612h-.611c-.137.137-.273.204-.408.204 1.766-2.174 2.652-3.672 2.652-4.488 0-.408-.102-.679-.307-.816-.203-.134-.307-.338-.307-.612h-.814c-1.09 0-1.975.682-2.652 2.04-.137 0-.443-.134-.918-.408-.479-.271-.852-.408-1.123-.408.408-3.806 4.215-12.444 11.424-25.908 2.721-2.856 5.916-7.003 9.59-12.444v1.428c1.494-1.495 3.672-3.468 6.527-5.916 2.174-1.357 3.602-2.311 4.283-2.856 1.904-1.495 2.924-2.719 3.061-3.672 2.039 0 5.846-1.562 11.424-4.692l7.957-4.488c3.941-1.357 6.186-2.719 6.73-4.08.135.137.408.204.816.204.68 0 2.174-.746 4.488-2.244-.408-.408-.75-.612-1.02-.612l.816-1.02c.133 0 .234.239.305.714.066.478.307.714.715.714s.816-.204 1.223-.612c-.273 0 .068.478 1.021 1.428.678-.271 1.699-.746 3.059-1.428v2.448c-.545-.134-.953-.134-1.223 0v.612l-.603-.206c-.408-.134-.682-.204-.814-.204l-.205 2.04c2.041 0 3.264-.816 3.672-2.448 3.398-1.632 5.508-2.244 6.324-1.836 0 .274-.203.682-.611 1.224.133.137.408.204.816.204.27-.679.406-1.562.406-2.652l1.836 1.224c.271 1.361.408 2.244.408 2.652 0 .137-.238.51-.713 1.122-.479.612-.715 1.122-.715 1.53 0 .274.205.886.613 1.836.133-.271.203-.746.203-1.428.135 0 .338-.134.611-.408.271-.271.613-.408 1.021-.408.27 0 .338.137.203.408-.137.274-.07.408.203.408.408 0 .781-.134 1.123-.408.338-.271.576-.408.715-.408 0 .274-.07.749-.205 1.428v1.224c.816.953 1.225 1.769 1.225 2.448-.137.408-.682 2.448-1.633 6.12 0-.816.135-1.291.408-1.428v-1.224c-.137-.271-.342-.408-.611-.408l-1.021 3.06c.135.137.477.204 1.021.204.541 0 1.02-.338 1.428-1.02.409.274.679.408.818.408zm-134.641 85.884h-1.02v-.612h1.02v.612zm6.527 10.812l-1.836-.407v-.612l1.836.407v.612zm13.873 1.02v-.612h-1.225v.612h1.225zm.408-3.263v-.613h-1.021v.613h1.021zm1.02 1.427v-.612h-.816v.612h.816zm1.428.409v-.612h-1.225v.612h1.225zm-.203 2.244v-.613h-1.021v.613h1.021zm.203-3.265v-.612h-.816v.612h.816zm1.836.408v-.612h-1.225v.612h1.225zm1.836 1.428v-.612l-2.447-.408v.612l2.447.408zm-.409-7.344v-.612h-.816v.612h.816zm.817 6.12v-.612h-1.633v.612h1.633zm.203 3.672v-.612l-1.836-.407v.611l1.836.408zm1.836-1.836v-.612l-2.242-.408v.612l2.242.408zm1.225-7.14v-.612h-1.02v.612h1.02zm1.019 7.14v-.612h-1.428v.612h1.428zm1.43-6.732v-.612h-2.041v.612h2.041zm.406 7.14v-.612h-1.02v.612h1.02zm0 2.04v-.611h-1.02v.611h1.02zm1.43 0v-.611h-1.021v.611h1.021zm5.711-2.448v-.612l-5.916-.408v.612l5.916.408zm-.409 1.02v-.611l-5.508-.205v.613l5.508.203zm-3.263 1.836v-.611h-2.039v.611h2.039zm4.691.816v-.612l-3.875-.815v.611l3.875.816zm1.022-.408v-.612h-.816v.612h.816zm1.222 3.06l-1.631-.816-.205.612 1.633.815.203-.611zm1.836-5.916v-.612h-1.836v.612h1.836zm2.449-4.08v-.612h-3.061v.612h3.061zm0 7.344v-.612h-2.449v.612h2.449zm38.963.612c-.545 0-1.396-.07-2.549-.204-1.158-.138-2.008-.204-2.551-.204-.273 0-.545.169-.816.51-.273.338-.545.51-.816.51-.273 0-.545-.102-.814-.306-.275-.204-.479-.306-.613-.306-1.631 0-3.197.338-4.691 1.02l-.816-.816c-1.09.135-2.721.542-4.895 1.225.27-.274.406-.545.406-.816h-2.447c0 .271-.07.542-.203.816-.408-.408-.816-.612-1.225-.612.408.408.541.679.408.816-1.09-.274-2.041-.408-2.855-.408.678 0 .814.134.406.408h-1.02c-.408-.408-1.225-.612-2.447-.612h-5.1c-.408.134-1.836.204-4.285.204h-2.855c.541 0 1.393.306 2.551.918 1.152.612 1.867.918 2.141.918.271 0 .68-.102 1.225-.306.541-.204.949-.307 1.225-.307.27 0 .27.134 0 .408-.139.134-.07.204.203.204.541 0 1.291-.102 2.244-.306.949-.204 1.633-.307 2.039-.307.543.408.885.612 1.021.612 3.396 0 5.779-.137 7.139-.408 0-.682.068-1.09.205-1.224.133 0 .203.169.203.51 0 .338.205.51.613.51.541 0 .744-.137.611-.407l.611.815c2.857 0 5.576-.408 8.16-1.224-.273.271-.07.408.613.408 1.223 0 2.58-.408 4.08-1.225 0 .271.475-.07 1.428-1.02l.203.611c.135.408.408.612.816.612.271 0 .713-.172 1.326-.51.612-.338.985-.507 1.121-.507zm-37.535-3.876v-.612h-2.041v.612h2.041zm.817 3.06l-1.43-.408v.408l1.225.408.205-.408zm2.447-23.256h-1.02v-.612h1.02v.612zm.203-46.716l-.611 1.428-.408-.204.408-1.224h.611zm1.021-2.856l-.816 2.448-.611-.204.814-2.244h.613zm0 20.808v-1.02h-.613v1.02h.613zm2.04 52.224v-.612h-2.039v.612h2.039zm0-50.388l-.203-.612-.816.408v.612l1.019-.408zm5.916 47.533v-.613h-5.1v.613h5.1zm-3.875 2.855v-.612h-1.021v.612h1.021zm1.427 0v-.612h-1.02v.612h1.02zm1.836-22.032v-.612h-2.449v.612h2.449zm0 22.032v-.612h-1.02v.612h1.02zm3.875-22.032v-.612l-3.467-.204v.612l3.467.204zm-1.428 22.032v-.612h-2.039v.612h2.039zm-1.019 1.02v-.611h-1.02v.611h1.02zm.816 5.916l-.205.612-1.02-.612.205-.407 1.02.407zm2.448-.816h-2.039v-.816h2.039v.816zm-.817-6.12v-.612h-.814v.612h.814zm1.633-90.78l-1.225 1.224-.408-.408 1.225-1.224.408.408zm1.02 91.8v-.611h-2.447v.611h2.447zm-.409-1.02v-.612h-1.631v.612h1.631zm3.469-3.264v-.612h-1.225v.612h1.225zm1.225 9.384c-.816 0-1.361.134-1.633.408l.816-1.021c.133.135.408.339.817.613zm-.614-10.608l-.611-.408-.205.408.408.408.408-.408zm8.772 9.18c-1.904.408-3.672.612-5.303.612 2.582-.815 3.672-1.224 3.264-1.224.68 0 1.357.204 2.039.612zm-2.447-4.488v-.612h-1.428v.612h1.428zm.408-1.02v-.611h-1.428v.611h1.428zm1.019-3.876v-.612h-1.428v.612h1.428zm5.1 8.568h-1.836v-.612h1.836v.612zm1.43-.612h-1.43v-.612h1.43v.612zm2.855-3.264h-2.652c.949 0 1.699.271 2.244.815 0-.136.135-.407.408-.815zm3.467 1.02v-.611h-.814v.611h.814zm2.244-2.448v-.612h-1.02v.612h1.02zm.613-1.224v-.611h-1.225v.611h1.225zm.203 1.836l-.203-.611-1.225.407v.612l1.428-.408zm1.225-2.039v-.613h-1.225v.613h1.225zm.816-35.905h-1.021v-.612h1.021v.612zm3.264 5.508l-1.02.408v-.408l.814-.408.206.408zm1.428 32.64l-1.225.816-.203-.408 1.225-.816.203.408zm2.039-3.672v-.612h-1.223v.612h1.223zm2.857 1.429h-.816v-.613h.816v.613zm3.672-9.385v-.612h-1.02v.612h1.02zm0 5.916l-.205-.408-.814.408v.408l1.019-.408zm2.653-7.14l-.205-.408-2.244.612v.612l2.449-.816zm-1.022 13.26l-1.223.408v-.408l1.02-.408.203.408zm7.346-53.448c-.547-1.087-3.197-2.311-7.957-3.672-.137.137-.203.749-.203 1.836 2.988.274 5.711.886 8.16 1.836zm-7.141 42.432v-.612h-1.02v.612h1.02zm7.955.408c-1.631.137-2.926 1.157-3.875 3.06-.137-.271-.408-.408-.816-.408 0 .273.135.682.408 1.225 2.039-.952 3.469-2.245 4.283-3.877zm1.836-74.052l-4.283 1.836v-.408l4.08-2.04.203.612zm-1.836 32.232l-2.039-.816v.612l1.836.612.203-.408zm.817 2.856l-1.225-1.836-.406.408 1.223 1.632.408-.204zm-.612 46.512h-.816v-.612h.816v.612zm3.264-46.512c-1.225.682-1.77 1.224-1.633 1.632.543.545.951.816 1.225.816 0-.271.066-.679.203-1.224.135-.542.205-.95.205-1.224zm-.611-35.292h-1.021v-.612h1.021v.612zm1.427 72.216l-1.633 1.632-.203-.408 1.631-1.632.205.408zm0-95.064l-.205-.408-1.223.816.203.408 1.225-.816zm0 20.196l-1.021.816-.406-.612 1.223-.816.204.612zm1.428-5.712h-1.428l-.613.816c.817 0 1.496-.271 2.041-.816zm.408 46.104c-.545-.408-1.225-1.087-2.041-2.04.135.274.205.545.205.816 0 .408-.137.749-.408 1.02 1.086 1.09 1.631 1.565 1.631 1.428 0-.542.205-.95.613-1.224zm2.039-63.648c-.682-.134-1.428-.542-2.244-1.224-.273-.271-.479-.408-.611-.408v1.224c-.137.545-.205.886-.205 1.02.135-.134.271-.338.408-.612.135-.271.271-.475.408-.612.271.816.135 1.565-.408 2.244l-.814 1.02c1.902-.271 3.058-1.154 3.466-2.652zm-1.836 19.992h-1.225v-.612h1.225v.612zm1.633-.816l-1.02.612v-.612l.814-.408.206.408zm.409 76.092h-.613l-.408-.816.613-.204.408 1.02zm1.019-92.208l-.408-.408-.816.816.408.408.816-.816zm.408 7.14v-1.224h-.613v1.224h.613zm2.039-5.508v-4.08c-.273-.271-.748-.408-1.428-.408 0 .274-.137.612-.408 1.02-.273.408-.408.816-.408 1.224l.613.612v2.856c.409-.271.95-.679 1.631-1.224zm-.611 2.04l-.205-.612-1.223.408v.612l1.428-.408zm.408 72.42h-.613v-1.02h.613v1.02zm2.244-96.288l-.816.816h-1.836v-2.448l1.428-1.428c.271.137.679 1.157 1.224 3.06zm-1.224 97.308h-.611l-.408-.816.611-.204.408 1.02zm16.728-86.088c0 .953-.682 2.177-2.041 3.672l-2.447 2.04c-.273-.271-.887-1.087-1.836-2.448-.408.274-1.428.07-3.061-.612.816-.542 1.291-1.087 1.428-1.632-2.447-.679-4.15-2.786-5.1-6.324l-1.428 1.428-2.447-2.448c1.086-1.766 1.902-2.652 2.447-2.652l.611.816c.135-.816.477-1.903 1.021-3.264 1.631-2.448 3.672-3.672 6.119-3.672.271 0 .949.204 2.041.612 1.086.408 1.902.612 2.447.612.133.545.066 1.157-.205 1.836 1.633 1.632 2.449 2.926 2.449 3.876 0 .545-.816 2.244-2.449 5.1 1.635.953 2.451 1.973 2.451 3.06zm-14.281 90.984l-.406 1.428-.408-.204.408-1.224h.406zm30.193-81.192c-1.906 1.361-4.83 3.264-8.773 5.712-1.09.953-2.584 2.244-4.486 3.876-.139 0-.408-.134-.816-.408 2.038-3.127 6.732-6.187 14.075-9.18zm1.428-5.304c0 .274-.07.612-.205 1.02-.137.408-.203.749-.203 1.02-.682-.134-1.361 0-2.039.408-.547-.679-.816-1.087-.816-1.224 0-.271.133-.781.408-1.53.27-.746.408-1.256.408-1.53.541-.134 1.357-.134 2.447 0v1.836z"/></g></svg>